P2
64
64
255
255
255
255
255
255
255
255
255
255
255
255
255
255
255
255
255
255
255
253
254
255
255
255
245
234
214
202
190
182
172
170
170
172
181
189
202
216
237
247
255
255
255
253
254
255
255
255
255
255
255
255
255
255
255
255
255
255
255
255
255
255
255
255
255
255
255
255
255
255
255
255
255
255
255
255
255
255
255
255
255
254
254
255
255
245
222
199
173
155
148
143
143
143
143
143
143
143
143
143
143
148
156
176
203
226
248
255
255
253
254
255
255
255
255
255
255
255
255
255
255
255
255
255
255
255
255
255
255
255
255
255
255
255
255
255
255
255
255
255
255
255
255
255
254
255
255
240
209
169
146
140
142
143
143
143
143
143
143
143
143
143
143
143
143
143
143
142
141
151
179
214
245
255
255
253
255
255
255
255
255
255
255
255
255
255
255
255
255
255
255
255
255
255
255
255
255
255
255
255
255
255
255
255
255
255
255
253
255
249
216
165
140
142
142
142
143
144
144
144
144
143
143
143
143
143
143
143
143
143
143
144
144
143
141
140
171
221
250
255
253
255
255
255
255
255
255
255
255
255
255
255
255
255
255
255
255
255
255
255
255
255
255
255
255
255
255
255
255
255
254
255
239
186
137
140
140
143
145
146
145
140
140
141
143
143
144
143
143
143
143
143
143
143
143
143
143
143
144
143
142
142
190
238
255
253
254
255
255
255
255
255
255
255
255
255
255
255
255
255
255
255
255
255
255
255
255
255
255
255
255
255
255
255
254
225
164
149
173
193
208
211
212
215
208
209
197
177
156
141
142
143
143
143
143
143
143
143
143
143
143
143
143
143
144
143
141
163
227
255
254
255
255
255
255
255
255
255
255
255
255
255
255
255
255
255
255
255
255
255
255
255
255
255
255
255
254
255
244
208
202
232
246
253
255
255
255
255
255
255
253
246
233
209
173
142
143
143
143
143
143
143
143
143
143
143
143
143
143
143
144
143
149
217
254
254
254
255
255
255
255
255
255
255
255
255
255
255
255
255
255
255
255
255
255
255
255
255
255
255
255
255
251
246
255
255
255
253
251
252
253
255
255
255
255
255
255
255
252
215
159
143
143
143
143
143
143
143
143
143
143
143
143
143
143
144
143
145
213
255
254
254
255
255
255
255
255
255
255
255
255
255
255
255
255
255
255
255
255
255
255
255
255
255
255
255
254
255
253
255
255
255
255
255
253
249
242
231
222
217
209
200
206
213
178
143
143
143
143
144
144
144
144
143
143
143
143
143
143
143
144
143
146
221
255
254
255
255
255
255
255
255
255
255
255
255
255
255
255
255
255
255
255
255
255
255
255
254
253
254
255
255
255
249
237
222
214
200
187
169
156
152
147
146
146
147
146
143
143
143
143
143
143
143
143
143
143
143
143
143
143
144
144
143
143
144
143
155
231
255
254
255
255
255
255
255
255
255
255
255
255
255
255
255
255
255
255
255
255
255
253
255
255
255
242
222
202
173
155
146
140
142
150
160
168
177
186
196
200
205
214
215
214
214
206
200
197
188
180
171
163
155
145
143
143
143
143
143
144
144
144
142
169
243
255
254
255
255
255
255
255
255
255
255
255
255
255
255
255
255
255
255
255
255
255
252
229
196
162
143
142
156
176
198
217
230
239
249
255
255
255
255
253
254
253
248
249
253
254
252
255
255
255
255
246
237
226
212
193
173
158
145
143
143
143
145
140
198
254
254
254
255
255
255
255
255
255
255
255
255
255
255
255
255
255
255
254
254
230
185
144
141
166
201
227
248
255
250
246
238
223
208
197
190
186
180
176
177
173
160
161
172
177
176
181
188
195
204
215
230
242
248
253
255
241
222
197
167
147
143
143
150
228
255
253
255
255
255
255
255
255
255
255
255
255
255
255
255
255
254
255
225
145
145
187
228
251
250
235
208
188
174
160
148
146
168
175
144
141
140
140
140
154
196
193
155
140
140
140
141
141
142
143
147
153
166
180
197
219
240
250
250
227
192
159
140
182
250
255
254
255
255
255
255
255
255
255
255
255
255
255
255
254
255
249
182
163
228
252
231
199
168
150
162
161
140
142
142
171
229
247
210
179
191
194
193
222
255
255
227
200
201
194
189
181
165
148
143
143
143
143
143
145
153
172
200
230
251
241
195
154
223
255
253
255
255
255
255
255
255
255
255
255
255
255
255
254
255
243
214
239
250
188
151
143
143
151
230
238
197
202
214
239
255
255
255
251
253
254
255
255
254
254
255
255
255
255
255
253
245
237
214
190
161
140
143
143
143
143
143
149
178
235
255
216
230
255
254
255
255
255
255
255
255
255
255
255
255
255
255
255
255
254
254
255
235
162
197
194
191
221
250
255
255
255
239
224
224
222
218
233
254
255
255
254
255
255
254
253
253
255
240
219
223
228
228
227
235
212
168
143
143
144
144
143
140
213
254
255
254
255
255
255
255
255
255
255
255
255
255
255
255
255
255
255
255
255
254
254
252
224
246
255
255
255
255
254
254
253
201
150
153
152
148
195
253
254
254
255
255
255
255
255
253
255
214
162
154
148
146
167
243
255
243
195
149
143
144
142
166
239
255
252
255
255
255
255
255
255
255
255
255
255
255
255
255
255
255
255
255
255
255
255
255
235
211
215
216
215
230
253
254
255
238
189
146
142
147
219
255
254
255
255
255
255
255
255
255
255
245
205
152
143
140
202
253
251
255
233
153
143
144
140
181
245
255
254
255
255
255
255
255
255
255
255
255
255
255
255
255
255
255
255
255
255
255
254
255
207
153
147
144
140
183
251
254
255
244
179
140
142
153
229
255
253
255
255
255
255
255
255
255
255
255
200
140
144
145
207
255
251
254
223
161
150
143
140
177
242
255
254
255
255
255
255
255
255
255
255
255
255
255
255
255
255
255
255
255
255
255
254
255
245
194
147
142
146
225
255
252
255
238
174
140
142
152
227
255
253
255
255
255
255
255
255
254
255
253
194
140
143
145
204
255
252
255
251
215
153
142
142
204
255
254
255
255
255
255
255
255
255
255
255
255
255
255
255
255
255
255
255
255
255
255
254
255
245
170
142
142
150
232
255
252
255
239
175
140
142
152
227
255
253
255
255
255
255
255
255
254
255
254
195
140
143
145
204
255
252
254
255
195
140
143
145
201
255
253
255
255
255
255
255
255
255
255
255
255
255
255
255
255
255
255
255
255
255
255
254
255
243
167
142
142
150
230
255
252
255
239
175
140
142
152
227
255
253
255
255
255
255
255
255
254
255
254
195
140
143
145
204
255
252
254
255
195
140
143
145
202
255
253
255
255
255
255
255
255
255
255
255
255
255
255
255
255
255
255
255
255
255
255
254
255
243
168
142
142
150
231
255
252
255
239
175
140
142
152
227
255
253
255
255
255
255
255
255
254
255
254
195
140
143
145
204
255
252
254
255
195
140
143
145
202
255
253
255
255
255
255
255
255
255
255
255
255
255
255
255
255
255
255
255
255
255
255
254
255
243
168
142
142
150
231
255
252
255
239
175
140
142
152
227
255
253
255
255
255
255
255
255
254
255
254
195
140
143
145
204
255
252
254
255
195
140
143
145
202
255
253
255
255
255
255
255
255
255
255
255
255
255
255
255
255
255
255
255
255
255
255
254
255
243
168
142
142
150
231
255
252
255
239
175
140
142
152
227
255
253
255
255
255
255
255
255
254
255
254
195
140
143
145
204
255
252
254
255
195
140
143
145
202
255
253
255
255
255
255
255
255
255
255
255
255
255
255
255
255
255
255
255
255
255
255
254
255
243
168
142
142
150
231
255
252
255
239
175
140
142
152
227
255
253
255
255
255
255
255
255
254
255
254
195
140
143
145
204
255
252
254
255
195
140
143
145
202
255
253
255
255
255
255
255
255
255
255
255
255
255
255
255
255
255
255
255
255
255
255
254
255
243
168
142
142
150
231
255
252
255
239
175
140
142
152
227
255
253
255
255
255
255
255
255
254
255
254
195
140
143
145
204
255
252
254
255
195
140
143
145
202
255
253
255
255
255
255
255
255
255
255
255
255
255
255
255
255
255
255
255
255
255
255
254
255
243
168
142
142
150
231
255
252
255
239
175
140
142
152
227
255
253
255
255
255
255
255
255
254
255
254
195
140
143
145
204
255
252
254
255
195
140
143
145
202
255
253
255
255
255
255
255
255
255
255
255
255
255
255
255
255
255
255
255
255
255
255
254
255
243
168
142
142
150
231
255
252
255
239
175
140
142
152
227
255
253
255
255
255
255
255
255
254
255
254
195
140
143
145
204
255
252
254
255
195
140
143
145
202
255
253
255
255
255
255
255
255
255
255
255
255
255
255
255
255
255
255
255
255
255
255
254
255
243
168
142
142
150
231
255
252
255
239
175
140
142
152
227
255
253
255
255
255
255
255
255
254
255
254
195
140
143
145
204
255
252
254
255
195
140
143
145
202
255
253
255
255
255
255
255
255
255
255
255
255
255
255
255
255
255
255
255
255
255
255
254
255
243
168
142
142
150
231
255
252
255
239
175
140
142
152
227
255
253
255
255
255
255
255
255
254
255
254
195
140
143
145
204
255
252
254
255
195
140
143
145
202
255
253
255
255
255
255
255
255
255
255
255
255
255
255
255
255
255
255
255
255
255
255
254
255
243
168
142
142
150
231
255
252
255
239
175
140
142
152
227
255
253
255
255
255
255
255
255
254
255
254
195
140
143
145
204
255
252
254
255
195
140
143
145
202
255
253
255
255
255
255
255
255
255
255
255
255
255
255
255
255
255
255
255
255
255
255
254
255
243
168
142
142
150
231
255
252
255
239
175
140
142
152
227
255
253
255
255
255
255
255
255
254
255
254
195
140
143
145
204
255
252
255
255
191
140
143
145
202
255
253
255
255
255
255
255
255
255
255
255
255
255
255
255
255
255
255
255
255
255
255
254
255
243
168
142
142
150
231
255
252
255
239
175
140
142
152
227
255
253
255
255
255
255
255
255
254
255
254
195
140
143
145
204
255
252
255
255
183
140
143
145
202
255
253
255
255
255
255
255
255
255
255
255
255
255
255
255
255
255
255
255
255
255
255
254
255
243
168
142
142
150
231
255
252
255
239
175
140
142
152
227
255
253
255
255
255
255
255
255
254
255
254
195
140
143
145
204
255
252
255
255
183
140
143
145
202
255
253
255
255
255
255
255
255
255
255
255
255
255
255
255
255
255
255
255
255
255
255
254
255
243
168
142
142
150
231
255
252
255
239
175
140
142
152
227
255
253
255
255
255
255
255
255
254
255
254
195
140
143
145
204
255
252
255
255
183
140
143
145
202
255
253
255
255
255
255
255
255
255
255
255
255
255
255
255
255
255
255
255
255
255
255
254
255
243
168
142
142
150
231
255
252
255
239
175
140
142
152
227
255
253
255
254
254
254
254
255
254
255
254
195
140
143
145
204
255
252
255
255
183
140
143
145
202
255
253
255
255
255
255
255
255
255
255
255
255
255
255
255
255
255
255
255
255
255
255
254
255
243
168
142
142
150
231
255
252
255
239
175
140
142
152
227
255
252
255
255
255
255
255
255
253
255
254
195
140
143
145
204
255
252
255
255
183
140
143
145
202
255
253
255
255
255
255
255
255
255
255
255
255
255
255
255
255
255
255
255
255
255
255
254
255
243
168
142
142
150
231
255
252
255
239
175
140
142
152
227
255
246
214
189
194
195
195
194
233
255
253
196
140
143
145
204
255
252
255
255
183
140
143
145
202
255
253
255
255
255
255
255
255
255
255
255
255
255
255
255
255
255
255
255
255
255
255
254
255
243
168
142
142
150
231
255
252
255
239
175
140
142
152
227
255
255
209
152
154
141
139
161
237
255
253
195
140
143
145
204
255
252
255
255
183
140
143
145
202
255
253
255
255
255
255
255
255
255
255
255
255
255
255
255
255
255
255
255
255
255
255
254
255
243
168
142
142
150
231
255
252
255
239
175
140
142
152
227
255
254
253
238
193
149
141
195
255
255
254
195
140
143
145
204
255
252
255
255
183
140
143
145
202
255
253
255
255
255
255
255
255
255
255
255
255
255
255
255
255
255
255
255
255
255
255
254
255
243
168
142
142
150
231
255
252
255
239
175
140
142
152
227
255
254
246
191
146
143
140
196
254
255
254
195
140
143
145
204
255
252
255
255
183
140
143
145
202
255
253
255
255
255
255
255
255
255
255
255
255
255
255
255
255
255
255
255
255
255
255
254
255
243
168
142
142
150
231
255
252
255
239
175
140
142
152
227
255
255
232
151
142
144
140
196
254
255
254
195
140
143
145
204
255
252
255
255
183
140
143
145
202
255
253
255
255
255
255
255
255
255
255
255
255
255
255
255
255
255
255
255
255
255
255
254
255
243
168
142
142
150
231
255
252
255
239
175
140
142
152
227
255
255
232
155
142
144
140
196
254
255
254
195
140
143
145
204
255
252
255
255
183
140
143
145
202
255
253
255
255
255
255
255
255
255
255
255
255
255
255
255
255
255
255
255
255
255
255
254
255
243
168
142
142
150
231
255
252
255
239
175
140
142
152
227
255
255
232
155
142
144
140
196
254
255
254
195
140
143
145
204
255
252
255
255
183
140
143
145
202
255
253
255
255
255
255
255
255
255
255
255
255
255
255
255
255
255
255
255
255
255
255
254
255
243
168
142
142
150
231
255
252
255
239
175
140
142
152
227
255
255
232
155
142
144
140
196
254
255
254
195
140
143
145
204
255
252
255
255
183
140
143
145
202
255
253
255
255
255
255
255
255
255
255
255
255
255
255
255
255
255
255
255
255
255
255
254
255
243
168
142
142
150
231
255
252
255
239
175
140
142
152
227
255
255
231
155
142
144
140
196
254
255
254
195
140
143
145
204
255
252
255
255
183
140
143
145
202
255
253
255
255
255
255
255
255
255
255
255
255
255
255
255
255
255
255
255
255
255
255
254
255
243
168
142
142
150
231
255
252
255
239
175
140
142
152
227
255
255
234
152
142
145
141
193
255
255
254
195
140
143
145
204
255
252
255
255
183
140
143
145
202
255
253
255
255
255
255
255
255
255
255
255
255
255
255
255
255
255
255
255
255
255
255
253
253
243
169
143
143
150
231
255
252
255
239
175
140
142
152
227
255
251
204
140
142
142
142
160
231
255
253
195
140
143
145
204
255
252
255
255
184
141
144
146
202
254
252
255
255
255
255
255
255
255
255
255
255
255
255
255
255
255
255
255
255
255
255
255
255
243
164
142
142
146
230
255
252
255
239
176
140
142
153
227
255
246
193
146
153
151
150
155
220
255
253
196
140
144
145
205
255
252
255
255
181
140
142
146
199
255
255
254
254
254
255
255
255
255
255
255
255
255
255
255
255
255
255
255
255
254
255
235
228
250
204
170
167
184
239
253
252
255
239
174
140
142
151
226
255
252
239
234
234
232
234
235
245
255
254
194
140
143
145
203
255
252
254
253
219
175
175
186
234
254
227
240
255
255
255
255
255
255
255
255
255
255
255
255
255
255
255
255
254
253
255
206
150
188
219
233
245
255
255
255
255
254
242
185
140
142
161
232
254
252
255
255
255
255
255
255
255
253
253
204
142
142
150
211
254
252
255
255
255
255
250
244
223
189
158
223
247
248
255
255
255
255
255
255
255
255
255
255
255
255
255
255
255
255
253
209
138
143
146
164
185
206
224
238
249
255
255
242
226
226
238
255
255
255
255
254
254
254
254
254
255
255
255
247
229
226
233
251
255
255
248
238
223
208
186
164
145
141
144
162
169
168
219
254
255
255
255
255
255
255
255
255
255
255
255
255
241
249
255
232
177
147
143
143
143
143
149
162
174
193
202
213
228
237
240
239
244
244
248
251
251
251
251
251
247
244
243
240
240
235
225
212
203
192
174
163
150
143
143
143
143
144
143
143
143
139
183
249
255
254
255
255
255
255
255
255
255
255
254
255
199
188
236
255
250
215
179
153
143
143
143
142
142
140
142
143
145
147
155
162
169
169
175
180
180
180
180
179
172
169
169
160
153
146
144
143
140
140
142
142
143
143
144
144
143
143
143
144
145
141
187
248
255
254
255
255
255
255
255
255
255
255
253
255
186
144
163
199
233
255
255
233
205
180
159
148
143
143
143
143
143
143
143
143
142
142
142
142
142
142
142
142
142
142
142
143
143
143
143
143
143
144
144
144
143
143
143
143
143
143
143
143
144
141
184
248
255
254
255
255
255
255
255
255
255
255
253
255
209
144
141
143
159
188
216
244
255
255
246
226
207
188
174
161
150
147
144
143
143
143
143
143
143
143
143
143
143
143
144
148
148
143
143
143
143
143
143
143
143
143
143
143
143
143
143
144
143
137
197
252
254
255
255
255
255
255
255
255
255
255
254
255
246
203
148
141
142
142
145
159
181
204
225
241
253
255
250
245
240
230
218
210
203
198
190
190
191
191
192
190
193
198
196
190
168
143
143
143
143
143
143
143
143
143
143
143
144
143
143
142
141
188
241
255
254
255
255
255
255
255
255
255
255
255
255
255
255
254
225
183
149
140
142
142
143
143
147
158
167
181
196
208
219
226
230
231
237
239
239
235
230
229
223
213
201
187
169
156
145
143
143
143
143
143
143
143
144
144
143
142
142
140
147
175
219
249
255
254
255
255
255
255
255
255
255
255
255
255
255
255
254
255
255
250
230
202
169
152
141
140
141
143
142
143
143
143
143
145
149
150
156
157
157
154
149
148
143
143
143
143
143
143
143
144
144
144
144
143
142
143
141
140
141
151
168
199
225
249
255
255
254
255
255
255
255
255
255
255
255
255
255
255
255
255
255
255
253
255
255
255
246
226
212
193
172
159
151
143
140
141
141
141
141
143
143
143
143
143
143
143
143
143
143
143
143
143
141
141
141
141
140
143
149
157
172
192
211
225
245
255
255
255
253
254
255
255
255
255
255
255
255
255
255
255
255
255
255
255
255
255
255
254
253
254
255
255
255
254
246
235
219
211
205
193
184
177
170
160
157
157
153
152
152
152
151
151
152
156
156
159
170
176
183
192
203
210
219
234
245
253
255
255
255
254
253
254
255
255
255
255
255
255
255
255
255
255
255
255
255
255
255
255
255
255
255
255
255
255
254
253
253
255
255
255
255
255
255
253
248
244
241
238
234
233
224
222
222
222
222
222
224
233
234
238
242
244
248
253
255
255
255
255
255
255
253
253
254
255
255
255
255
255
255
255
255
255
255
255
255
255
