P2
101
101
255
127
125
151
149
149
149
149
149
149
149
149
149
149
149
149
149
149
149
149
149
149
149
149
149
149
149
149
149
149
149
149
149
149
149
149
149
149
149
152
147
149
151
185
186
192
192
192
192
192
192
192
192
193
193
193
193
193
193
193
193
193
193
193
193
193
193
193
193
193
193
193
193
193
193
193
193
190
191
195
187
170
55
90
122
226
227
226
230
229
222
135
200
255
255
255
255
255
255
255
255
255
127
125
151
150
149
149
149
149
149
149
149
149
149
149
149
149
149
149
149
149
149
149
149
149
149
149
149
149
149
149
149
149
149
149
149
149
149
149
152
147
149
151
185
188
191
191
191
191
191
191
191
191
192
192
192
192
192
192
192
192
192
192
192
192
192
192
192
192
192
192
192
192
192
192
192
192
188
189
192
184
169
55
90
124
225
226
226
230
229
221
134
198
255
255
255
255
255
255
255
255
255
128
126
150
150
150
150
150
150
150
150
150
150
149
149
149
149
149
149
149
149
149
149
149
149
149
149
149
149
150
150
150
150
150
150
150
150
149
149
152
147
149
151
185
189
189
189
189
189
189
189
189
189
189
189
189
189
189
189
189
189
190
190
190
190
190
190
190
190
190
190
190
190
190
190
190
190
187
187
190
182
167
57
92
126
225
226
224
229
227
220
132
197
255
255
255
255
255
255
255
255
255
128
126
152
151
150
150
150
150
150
150
150
150
150
150
150
150
150
150
150
150
150
150
150
150
150
150
150
150
150
150
150
150
150
150
150
150
149
149
152
147
149
151
185
191
187
187
187
187
187
187
187
187
188
188
188
188
188
188
188
188
188
188
188
188
188
188
188
188
188
188
188
188
188
188
188
188
187
187
189
180
165
55
92
128
225
225
223
228
226
221
131
197
255
255
255
255
255
255
255
255
255
129
126
152
151
150
150
150
150
150
150
150
150
150
150
150
150
150
150
150
150
150
150
150
150
150
150
150
150
150
150
150
150
150
149
150
150
149
149
152
147
149
151
185
192
186
186
186
186
186
186
186
186
186
186
186
186
186
186
186
186
187
187
187
187
187
187
187
187
187
187
187
187
187
187
187
187
186
187
190
178
164
54
94
130
223
224
223
227
225
220
131
197
255
255
255
255
255
255
255
255
255
129
126
151
151
149
150
150
150
150
150
150
150
150
150
150
150
150
150
150
150
150
150
150
150
150
150
150
150
150
150
150
149
150
150
150
150
149
149
151
147
149
151
185
192
187
187
187
187
187
187
187
187
188
188
188
188
188
188
188
188
188
188
188
188
188
188
188
188
188
188
188
188
188
188
188
188
186
186
189
177
163
51
94
131
223
224
222
227
226
219
131
196
255
255
255
255
255
255
255
255
255
134
137
139
141
151
151
151
151
151
151
151
151
150
150
150
150
150
150
150
150
148
148
148
148
147
147
147
146
149
150
150
150
149
149
149
148
143
148
152
150
149
156
170
181
179
181
183
185
186
186
185
184
189
189
188
187
186
185
184
183
185
185
184
184
184
184
183
183
183
183
183
183
183
183
183
183
193
178
199
164
148
52
89
125
218
221
220
223
231
215
140
198
255
255
255
255
255
255
255
255
255
105
108
109
110
108
108
108
108
109
108
108
108
109
109
109
109
109
109
109
109
107
107
107
107
106
106
106
105
106
104
104
105
104
104
104
102
102
103
102
102
99
100
103
108
113
111
109
106
105
105
106
107
110
109
107
106
103
102
100
99
101
101
100
100
99
99
99
98
107
106
106
105
104
103
102
102
97
101
110
78
60
35
94
134
218
222
221
224
229
211
133
193
255
255
255
255
255
255
255
255
255
94
93
95
95
94
94
94
94
94
94
93
93
93
93
93
93
93
93
93
93
92
92
92
91
91
90
90
90
88
88
87
87
87
86
86
87
88
87
87
87
88
85
83
82
76
76
77
78
79
79
79
79
77
77
78
78
79
80
80
81
71
71
72
74
75
77
78
79
75
75
74
74
73
73
72
72
79
85
72
42
7
24
90
127
224
226
222
220
226
209
136
198
255
255
255
255
255
255
255
255
255
98
97
97
97
97
97
96
96
96
97
97
96
96
96
96
96
96
96
96
96
95
95
94
94
94
93
93
93
91
91
91
91
91
90
89
89
91
91
91
91
92
93
90
88
98
96
93
90
88
86
84
84
86
85
84
83
82
80
80
79
82
82
82
82
82
81
81
81
81
80
79
77
74
72
70
69
62
52
43
36
7
26
93
135
220
223
221
221
223
208
136
200
255
255
255
255
255
255
255
255
255
99
97
97
96
98
98
98
98
99
99
98
98
98
98
98
98
98
98
98
98
97
97
96
96
95
95
95
95
97
96
95
95
94
94
94
94
91
92
92
90
89
88
89
91
93
90
86
83
83
85
89
91
79
80
82
84
87
89
91
92
84
82
78
72
67
61
57
55
33
31
28
24
19
15
13
11
16
5
7
18
11
32
101
139
218
223
225
226
227
209
135
199
255
255
255
255
255
255
255
255
255
100
99
98
98
101
101
101
101
101
101
101
101
101
101
101
101
101
101
101
101
100
100
99
99
98
98
98
98
99
99
99
99
98
98
98
97
95
95
95
95
94
95
97
98
86
89
93
96
97
95
91
88
99
94
85
74
61
49
40
36
31
29
24
19
13
8
6
6
11
11
10
9
9
7
7
7
9
5
8
8
12
34
103
129
215
214
207
198
198
188
126
200
255
255
255
255
255
255
255
255
255
106
105
104
104
102
101
101
101
102
101
101
101
101
101
101
101
101
101
101
101
100
100
99
99
99
98
98
98
97
98
98
96
96
96
95
96
96
96
94
95
98
95
90
87
89
90
90
87
79
67
55
48
25
25
23
22
21
19
18
18
11
11
10
8
8
7
7
6
6
6
6
7
7
8
8
8
6
8
9
8
10
35
99
136
190
186
173
162
166
164
116
196
255
255
255
255
255
255
255
255
255
105
105
105
106
107
107
107
107
107
107
107
107
107
107
107
107
107
107
107
107
106
106
106
105
105
104
104
104
101
100
100
100
100
100
99
98
104
98
94
94
94
87
74
61
47
40
30
20
14
13
14
17
17
17
16
15
14
13
12
11
10
10
10
9
9
9
9
9
11
11
10
10
9
9
8
8
5
10
7
11
10
28
86
143
168
173
171
168
177
176
125
203
255
255
255
255
255
255
255
255
255
109
107
104
102
104
105
104
104
105
108
110
112
107
107
106
105
105
105
104
103
105
104
102
101
102
104
107
109
104
106
106
106
102
95
89
84
58
55
50
44
36
30
24
22
22
22
21
21
20
19
19
18
18
17
17
16
15
15
14
14
12
12
11
11
10
9
8
9
8
8
8
7
7
7
7
8
6
7
5
6
9
30
94
145
169
170
173
170
170
169
123
202
255
255
255
255
255
255
255
255
255
110
112
115
115
107
107
108
110
110
110
110
110
116
113
109
106
105
106
109
111
106
108
111
114
115
114
113
112
87
81
69
57
46
38
33
30
26
25
24
23
23
22
21
21
23
22
22
21
20
19
19
20
18
18
17
16
15
15
14
14
12
12
11
11
10
9
8
9
8
8
8
7
7
7
7
7
6
7
5
7
9
31
95
145
168
169
173
170
169
169
123
202
255
255
255
255
255
255
255
255
255
111
110
109
109
122
119
115
112
110
111
112
113
102
105
110
114
116
116
114
113
114
109
101
89
74
59
46
39
41
37
31
26
24
25
28
30
28
28
28
28
28
28
28
28
23
23
22
22
21
20
19
19
18
18
17
17
16
15
14
14
13
12
12
11
10
9
9
8
8
8
7
7
7
7
7
7
6
7
5
7
9
31
95
145
168
169
173
170
169
168
123
201
255
255
255
255
255
255
255
255
255
120
119
117
115
107
110
114
117
118
117
114
112
120
119
118
113
104
93
83
77
50
48
44
38
35
33
33
33
31
33
34
35
34
34
33
33
35
34
33
31
29
28
26
26
24
24
23
22
22
21
20
20
20
18
18
17
16
15
15
14
13
13
12
11
10
10
9
9
8
8
7
7
7
7
7
7
6
8
5
7
10
31
95
146
168
169
173
169
169
168
123
201
255
255
255
255
255
255
255
255
255
116
116
115
114
121
119
115
114
114
116
119
121
101
93
81
68
56
48
42
41
48
45
40
35
32
31
31
31
37
38
40
40
39
34
27
25
29
29
28
28
27
26
26
26
25
25
24
23
22
22
21
21
19
20
18
17
17
16
15
15
13
13
13
12
11
10
10
9
8
8
7
7
7
7
7
7
6
8
5
8
10
32
96
146
167
168
172
169
168
168
122
200
255
255
255
255
255
255
255
255
255
114
116
119
119
108
115
123
123
112
90
67
51
43
40
37
33
33
34
36
38
34
36
39
42
44
44
43
42
32
33
33
34
35
35
36
36
33
33
32
32
31
31
31
31
26
25
25
24
23
22
22
21
19
19
19
18
17
16
16
15
14
13
13
12
11
12
10
10
9
8
7
7
7
7
7
7
6
8
5
8
10
32
96
147
167
168
172
169
168
167
122
200
255
255
255
255
255
255
255
255
255
124
122
120
118
107
92
69
47
35
33
36
40
36
37
41
44
44
43
41
39
38
38
39
39
38
36
34
33
41
40
38
35
35
35
36
37
35
35
34
32
30
29
28
27
26
26
26
25
24
23
22
22
20
19
19
18
17
16
16
16
14
14
13
12
12
12
10
10
9
8
7
7
6
7
7
7
6
9
5
8
11
32
96
147
167
168
171
168
168
167
122
200
255
255
255
255
255
255
255
255
255
110
90
70
55
40
41
41
42
42
41
40
40
40
40
41
41
41
41
41
41
42
41
39
39
39
39
41
41
38
38
38
38
37
37
36
36
33
33
32
32
31
31
30
30
27
26
27
26
25
24
23
22
20
20
19
18
17
17
16
16
14
14
13
13
12
12
11
10
9
9
7
7
6
7
7
7
6
9
5
9
11
32
97
147
167
167
171
168
167
167
121
200
255
255
255
255
255
255
255
255
255
46
40
41
43
43
43
43
43
44
43
43
43
42
42
42
42
42
42
42
42
40
40
40
41
41
41
42
42
40
40
40
40
40
40
40
40
40
39
38
36
35
33
33
32
31
31
29
27
26
24
23
22
22
22
21
20
19
17
17
16
14
14
14
13
12
11
12
10
9
9
8
7
6
6
6
7
6
8
5
7
6
28
98
153
166
167
171
168
167
167
121
199
255
255
255
255
255
255
255
255
255
37
39
42
45
43
43
44
43
43
44
44
44
43
43
43
42
42
42
42
42
42
42
41
42
42
43
43
43
41
41
41
41
41
41
41
41
41
40
39
38
37
35
34
34
32
31
30
29
27
25
24
22
23
22
21
20
19
18
17
16
15
14
14
13
12
11
12
11
9
10
9
7
6
6
6
6
6
8
5
7
6
28
98
154
166
167
171
168
167
166
121
199
255
255
255
255
255
255
255
255
255
47
49
50
51
44
45
44
44
44
44
45
45
44
44
44
44
44
44
44
44
44
43
43
44
44
45
45
45
44
44
44
44
44
44
44
44
43
43
41
40
39
38
37
37
34
33
31
30
28
26
25
24
23
23
22
21
19
18
17
17
15
15
14
13
13
12
11
12
9
9
9
8
7
6
6
6
6
8
5
7
6
29
98
154
166
167
171
168
167
166
121
199
255
255
255
255
255
255
255
255
255
48
46
45
42
45
45
45
45
45
46
45
45
45
45
45
45
45
45
45
45
46
46
45
45
46
47
47
47
49
48
48
48
48
48
48
48
46
46
44
43
42
42
41
40
36
35
33
32
30
28
26
26
24
24
23
21
20
19
18
18
15
15
14
14
13
13
11
12
10
9
10
8
7
6
6
6
6
9
6
8
7
29
98
154
166
166
170
167
166
166
120
199
255
255
255
255
255
255
255
255
255
43
43
42
42
47
47
47
47
47
47
47
47
46
46
46
46
46
46
46
46
48
48
48
48
49
49
49
50
51
51
51
51
51
51
52
51
50
49
48
47
46
44
44
43
38
37
35
33
31
30
28
27
25
25
23
22
21
20
19
19
16
15
15
14
13
13
12
13
10
10
10
8
8
7
6
6
6
9
6
8
7
29
99
155
165
166
170
167
166
165
120
198
255
255
255
255
255
255
255
255
255
46
47
50
51
48
48
48
48
48
48
48
48
47
47
48
48
48
47
47
48
51
50
51
51
51
52
52
52
55
55
55
55
55
55
55
55
53
52
51
50
48
47
46
46
40
39
37
35
33
31
30
29
26
25
24
23
22
21
20
19
16
16
15
14
14
13
12
12
10
10
10
9
8
7
7
6
6
10
7
8
8
30
99
155
165
166
170
166
166
165
120
198
255
255
255
255
255
255
255
255
255
48
48
48
49
49
49
49
49
49
49
49
49
48
48
48
48
48
48
49
49
52
52
53
53
54
54
54
54
57
57
57
57
57
57
57
57
55
54
53
52
51
50
49
48
41
40
39
37
35
33
31
31
26
26
25
24
22
21
20
20
16
16
15
15
14
13
12
12
11
10
10
9
8
7
7
7
6
10
7
9
8
30
100
155
164
165
169
166
165
165
119
198
255
255
255
255
255
255
255
255
255
50
50
50
49
49
49
49
49
49
49
49
49
49
49
49
49
49
49
49
49
53
54
54
54
55
55
55
55
59
59
59
59
59
59
59
59
56
56
54
53
52
51
50
50
42
41
40
38
36
34
32
31
26
26
25
24
23
22
21
20
16
16
16
15
14
13
13
12
11
11
10
9
8
8
7
7
6
10
7
9
8
30
100
156
164
165
169
166
165
164
119
197
255
255
255
255
255
255
255
255
255
50
50
51
51
50
50
50
51
51
52
52
52
53
53
53
55
54
55
56
57
54
55
57
59
61
64
66
67
69
66
73
67
57
65
75
62
65
66
66
63
59
51
57
56
50
49
46
42
39
35
32
30
29
28
27
25
23
22
20
20
19
18
18
17
16
15
13
13
12
11
11
10
9
8
8
8
7
7
5
7
7
28
100
162
164
163
165
166
167
162
118
201
255
255
255
255
255
255
255
255
255
50
51
51
51
51
51
51
52
52
52
53
53
53
53
54
55
56
57
57
58
59
60
61
63
65
67
69
69
62
72
63
64
84
72
60
86
68
63
67
69
62
51
51
54
51
49
46
43
39
36
33
30
29
28
27
25
23
22
21
21
19
19
19
17
16
15
13
13
12
11
11
11
9
8
8
8
7
7
5
7
7
28
100
162
164
163
165
166
167
162
118
201
255
255
255
255
255
255
255
255
255
51
52
52
52
52
52
53
53
53
54
54
54
52
53
54
56
57
60
61
63
65
67
67
69
70
72
73
74
75
79
88
84
71
70
78
80
89
78
76
68
68
81
67
49
52
51
48
44
41
37
33
32
30
29
28
26
24
22
21
21
19
19
19
18
16
15
14
13
12
11
12
11
9
8
8
8
7
7
5
7
8
29
100
162
164
163
165
166
167
162
117
201
255
255
255
255
255
255
255
255
255
52
53
53
53
54
54
55
55
55
56
56
56
56
56
58
59
62
63
65
66
69
70
71
72
74
76
77
78
84
79
77
71
94
179
242
241
226
229
235
223
226
234
153
74
54
53
50
46
42
39
35
33
31
30
28
26
24
22
22
21
20
19
19
18
16
15
14
13
13
12
12
11
9
9
8
8
7
7
5
7
8
29
100
163
163
162
165
166
166
161
117
200
255
255
255
255
255
255
255
255
255
54
54
54
54
56
56
57
57
57
58
58
58
59
60
61
63
64
66
68
70
71
73
73
75
76
78
80
81
86
87
73
101
188
245
247
247
249
251
252
253
250
245
131
48
56
55
52
48
45
41
37
36
31
31
29
27
25
23
22
22
20
20
20
19
16
15
14
14
13
12
12
12
10
9
8
8
7
8
6
8
8
29
101
163
163
162
164
165
166
161
117
200
255
255
255
255
255
255
255
255
255
55
55
55
56
58
58
58
59
59
60
60
60
63
64
65
66
68
69
72
71
74
75
77
79
81
83
84
84
102
87
107
180
241
251
251
249
250
246
246
244
249
231
102
68
58
57
54
50
46
42
39
37
32
31
30
28
26
24
23
23
20
20
20
19
17
16
15
14
13
12
13
12
10
9
9
9
7
8
6
8
9
30
101
164
162
162
164
165
166
160
116
199
255
255
255
255
255
255
255
255
255
56
56
56
56
59
60
60
60
61
61
61
62
68
68
68
69
71
72
73
74
80
81
82
84
86
88
90
90
91
111
193
248
252
252
251
246
250
251
249
249
252
222
72
70
60
58
55
51
47
43
40
39
33
32
30
29
26
25
23
23
21
20
20
19
17
16
15
15
13
13
13
12
10
10
9
9
7
8
6
9
9
30
101
164
162
161
164
165
165
160
116
199
255
255
255
255
255
255
255
255
255
56
57
57
58
61
61
61
61
63
63
63
63
70
71
71
72
73
75
76
76
85
85
87
89
91
93
94
95
122
210
246
249
247
253
252
250
249
251
246
242
248
214
62
73
61
59
56
52
48
45
42
40
33
32
32
29
27
25
23
23
21
20
21
19
17
16
15
15
13
13
13
12
11
10
9
9
7
9
6
9
9
30
102
164
162
161
163
164
165
160
116
199
255
255
255
255
255
255
255
255
255
58
59
59
61
60
61
63
65
66
68
69
70
67
71
76
79
80
82
85
86
90
86
92
103
97
92
109
128
240
244
251
250
249
252
252
249
250
253
248
246
247
162
75
69
66
64
60
55
49
43
39
37
34
33
33
29
27
24
23
23
21
21
21
19
17
16
15
15
13
13
13
13
11
10
9
9
8
8
5
6
7
31
105
169
162
161
163
164
165
160
116
199
255
255
255
255
255
255
255
255
255
59
61
61
62
62
63
64
66
67
69
70
71
73
78
82
80
79
84
97
108
96
100
98
97
99
109
164
234
247
250
252
248
248
252
252
249
250
254
251
247
250
136
78
73
66
64
61
55
49
44
41
37
34
33
33
29
27
24
23
23
21
21
21
19
17
16
15
15
13
13
13
13
11
10
9
9
8
8
5
6
7
31
105
169
162
161
163
164
165
160
116
199
255
255
255
255
255
255
255
255
255
60
62
63
63
64
65
66
67
69
71
73
73
78
77
78
84
92
98
98
98
103
99
103
102
122
199
245
247
252
252
249
247
250
253
252
249
250
247
252
250
250
104
80
79
67
65
60
55
50
45
41
38
34
33
32
29
27
24
24
23
21
21
21
19
17
16
15
15
13
13
13
13
11
10
9
9
8
8
5
6
8
31
105
169
161
161
163
164
164
159
115
198
255
255
255
255
255
255
255
255
255
62
63
64
65
67
67
69
71
73
74
76
77
79
84
88
86
86
91
100
107
98
100
104
155
233
248
245
254
251
250
248
249
251
254
252
250
251
246
252
251
232
86
83
80
67
65
61
56
51
46
41
38
34
33
32
30
27
24
24
23
21
21
21
19
17
16
15
15
13
13
13
13
11
10
9
9
9
9
5
7
8
31
105
170
161
160
162
163
164
159
115
198
255
255
255
255
255
255
255
255
255
64
65
66
67
69
70
72
74
76
78
79
80
80
83
88
92
94
96
97
98
109
125
191
241
248
252
253
246
250
250
251
252
253
254
252
252
253
251
250
249
200
86
85
79
68
65
61
57
51
46
42
39
34
33
32
30
27
24
24
23
21
21
21
19
17
16
15
15
13
13
13
13
11
10
9
9
9
9
6
7
9
32
106
170
160
160
162
163
164
158
114
198
255
255
255
255
255
255
255
255
255
66
67
68
68
73
73
75
77
79
81
82
83
86
86
86
90
94
101
107
112
163
235
245
247
252
254
252
249
252
252
254
254
253
252
253
254
254
254
248
247
161
90
86
81
69
66
62
57
51
46
42
40
34
33
32
30
27
24
24
23
21
21
21
19
17
16
15
15
13
13
13
13
11
10
9
9
9
10
6
8
9
32
106
170
160
159
162
163
163
158
114
197
255
255
255
255
255
255
255
255
255
68
68
69
69
75
76
77
79
81
83
84
85
96
102
104
93
88
113
169
215
247
247
252
254
254
251
253
251
252
253
252
251
251
252
253
252
252
252
250
243
132
90
84
85
69
66
62
58
52
46
42
40
34
33
32
30
27
24
24
23
21
21
21
19
17
16
15
15
13
13
13
13
11
10
9
9
10
10
6
8
9
33
107
171
160
159
161
162
163
158
114
197
255
255
255
255
255
255
255
255
255
68
69
70
70
76
77
78
80
82
84
86
87
106
99
98
121
166
213
243
249
253
253
250
250
253
253
251
254
253
253
251
249
249
251
253
251
250
250
253
240
118
86
83
89
69
66
62
58
52
47
42
40
35
33
32
30
27
24
24
23
21
21
21
19
17
16
15
15
13
13
13
13
11
10
9
9
10
10
6
8
9
33
107
171
160
159
161
162
163
158
114
197
255
255
255
255
255
255
255
255
255
75
75
74
73
76
82
78
85
87
86
90
90
100
136
188
231
251
253
252
252
251
251
254
249
246
248
252
249
253
254
253
253
252
252
251
249
248
253
246
220
109
88
88
73
68
66
62
58
52
47
42
39
34
32
32
29
27
25
24
23
22
22
21
20
18
17
16
16
14
14
13
13
12
12
11
11
7
9
6
8
6
31
109
177
158
157
161
163
162
159
114
197
255
255
255
255
255
255
255
255
255
76
76
75
74
78
79
80
87
92
92
106
187
228
237
249
252
253
251
250
250
253
251
254
250
248
250
253
249
253
254
253
253
252
252
251
249
250
252
246
199
99
84
86
75
68
67
62
58
52
47
42
39
34
32
32
29
27
25
24
23
22
22
21
20
18
17
16
16
14
14
13
13
12
12
11
11
7
9
6
8
6
31
109
177
158
157
161
163
162
159
114
196
255
255
255
255
255
255
255
255
255
76
76
75
76
83
86
86
87
95
95
127
238
246
250
253
252
254
251
250
252
253
252
252
253
251
253
252
248
253
254
253
253
252
252
251
250
251
251
246
169
90
82
84
78
68
67
62
57
51
46
42
39
34
32
32
29
27
25
24
23
22
22
21
20
18
17
16
16
14
14
13
13
12
12
11
11
7
9
6
8
6
31
109
177
158
156
161
162
161
159
114
196
255
255
255
255
255
255
255
255
255
77
77
78
78
79
90
93
83
94
97
165
242
246
247
248
252
253
249
248
249
253
250
251
253
253
253
251
248
253
254
254
253
253
252
251
250
251
250
245
142
88
85
83
81
68
66
61
56
51
46
42
39
34
32
32
29
27
25
24
23
22
22
21
20
18
17
16
16
14
14
13
13
12
12
11
11
7
9
6
8
6
31
109
177
158
156
161
162
161
158
113
196
255
255
255
255
255
255
255
255
255
78
79
80
81
76
85
93
87
93
92
214
246
253
252
249
250
252
249
247
247
253
250
250
252
254
253
251
249
253
254
254
253
253
252
251
251
253
249
240
126
93
91
83
80
68
65
62
56
51
45
41
38
33
32
32
29
27
25
24
23
22
22
21
20
18
17
16
16
14
14
13
13
12
12
11
11
7
9
6
8
6
31
109
177
157
156
160
161
161
158
113
195
255
255
255
255
255
255
255
255
255
81
82
83
83
84
86
95
97
93
92
245
252
253
252
249
250
253
252
251
253
252
250
250
252
254
253
253
252
253
254
254
253
253
253
252
252
254
249
223
111
97
93
81
79
67
65
61
55
50
45
41
38
33
32
32
29
27
25
24
24
22
22
21
20
18
17
16
16
14
14
13
13
12
12
11
11
7
9
6
8
6
31
109
177
157
155
160
161
160
157
113
195
255
255
255
255
255
255
255
255
255
82
83
84
85
92
92
96
100
88
117
250
253
253
253
252
252
253
253
253
252
252
252
252
254
252
252
251
252
253
254
254
253
254
253
252
253
253
248
199
99
97
91
79
77
66
65
60
55
50
45
41
37
33
32
32
29
27
25
24
24
22
22
21
20
18
17
16
16
14
14
13
13
12
12
11
11
7
9
6
8
6
31
109
177
157
155
159
161
160
157
112
195
255
255
255
255
255
255
255
255
255
83
84
85
86
87
95
95
92
85
155
252
251
252
251
248
245
246
248
251
252
254
253
251
249
249
249
249
250
253
254
254
253
253
253
252
253
252
246
182
89
94
87
77
75
67
65
60
55
49
44
40
37
33
32
32
29
27
25
24
24
22
22
21
20
18
17
16
16
14
14
13
13
12
12
11
11
7
9
6
8
6
31
109
177
156
155
159
161
160
157
112
195
255
255
255
255
255
255
255
255
255
86
82
84
87
89
89
91
94
82
191
252
245
244
251
254
252
249
245
248
254
249
246
244
211
205
247
245
250
254
254
254
254
254
253
252
254
251
244
143
100
92
86
79
72
62
60
56
52
47
43
39
37
33
31
31
29
27
26
24
24
21
21
20
19
19
18
17
17
14
14
13
13
12
12
11
11
9
9
7
12
7
28
111
189
159
156
158
158
157
156
113
197
255
255
255
255
255
255
255
255
255
86
82
84
87
83
93
95
102
90
210
252
252
250
251
253
251
248
250
254
248
241
225
178
141
192
247
248
249
254
254
254
254
254
253
253
254
249
241
114
102
89
87
79
67
61
59
56
51
47
43
39
36
33
31
31
29
27
25
24
24
21
21
20
19
19
18
17
17
14
14
13
13
12
12
11
11
9
9
7
12
7
28
111
189
158
156
158
158
157
156
113
197
255
255
255
255
255
255
255
255
255
85
84
84
86
83
92
86
91
105
239
249
253
248
247
248
251
253
252
246
237
176
147
131
126
222
249
253
249
254
254
254
254
253
253
253
253
249
230
91
106
83
84
78
66
61
59
55
52
47
41
38
36
33
31
31
28
27
25
24
24
21
21
20
19
19
18
17
17
14
14
13
13
12
12
11
11
9
9
7
12
7
28
111
189
158
155
158
158
157
155
113
196
255
255
255
255
255
255
255
255
255
83
85
84
86
78
93
94
87
115
236
244
250
248
247
246
245
232
197
153
123
128
125
132
136
235
248
252
248
254
254
254
254
254
253
254
253
246
200
92
105
82
81
73
72
60
58
55
51
45
41
37
35
32
31
30
28
26
25
24
24
21
21
20
19
19
18
17
17
14
14
13
13
12
12
11
11
9
9
7
12
7
28
111
189
158
155
157
157
156
155
112
196
255
255
255
255
255
255
255
255
255
83
87
84
86
85
86
89
87
157
238
242
241
244
238
200
163
137
126
124
125
130
132
132
146
239
251
251
243
254
254
254
254
254
253
254
252
246
160
103
96
86
83
71
77
59
57
54
49
45
41
37
34
31
30
30
27
26
24
24
23
21
21
20
19
19
18
17
17
14
14
13
13
12
12
11
11
9
9
7
12
7
28
111
189
157
154
157
157
156
155
112
196
255
255
255
255
255
255
255
255
255
84
89
84
85
92
81
82
82
152
211
188
165
121
118
112
106
103
106
114
121
124
129
124
167
242
252
252
243
254
254
254
254
254
253
254
252
246
127
105
87
91
87
71
71
58
57
53
48
43
40
36
33
31
30
30
27
26
24
24
23
21
21
20
19
19
18
17
17
14
14
13
13
12
12
11
11
9
9
7
12
7
28
111
189
157
154
156
156
156
154
111
195
255
255
255
255
255
255
255
255
255
84
90
85
85
78
92
95
85
85
94
84
95
95
98
102
105
107
110
115
120
132
134
124
184
240
244
254
253
254
254
254
254
253
253
254
251
238
109
99
88
90
81
73
65
58
56
53
48
43
39
36
33
31
30
29
27
26
24
23
23
21
21
20
19
19
18
17
17
14
14
13
13
12
12
11
11
9
9
7
12
7
28
111
189
157
154
156
156
155
154
111
195
255
255
255
255
255
255
255
255
255
84
91
84
85
82
84
70
82
80
94
85
98
89
93
101
106
109
110
111
116
121
125
121
211
244
248
253
254
254
254
254
254
254
253
254
251
219
106
94
94
85
71
74
63
58
56
53
48
43
39
35
33
31
29
29
27
26
24
23
23
21
21
20
19
19
18
17
17
14
14
13
13
12
12
11
11
9
9
7
12
7
28
111
189
157
154
156
156
155
154
111
195
255
255
255
255
255
255
255
255
255
84
83
83
79
81
81
81
82
83
84
84
85
88
90
95
99
103
106
109
112
117
117
136
231
253
250
251
253
245
252
252
251
248
253
244
250
172
101
92
88
80
80
67
68
54
52
49
46
42
38
35
33
29
28
27
26
25
24
24
23
20
20
20
19
18
18
17
16
14
14
13
13
12
11
10
10
10
8
8
6
9
25
118
196
156
154
155
155
156
153
111
196
255
255
255
255
255
255
255
255
255
84
82
82
78
80
80
80
81
82
83
84
84
87
89
93
99
102
105
108
112
115
115
139
241
253
251
252
253
247
253
252
251
248
253
246
249
158
99
91
87
78
80
67
65
54
52
49
45
41
37
34
33
29
28
27
26
25
24
24
23
20
20
20
19
18
17
17
16
14
14
13
13
12
11
10
10
10
8
8
6
9
25
118
196
156
154
155
155
156
152
111
195
255
255
255
255
255
255
255
255
255
82
81
81
77
78
78
79
80
80
82
82
82
86
88
92
97
101
104
107
111
112
112
152
246
251
251
252
253
251
253
253
252
249
253
249
248
137
97
91
84
75
78
67
62
53
52
49
45
41
37
34
32
28
28
27
26
25
24
24
23
20
20
20
18
18
17
17
16
14
14
13
12
12
11
10
10
10
8
8
6
9
25
118
196
156
154
154
154
155
152
110
195
255
255
255
255
255
255
255
255
255
81
80
79
76
76
76
76
78
79
80
80
81
84
86
90
95
99
102
106
109
109
110
175
247
253
251
253
253
252
253
253
252
250
253
252
239
114
94
92
81
73
76
67
58
52
51
48
44
40
37
33
32
28
27
27
25
24
23
22
23
20
20
20
18
18
17
17
16
14
13
13
12
12
10
10
10
10
8
8
6
9
25
118
196
156
154
154
154
155
152
110
195
255
255
255
255
255
255
255
255
255
79
78
78
74
74
74
75
76
77
77
78
79
82
84
89
93
97
101
104
106
109
113
206
248
254
251
254
252
253
253
253
253
251
253
253
215
98
92
90
79
72
73
66
56
51
50
47
43
39
35
33
31
28
27
26
25
24
23
22
22
20
20
19
18
18
17
16
16
14
13
13
12
12
10
10
10
10
8
8
6
9
25
118
196
155
153
154
154
155
151
110
194
255
255
255
255
255
255
255
255
255
78
77
76
72
72
72
73
73
74
75
76
77
80
83
86
91
96
99
103
104
108
123
231
248
254
249
254
251
252
252
253
254
252
253
250
183
94
92
87
77
72
71
65
56
51
49
46
42
39
35
32
30
27
27
26
25
23
22
22
22
20
20
19
18
18
17
16
16
14
13
12
12
11
10
10
9
10
8
8
6
9
25
118
196
155
153
153
153
154
151
109
194
255
255
255
255
255
255
255
255
255
76
75
75
71
70
70
71
72
73
73
74
74
79
81
84
89
94
98
102
102
107
139
240
248
254
252
253
250
251
253
253
254
253
252
246
153
94
96
83
76
74
68
63
57
50
49
46
42
39
35
32
29
27
26
26
24
23
22
22
22
20
20
19
19
18
17
16
16
13
13
12
13
11
10
9
9
10
8
8
6
9
25
118
196
154
153
153
153
154
151
109
194
255
255
255
255
255
255
255
255
255
76
75
74
70
68
68
70
71
72
72
73
73
78
79
83
87
92
98
101
101
107
151
244
250
250
253
248
251
251
253
253
252
252
250
243
135
96
97
81
75
75
68
61
57
50
48
45
41
38
34
31
29
27
26
25
24
24
23
22
21
20
20
20
19
18
17
16
16
13
13
12
13
11
10
9
9
10
8
8
6
9
25
118
196
154
152
153
153
154
151
109
194
255
255
255
255
255
255
255
255
255
72
70
69
68
65
65
66
68
70
70
71
71
75
77
80
85
91
97
101
101
101
198
246
251
254
254
249
253
252
253
253
252
253
249
222
110
93
87
79
74
71
66
59
55
47
45
43
41
37
33
31
30
27
26
25
25
24
23
22
21
20
19
19
18
16
15
15
15
13
13
13
12
11
10
9
10
8
6
7
6
10
28
122
200
153
151
152
152
154
151
109
194
255
255
255
255
255
255
255
255
255
70
69
68
67
64
65
66
66
68
69
70
71
76
77
80
85
91
97
100
101
100
214
249
252
253
254
252
253
250
253
253
250
252
247
215
97
93
86
79
74
70
65
58
55
46
45
42
39
37
33
31
29
26
26
26
25
24
22
22
21
20
19
19
17
16
15
15
14
13
13
13
11
10
10
10
10
8
6
7
6
10
28
122
200
153
151
152
152
154
151
109
194
255
255
255
255
255
255
255
255
255
68
67
66
65
63
63
64
66
66
68
68
70
76
76
79
84
90
97
100
101
107
235
251
251
249
253
253
253
249
252
249
245
252
245
196
85
91
85
77
72
69
64
57
54
45
44
42
39
36
33
30
29
26
26
26
25
22
21
20
20
19
19
17
17
16
15
14
14
13
13
13
11
10
10
10
10
8
6
7
6
10
28
122
200
153
151
152
152
153
150
109
194
255
255
255
255
255
255
255
255
255
66
64
63
62
62
62
63
64
66
66
67
68
76
76
79
84
89
96
100
101
130
246
251
252
250
253
253
252
250
251
251
246
250
245
165
85
90
84
76
71
68
63
55
54
45
43
41
39
35
33
29
28
26
25
25
23
22
21
20
19
19
18
17
16
15
15
14
14
12
13
11
11
11
10
9
8
8
6
7
6
10
28
122
200
152
150
151
152
153
150
109
194
255
255
255
255
255
255
255
255
255
63
62
60
60
60
61
62
63
64
66
66
66
76
75
79
84
89
96
99
100
163
249
245
252
252
252
252
251
250
250
253
248
246
244
128
92
88
82
74
69
66
61
53
53
44
43
41
37
35
32
29
27
25
25
25
23
22
20
20
19
17
17
17
16
15
14
14
13
13
13
11
10
10
10
8
8
8
6
7
6
10
28
122
200
152
150
151
151
153
150
108
193
255
255
255
255
255
255
255
255
255
61
60
58
58
59
60
60
62
63
64
66
66
76
74
78
83
89
96
99
99
197
250
246
252
252
252
252
249
250
250
253
247
244
242
100
98
87
80
73
68
65
60
52
52
43
42
40
37
34
31
29
26
25
24
24
22
21
20
20
19
17
17
16
15
15
14
13
13
12
12
11
10
10
8
8
7
8
6
7
6
10
28
122
200
151
150
150
151
152
149
108
193
255
255
255
255
255
255
255
255
255
59
58
56
56
58
59
60
61
62
63
64
64
76
74
78
83
88
95
99
100
221
252
251
250
252
251
252
246
250
251
253
247
247
212
92
100
86
79
72
67
63
58
51
51
43
41
40
37
33
30
28
26
25
24
23
22
21
20
19
19
17
17
16
15
14
14
13
13
12
11
10
10
10
8
7
7
8
6
7
6
10
28
122
200
151
149
150
150
152
149
108
192
255
255
255
255
255
255
255
255
255
58
56
56
55
58
58
59
60
62
63
64
64
76
74
78
83
88
95
99
99
232
252
251
248
249
251
252
245
249
251
250
244
249
183
92
99
85
79
71
67
63
58
51
51
43
41
39
36
33
30
28
25
24
24
23
22
21
20
19
19
17
16
16
15
14
13
13
13
12
11
10
9
10
8
7
7
8
6
7
6
10
28
122
200
151
149
150
150
152
149
107
192
255
255
255
255
255
255
255
255
255
55
55
55
55
53
55
56
59
62
64
66
66
72
75
78
87
87
94
93
146
251
251
251
254
251
251
254
252
252
253
254
250
244
137
92
88
82
77
71
66
59
54
52
52
39
38
36
34
32
29
27
26
24
25
23
22
21
19
19
18
16
16
16
15
14
13
13
12
11
11
10
9
8
8
7
7
6
6
7
6
13
25
123
213
149
152
149
149
153
150
104
193
255
255
255
255
255
255
255
255
255
55
54
54
54
53
55
56
59
61
64
65
66
71
75
79
87
87
94
90
160
251
251
251
254
251
251
254
252
252
252
254
248
241
121
92
86
81
75
70
65
59
53
50
52
38
37
36
33
32
28
27
26
24
25
23
22
20
19
18
18
16
16
15
15
14
13
12
12
11
10
10
9
8
7
7
7
6
6
7
6
13
25
123
213
149
151
149
149
153
150
103
192
255
255
255
255
255
255
255
255
255
53
53
53
52
52
54
56
58
61
63
65
66
70
75
79
87
86
95
88
187
251
252
251
254
251
251
254
252
252
249
253
246
229
101
92
84
80
74
69
63
57
51
50
50
38
37
35
34
31
28
26
25
24
24
22
21
20
19
18
18
16
16
15
14
14
13
12
12
10
10
10
9
8
7
7
6
6
6
7
6
13
25
123
213
149
151
149
148
152
150
103
192
255
255
255
255
255
255
255
255
255
51
51
51
50
52
53
55
57
60
62
64
65
68
74
79
86
85
96
94
214
252
252
251
254
252
251
254
252
252
253
248
248
202
91
90
84
77
73
67
61
55
49
48
49
37
36
34
33
29
27
25
24
23
24
22
21
20
19
18
17
16
15
15
14
13
13
12
13
10
10
10
8
8
7
6
6
6
6
7
6
13
25
123
213
149
151
148
148
152
149
103
192
255
255
255
255
255
255
255
255
255
50
50
50
49
51
53
54
57
59
61
63
63
67
74
78
84
85
94
110
236
252
252
252
255
252
252
254
253
252
253
246
247
169
91
86
85
75
70
65
59
53
47
46
46
36
35
33
31
29
26
25
24
24
23
22
21
19
18
17
17
15
15
14
14
13
13
11
12
10
9
10
8
7
6
6
6
6
6
7
6
13
25
123
213
148
150
148
148
152
149
102
191
255
255
255
255
255
255
255
255
255
48
48
48
48
50
52
54
56
58
61
62
63
67
74
76
81
84
90
134
244
252
252
252
255
252
252
254
253
252
254
246
246
136
93
82
82
73
69
63
57
51
45
44
43
35
34
33
30
28
26
24
23
24
22
21
20
19
18
17
16
15
15
14
13
13
12
11
12
9
9
9
8
7
6
6
6
6
6
7
6
13
25
123
213
148
150
148
147
151
149
102
191
255
255
255
255
255
255
255
255
255
46
46
46
46
50
50
53
54
57
59
61
62
67
74
75
78
86
85
158
246
253
252
253
255
253
252
254
254
252
250
250
243
113
92
79
76
71
66
62
56
50
44
42
41
35
34
32
30
27
26
24
22
22
22
21
20
19
17
17
16
15
14
14
13
12
11
12
11
9
10
9
7
6
6
6
6
6
6
7
6
13
25
123
213
147
150
147
147
151
148
102
191
255
255
255
255
255
255
255
255
255
45
45
45
45
49
50
52
54
56
59
61
61
67
74
74
75
87
83
174
248
254
253
253
254
253
253
253
254
253
242
249
232
103
88
76
70
69
65
61
55
50
44
41
39
34
33
32
29
27
25
23
22
22
22
21
20
18
17
16
16
14
14
14
13
12
11
12
10
9
9
8
7
6
6
6
7
6
6
7
6
13
25
123
213
147
150
147
147
151
148
102
191
255
255
255
255
255
255
255
255
255
44
44
44
45
47
48
51
52
55
57
59
60
61
76
71
78
83
82
234
249
254
253
253
253
254
254
253
253
250
254
249
192
80
87
73
83
63
60
56
52
49
44
40
39
31
30
30
29
26
24
23
23
20
20
19
18
17
17
16
16
14
14
13
13
12
12
11
10
9
9
7
7
6
7
7
7
7
7
6
4
12
27
126
219
146
150
149
146
146
144
103
197
255
255
255
255
255
255
255
255
255
43
44
44
44
47
48
49
52
54
56
58
59
62
73
73
74
81
94
240
248
254
253
253
253
254
254
253
252
252
251
248
169
76
84
71
74
61
59
56
51
47
43
39
38
31
31
30
27
26
24
23
22
20
19
19
18
17
16
16
16
14
14
13
12
12
12
10
10
9
8
7
7
6
7
7
7
7
7
6
4
12
27
126
219
145
150
149
146
146
144
102
197
255
255
255
255
255
255
255
255
255
42
43
43
44
45
46
49
50
53
55
57
58
63
69
74
72
77
119
248
247
254
254
254
253
253
254
253
251
252
249
245
133
70
78
69
65
60
57
54
50
45
41
38
36
31
30
29
27
25
23
22
22
19
19
19
18
17
16
16
15
14
13
13
12
11
12
10
10
9
8
7
7
7
7
7
7
7
7
6
4
12
27
126
219
145
150
148
145
146
144
102
196
255
255
255
255
255
255
255
255
255
41
42
42
42
45
45
47
49
51
54
55
56
62
67
70
73
70
157
251
249
253
253
253
253
252
253
253
250
252
250
243
103
66
71
68
62
56
55
52
48
43
39
36
35
30
30
27
26
24
23
22
21
19
20
18
17
17
16
15
15
13
13
13
12
11
10
10
9
8
8
7
7
7
7
7
7
7
7
6
4
12
27
126
219
145
149
148
145
146
143
102
196
255
255
255
255
255
255
255
255
255
41
41
42
41
42
44
45
48
50
52
54
55
58
67
65
77
69
197
252
250
252
254
253
252
251
253
252
250
252
252
227
83
67
67
67
62
54
52
49
46
41
37
33
31
28
28
27
25
23
22
21
20
19
19
18
17
16
15
15
14
13
13
12
11
10
10
9
9
8
8
7
7
7
7
7
7
7
7
6
4
12
27
126
219
144
149
148
145
145
143
101
196
255
255
255
255
255
255
255
255
255
39
39
40
41
41
43
43
47
49
51
52
53
53
64
63
77
78
229
250
251
252
252
252
251
250
252
252
249
252
252
196
70
69
64
63
61
52
50
47
44
41
35
32
29
28
27
26
24
23
22
20
20
18
19
17
17
16
15
14
14
13
12
12
11
10
9
9
8
8
8
7
7
7
7
7
7
7
7
6
4
12
27
126
219
144
149
147
144
145
142
101
195
255
255
255
255
255
255
255
255
255
38
38
39
39
40
41
43
46
48
50
52
53
50
60
65
71
96
246
249
251
251
252
252
251
250
252
252
249
249
251
158
64
71
63
59
56
51
48
46
43
39
34
29
27
27
26
25
24
22
22
20
20
18
19
17
16
15
15
14
14
12
12
11
11
10
9
8
9
8
8
8
7
7
7
7
7
7
7
6
4
12
27
126
219
144
148
147
144
144
142
101
195
255
255
255
255
255
255
255
255
255
37
38
38
38
40
40
43
45
47
50
52
52
49
55
68
66
111
248
249
251
251
252
252
251
250
251
252
248
247
250
132
58
72
63
55
52
50
47
45
43
38
33
28
26
27
26
25
23
22
20
20
19
19
17
17
16
15
15
14
14
12
12
11
11
10
9
8
9
8
8
8
7
7
7
7
8
7
7
6
4
12
27
126
219
144
148
147
144
144
142
100
195
255
255
255
255
255
255
255
255
255
37
37
38
38
39
40
41
42
43
44
45
45
49
52
59
69
79
88
95
99
104
105
104
104
104
105
105
105
98
89
75
62
53
50
51
53
44
44
40
36
32
29
26
24
23
23
22
21
20
18
18
17
16
16
14
14
13
12
12
11
10
10
9
9
9
8
8
8
6
6
6
6
6
6
6
6
10
7
11
4
8
43
146
213
142
147
143
142
145
144
95
219
255
255
255
255
255
255
255
255
255
36
37
37
37
39
39
40
41
42
43
44
45
48
48
50
53
57
60
63
64
66
66
67
66
66
66
67
67
67
64
59
54
52
51
52
53
43
43
39
35
32
28
25
24
23
22
21
20
20
18
17
18
16
15
14
14
13
12
11
11
10
10
9
9
8
8
8
8
6
6
6
6
6
6
6
6
9
9
6
6
12
51
159
200
141
148
144
143
147
137
98
225
255
255
255
255
255
255
255
255
255
36
36
36
36
37
38
39
40
41
42
43
44
52
53
54
55
57
59
61
61
61
61
61
62
61
61
61
62
52
53
53
52
50
48
44
42
40
40
38
35
30
27
25
24
22
22
21
20
18
18
16
16
16
15
14
13
12
12
11
11
9
9
9
9
8
8
7
7
6
6
6
6
6
6
6
6
7
12
5
10
18
60
183
182
139
149
144
144
149
127
107
236
255
255
255
255
255
255
255
255
255
34
35
35
35
36
36
37
38
40
41
42
42
47
48
49
53
57
59
61
63
62
62
62
62
62
62
63
63
53
53
54
54
51
46
41
37
37
36
35
33
29
26
24
23
21
21
20
19
18
17
16
16
15
14
14
13
12
11
12
11
9
9
9
8
8
7
7
7
6
6
6
6
6
6
6
6
7
14
6
7
27
69
208
168
138
149
144
145
150
117
123
246
255
255
255
255
255
255
255
255
255
33
34
34
35
35
35
36
37
38
39
40
40
43
44
45
46
48
48
50
50
51
52
52
52
52
52
53
53
50
50
50
49
47
44
40
38
35
33
31
29
27
25
23
23
21
20
19
18
17
16
16
15
14
14
13
12
12
12
11
11
9
8
8
8
7
7
7
6
6
6
6
6
6
6
6
6
7
11
11
4
35
87
221
160
138
147
145
146
148
108
144
251
255
255
255
255
255
255
255
255
255
32
32
33
34
34
34
34
35
36
38
38
39
44
44
45
46
46
47
48
48
51
51
51
51
51
51
51
51
46
46
44
42
41
38
36
35
31
31
29
27
25
24
23
22
20
19
18
17
16
16
15
14
14
13
13
13
12
11
10
10
8
8
8
7
7
7
6
6
6
6
6
6
6
6
6
6
7
7
13
5
44
120
218
153
139
144
146
147
143
102
170
252
255
255
255
255
255
255
255
255
255
31
32
32
32
32
33
34
34
35
36
37
38
39
39
40
41
42
44
45
45
48
48
48
48
48
48
48
48
44
43
42
40
37
34
31
29
29
28
27
25
24
23
22
22
19
19
18
18
16
15
14
13
13
13
14
13
11
10
10
9
8
8
7
7
7
6
6
6
6
6
6
6
6
6
6
6
7
5
7
14
47
164
203
144
141
141
147
147
137
101
192
250
255
255
255
255
255
255
255
255
255
