P2
11
11
255
255
243
168
142
142
150
231
255
252
255
239
255
243
168
142
142
150
231
255
252
255
239
255
243
168
142
142
150
231
255
252
255
239
255
243
168
142
142
150
231
255
252
255
239
255
243
168
142
142
150
231
255
252
255
239
255
243
168
142
142
150
231
255
252
255
239
255
243
168
142
142
150
231
255
252
255
239
255
243
168
142
142
150
231
255
252
255
239
255
243
168
142
142
150
231
255
252
255
239
255
243
168
142
142
150
231
255
252
255
239
255
243
168
142
142
150
231
255
252
255
239
