P2
126
101
255
120
120
113
107
110
116
122
124
124
119
116
118
120
121
120
124
126
121
118
117
114
111
112
116
116
120
116
117
119
118
119
86
53
38
35
35
37
40
44
49
58
65
66
66
68
71
78
78
82
81
96
115
117
117
121
125
126
120
121
128
128
126
125
128
125
120
116
119
115
113
118
125
120
174
191
177
205
222
231
244
237
236
233
217
206
206
243
242
161
158
212
138
130
117
81
66
63
53
47
42
44
39
42
45
40
39
45
44
50
67
56
53
49
47
41
38
35
28
28
28
28
25
24
23
22
23
119
120
114
108
109
114
122
125
125
121
118
118
120
121
120
124
125
121
117
116
114
110
112
113
118
116
123
118
118
116
116
121
121
107
82
59
50
48
47
51
58
67
72
73
78
84
85
97
105
118
121
118
121
119
122
126
123
127
125
120
127
127
123
130
124
121
121
117
116
120
117
130
214
216
215
199
177
192
228
227
236
208
219
224
194
182
247
207
147
134
173
143
93
90
117
58
60
55
52
48
45
44
38
43
43
39
38
42
50
61
64
57
52
50
49
43
38
37
32
32
30
28
27
25
25
25
118
121
115
108
108
113
120
124
126
123
119
118
119
120
120
123
124
121
117
115
112
110
110
112
114
121
120
122
113
119
121
120
117
114
114
116
115
113
102
98
94
91
92
96
102
107
116
115
120
120
121
122
115
110
119
125
124
127
125
121
126
123
126
125
127
121
125
158
189
151
212
228
239
150
160
180
155
183
210
159
200
198
212
220
230
239
236
181
96
134
138
146
93
86
142
68
52
54
57
51
45
43
43
43
39
41
41
39
42
47
65
67
62
55
53
47
41
41
36
34
33
32
29
28
27
26
118
121
116
108
107
112
118
123
126
124
119
117
117
117
120
122
123
120
117
114
112
109
108
114
117
117
121
118
120
118
118
121
123
120
113
110
113
117
119
118
116
115
116
116
114
111
116
115
116
119
120
119
118
114
123
121
125
126
124
123
122
124
126
127
123
136
195
218
240
227
224
191
221
139
136
232
228
232
236
186
165
182
202
233
231
245
209
131
112
137
137
111
90
84
99
70
54
52
54
53
67
77
47
42
46
41
35
37
40
45
46
67
71
61
58
55
49
46
42
41
38
36
34
30
28
26
118
121
114
107
107
109
117
123
126
124
121
117
116
117
118
120
121
119
115
113
111
110
108
111
116
119
122
122
121
119
118
120
121
119
115
112
114
118
119
118
117
116
115
115
113
112
113
114
118
121
121
119
118
120
118
120
124
126
125
123
125
122
126
120
131
210
188
178
201
219
189
210
240
211
193
200
227
239
229
141
168
174
186
225
224
220
204
144
162
150
126
164
86
69
85
76
56
53
46
50
41
45
46
44
42
40
37
39
40
41
42
35
60
73
65
58
59
52
47
45
43
40
35
33
34
32
118
122
114
107
107
109
116
123
126
124
121
118
116
117
117
118
119
118
114
112
110
108
108
111
115
118
121
122
120
119
119
119
121
119
116
113
115
118
119
119
118
117
116
116
114
112
112
113
117
119
120
119
119
119
119
121
122
126
125
127
119
128
139
178
172
191
197
215
165
185
175
211
221
206
193
193
217
234
214
183
193
187
202
171
148
205
143
148
149
129
112
115
121
123
111
135
105
52
49
48
48
46
44
43
43
42
40
40
39
38
35
32
28
45
69
66
55
58
54
52
45
43
45
40
32
32
119
122
114
107
107
110
114
121
125
123
120
118
116
116
116
117
117
116
114
113
110
108
109
112
115
119
121
123
122
120
119
120
121
120
117
114
115
117
119
120
119
118
117
116
114
112
111
113
116
118
119
120
119
118
120
123
122
124
126
124
123
145
200
199
178
171
215
185
190
226
231
195
162
186
181
186
204
219
182
125
193
231
165
124
98
157
142
160
160
174
109
157
157
135
186
231
190
129
57
51
50
39
43
40
42
40
40
40
40
37
34
29
27
24
34
65
68
64
58
55
54
53
47
39
36
36
119
121
114
108
108
110
113
120
124
122
120
118
116
116
115
116
116
115
115
113
111
108
110
112
115
119
122
124
124
122
120
120
120
119
117
115
115
116
119
120
120
118
117
115
113
111
109
113
116
117
117
119
120
119
118
123
122
125
128
125
118
184
170
170
180
211
197
231
212
190
204
121
129
169
171
200
166
134
95
75
79
156
173
142
86
65
122
156
195
182
128
141
182
161
162
164
127
169
77
51
54
48
41
40
40
39
38
38
38
37
35
37
31
30
23
23
45
70
67
62
57
53
49
48
47
38
119
121
115
110
109
109
113
120
124
122
121
119
117
116
115
116
116
115
114
113
110
107
110
112
114
117
121
124
124
123
121
121
120
119
118
116
116
116
119
120
120
119
117
115
113
111
108
113
117
118
117
118
120
120
119
121
122
124
125
125
118
218
205
231
204
217
195
221
218
206
196
160
137
171
207
208
160
136
114
74
63
58
121
138
80
58
122
101
53
98
153
144
144
151
134
108
94
72
77
51
45
44
41
40
39
38
36
36
35
32
31
32
36
29
35
37
27
33
62
65
62
60
59
53
46
46
119
122
118
113
110
107
112
120
124
122
120
120
118
116
115
117
116
115
113
112
109
107
110
111
113
116
120
124
124
123
123
122
121
120
119
117
117
117
119
120
121
119
116
114
113
112
109
113
118
118
116
117
119
121
120
119
122
123
124
126
180
231
227
233
174
149
144
115
105
143
185
230
187
230
240
235
233
165
88
59
54
53
71
84
66
78
113
106
72
75
153
168
148
124
95
77
65
70
72
59
46
43
37
37
38
37
36
36
35
31
36
29
32
31
26
28
41
31
30
51
67
66
62
59
54
47
120
123
119
115
111
108
112
120
123
121
120
120
118
116
115
116
116
114
113
112
110
108
110
111
113
116
121
124
125
124
124
123
121
120
119
118
118
118
119
120
121
119
116
114
113
113
110
113
116
118
116
115
117
120
119
119
123
124
128
133
231
203
190
207
171
136
108
95
91
108
125
149
141
186
244
220
235
234
99
58
53
65
86
100
77
139
142
134
73
110
131
155
165
104
60
79
72
73
42
64
36
43
34
33
34
35
36
37
36
32
32
28
35
31
28
31
29
27
29
24
40
64
69
61
58
57
121
122
118
115
113
111
113
121
124
121
120
120
119
117
115
116
116
114
113
113
112
111
111
111
113
116
120
124
125
125
124
123
121
120
118
117
116
117
117
120
120
118
115
113
112
112
111
112
115
117
116
115
116
119
121
121
120
127
124
131
203
146
141
161
152
182
162
109
77
79
137
113
66
120
102
177
137
140
203
80
89
89
118
108
61
107
122
109
96
113
112
159
141
106
76
78
72
103
109
129
49
38
35
33
34
33
33
34
33
31
31
30
27
30
28
32
31
31
31
37
37
37
52
68
68
60
119
121
120
115
113
111
112
121
127
122
122
118
118
118
116
119
113
112
114
113
114
111
110
111
112
116
120
124
125
124
125
124
122
121
120
118
119
118
123
123
122
119
116
114
113
112
111
111
115
119
118
114
116
121
115
124
119
121
126
137
191
140
109
126
137
151
146
102
103
123
114
98
75
86
104
123
198
159
135
129
104
114
134
68
45
54
92
89
99
163
150
96
87
85
79
84
108
142
88
99
63
39
36
34
37
34
33
33
32
32
30
31
29
30
31
31
31
30
31
27
35
36
27
38
60
67
124
125
120
115
112
113
112
122
127
121
123
122
121
117
117
118
116
119
115
109
111
111
111
112
113
116
121
125
126
125
126
125
121
121
119
117
119
118
120
122
122
119
115
112
112
114
112
113
114
116
116
115
117
120
118
118
125
120
118
153
174
190
156
139
120
150
119
100
92
123
120
100
87
66
121
181
171
170
208
154
156
135
126
62
38
69
93
63
59
97
68
37
40
54
60
86
82
117
114
107
63
47
43
34
33
34
33
35
32
30
31
31
30
30
30
31
30
30
29
27
25
31
34
27
31
50
123
122
120
120
114
115
120
124
127
122
124
123
120
115
117
113
112
114
114
117
122
118
111
111
112
114
119
124
126
126
126
126
121
120
118
117
119
118
119
121
122
120
116
112
112
115
112
114
115
115
116
116
117
118
121
122
124
121
125
139
129
121
137
148
121
125
118
139
126
122
129
91
88
59
75
115
186
212
166
111
178
95
86
59
50
105
123
58
37
31
35
34
48
58
61
70
95
89
157
114
57
44
44
33
32
34
32
30
31
31
30
30
30
30
30
31
30
30
26
32
31
28
33
33
29
30
135
124
121
120
117
116
118
123
126
121
123
123
124
121
118
118
116
115
114
114
115
113
112
111
110
113
118
123
126
126
127
126
121
120
118
116
119
119
120
120
121
120
118
114
113
114
112
114
116
118
117
117
117
117
118
123
125
130
138
130
124
110
144
129
107
113
112
103
111
128
131
85
74
60
98
208
195
83
92
63
173
165
93
66
59
84
130
72
64
41
29
37
42
36
24
17
25
62
93
88
53
40
38
30
33
35
30
31
30
31
30
29
29
29
29
29
29
29
30
28
29
30
34
33
31
30
217
162
129
117
122
120
119
127
130
121
119
121
126
123
119
118
115
115
118
116
114
118
113
112
111
113
118
124
126
127
126
126
121
119
117
116
118
118
119
120
121
121
118
114
113
113
113
113
117
120
119
115
116
119
121
123
167
223
232
202
141
134
116
122
105
116
121
122
103
114
127
76
56
77
144
186
83
123
119
79
107
156
144
72
64
55
50
39
58
32
36
23
19
19
21
26
25
23
56
55
56
41
39
32
32
34
32
33
32
29
30
30
30
30
29
30
30
30
30
27
25
30
35
30
27
36
252
251
240
195
161
137
129
125
126
125
126
124
125
121
115
118
117
113
115
118
115
115
115
113
111
113
118
124
126
126
126
126
122
120
117
115
117
117
117
122
125
123
117
114
113
114
114
113
116
120
118
115
116
121
118
150
240
247
248
246
232
120
135
121
118
127
112
130
103
89
118
115
157
191
168
91
141
161
87
72
53
54
55
102
117
76
52
36
28
22
13
22
18
23
22
20
21
19
47
81
50
38
40
35
33
30
30
33
30
30
29
29
29
28
29
29
30
29
27
28
30
30
29
34
37
33
251
252
252
248
247
241
235
209
183
163
151
139
130
121
117
112
117
116
113
117
117
116
114
112
111
112
117
122
125
125
125
125
122
120
118
115
116
116
117
122
125
122
118
117
115
113
113
113
116
119
118
116
117
120
139
237
204
151
229
252
247
157
147
121
123
141
129
111
98
109
94
158
162
124
131
122
93
89
82
62
48
60
73
107
56
45
39
29
22
18
24
21
17
19
19
21
21
22
45
61
52
39
39
36
33
29
31
31
28
32
29
29
28
27
29
30
29
28
28
24
29
32
27
30
37
33
232
248
251
251
252
250
250
251
252
250
248
244
229
202
178
127
108
116
117
117
117
115
114
112
110
112
117
122
123
122
124
125
122
121
118
115
116
115
118
121
121
119
119
120
116
109
110
113
116
118
118
117
117
117
192
251
155
99
241
253
246
199
142
131
133
153
152
114
111
101
93
121
102
100
104
83
82
46
66
56
57
56
47
49
42
38
28
20
22
20
20
18
22
19
22
21
15
16
20
77
103
34
39
32
27
27
36
34
28
31
29
30
29
28
28
30
30
28
28
31
29
26
30
31
29
32
237
249
236
245
248
245
252
254
249
253
247
249
252
242
243
235
181
146
123
116
113
118
117
109
111
109
115
123
124
121
123
123
122
119
116
116
116
115
116
119
121
121
120
119
117
114
113
112
113
117
118
117
118
142
219
241
132
117
172
254
251
250
206
122
137
157
178
144
128
117
123
102
97
119
121
79
65
58
67
62
60
61
33
35
35
27
20
17
20
23
19
25
18
19
21
27
112
164
124
113
123
40
32
35
61
107
128
83
30
30
29
27
29
27
30
29
26
29
28
29
27
32
32
36
31
30
246
249
252
249
247
249
247
252
252
253
252
253
249
248
234
227
176
173
151
148
142
130
107
110
109
112
120
119
123
121
121
121
123
122
118
114
113
114
116
119
121
121
121
120
117
114
112
117
115
118
117
118
114
187
220
210
168
161
227
238
244
204
229
152
155
167
168
129
131
134
140
114
157
102
94
86
81
71
79
68
69
62
34
29
29
23
67
75
29
25
19
19
20
18
23
26
55
46
124
170
122
117
84
93
108
101
120
90
35
31
32
28
29
30
26
27
29
29
28
27
25
28
27
30
26
24
253
251
249
247
247
252
252
230
246
252
249
248
253
251
243
249
206
200
199
124
155
202
200
148
103
116
114
123
117
126
125
124
121
117
117
117
114
111
115
118
120
121
122
121
118
114
114
116
113
119
122
120
137
193
195
137
137
212
238
188
153
106
157
151
150
162
177
136
133
134
135
136
146
130
83
100
84
64
54
69
60
55
43
98
101
138
124
74
30
26
16
21
22
18
21
17
14
52
81
100
121
123
151
101
92
62
79
113
123
75
32
29
32
29
28
33
23
31
28
28
26
26
25
24
23
21
252
248
232
231
234
239
224
236
249
248
251
253
254
239
249
252
248
250
220
244
151
113
204
244
210
111
120
123
117
123
117
121
121
119
117
113
111
112
115
117
119
120
122
121
118
114
112
111
119
114
119
122
125
207
223
97
183
177
119
90
111
117
114
145
179
215
194
135
148
140
129
140
86
51
72
76
92
75
62
63
66
64
121
139
154
112
49
52
43
16
23
21
18
16
21
21
110
178
123
82
65
80
67
75
56
47
87
135
129
83
28
54
35
29
25
29
31
28
29
29
28
27
25
23
23
23
238
247
250
250
248
241
236
234
245
240
245
228
253
251
248
253
252
249
251
237
224
168
112
171
243
231
171
121
122
120
122
120
120
122
119
112
109
112
114
115
117
118
120
121
118
115
114
110
115
115
116
113
191
196
157
141
98
78
95
88
88
96
116
134
170
146
149
157
159
152
119
91
87
85
82
59
73
77
68
64
65
62
126
151
109
129
46
36
45
21
25
19
21
18
24
21
63
119
93
138
81
48
41
51
72
83
118
124
121
93
83
181
30
28
32
30
28
30
29
30
30
27
26
23
24
24
227
230
240
234
228
240
249
250
241
239
242
240
250
239
226
250
250
251
253
219
247
216
128
121
175
250
247
198
113
121
120
120
121
119
115
114
112
108
112
114
115
117
119
120
118
114
111
105
119
141
128
113
177
208
178
142
86
82
85
84
88
92
103
148
135
168
154
148
161
168
135
90
82
83
79
66
65
70
64
60
54
50
63
80
83
60
40
32
39
21
20
21
17
22
16
19
24
31
63
83
69
51
40
63
105
120
111
87
124
74
105
95
32
27
28
24
30
28
29
28
29
26
26
25
25
24
250
245
247
246
217
209
231
251
245
230
210
236
236
235
250
244
248
244
248
254
249
250
186
130
115
174
234
247
217
141
118
118
123
122
112
111
112
106
111
113
115
117
119
119
117
114
112
110
109
128
129
165
189
113
120
86
82
87
100
106
115
104
153
205
177
153
222
240
206
189
140
99
85
82
98
79
72
63
65
45
35
39
41
53
54
50
38
40
20
20
20
16
19
19
19
18
20
18
72
56
36
34
36
67
85
88
89
90
82
119
126
94
77
38
28
31
29
28
28
28
30
26
27
26
27
25
243
178
242
245
203
231
239
241
235
170
234
242
237
237
238
245
246
247
242
251
238
198
244
178
99
122
161
241
247
236
162
132
116
119
116
111
110
107
109
112
115
117
119
119
117
113
106
106
105
114
128
217
171
79
107
86
78
108
113
103
102
139
218
156
153
210
248
250
224
166
151
76
76
81
81
74
61
46
40
31
39
33
45
41
46
39
47
35
22
18
17
22
18
20
20
23
23
40
124
105
50
46
41
57
75
68
43
46
70
133
109
127
55
31
33
28
26
30
29
28
30
25
29
26
28
25
232
231
184
207
216
199
160
207
237
205
249
194
138
221
223
201
241
248
234
247
248
250
250
199
149
97
114
181
248
248
246
170
117
119
118
110
108
107
108
109
112
116
118
118
116
114
117
161
137
134
135
214
120
86
99
101
107
113
117
110
101
142
237
191
178
204
245
253
240
194
149
104
31
47
50
49
37
31
30
44
37
40
44
45
38
45
38
26
15
20
22
18
18
23
21
19
23
40
76
104
84
40
63
98
54
37
45
39
69
139
167
132
140
125
142
28
32
26
29
28
28
27
25
25
27
27
250
208
218
204
204
179
207
247
187
219
235
220
212
245
232
246
195
204
239
250
217
247
247
212
191
112
100
147
181
223
244
249
156
117
109
115
107
106
106
108
111
113
116
116
115
113
112
103
116
113
165
124
94
117
100
75
84
99
92
95
70
144
119
143
161
178
208
185
241
196
113
83
81
68
55
40
29
29
33
33
36
38
39
37
32
30
22
18
23
18
19
23
21
19
23
27
20
53
87
51
88
70
79
66
91
46
34
32
41
100
166
127
162
131
92
26
27
31
28
30
28
28
26
28
29
28
200
195
238
238
203
246
236
239
220
247
242
218
225
195
157
247
235
212
210
234
237
248
245
248
235
160
84
105
155
210
242
254
236
161
114
110
103
107
105
107
110
112
113
115
114
112
115
135
172
112
138
110
108
101
103
86
78
85
87
81
80
89
111
120
148
134
198
165
189
164
80
92
79
57
49
47
42
34
34
36
36
32
35
26
16
18
20
17
20
22
17
17
22
24
48
44
22
28
64
66
55
71
42
65
70
56
36
27
34
77
147
82
108
125
108
84
22
31
30
29
30
28
27
29
29
29
165
239
240
238
197
227
120
154
204
205
213
214
134
218
211
200
202
229
250
244
223
252
239
249
249
213
95
91
85
153
232
252
248
245
158
111
106
105
104
108
110
111
113
114
114
112
108
103
107
104
127
113
92
108
82
92
89
96
82
82
83
92
120
98
129
136
150
129
106
108
88
65
52
51
55
48
43
29
28
39
25
25
21
19
23
20
19
22
15
19
20
26
21
65
225
226
168
29
31
49
50
65
53
59
81
55
47
58
88
129
126
165
56
84
90
69
29
30
29
30
29
29
29
30
29
29
244
196
117
158
215
213
216
251
243
218
238
239
215
251
232
219
242
239
237
243
175
252
191
229
243
206
158
71
84
131
130
228
240
248
246
163
108
101
103
106
109
110
112
113
113
111
111
103
114
132
122
102
96
108
83
86
90
96
75
83
79
84
88
106
115
108
141
129
110
89
82
63
51
53
53
46
43
29
54
85
28
20
20
17
15
19
17
21
20
20
19
22
19
106
155
102
183
140
54
54
117
95
55
72
125
171
195
246
247
241
251
241
115
36
32
31
24
27
28
28
29
30
30
31
31
31
180
140
195
166
128
179
221
161
168
213
204
162
219
219
230
233
224
246
243
239
214
249
204
236
222
212
151
88
77
82
152
182
211
249
250
239
130
106
103
104
106
109
110
111
111
111
107
106
101
110
161
134
93
102
111
77
71
72
88
83
81
78
84
109
130
112
115
111
103
97
73
51
49
50
44
42
48
83
89
98
30
24
17
19
22
17
20
19
21
21
18
21
24
54
76
50
73
141
122
182
229
228
223
223
234
215
247
221
187
118
173
166
172
55
27
24
26
25
28
29
30
30
30
30
32
30
222
239
228
227
238
188
107
154
204
152
238
146
149
144
202
158
141
233
209
138
231
249
248
248
234
175
174
86
74
83
108
170
193
237
246
247
226
110
107
105
106
108
110
110
110
111
107
102
111
118
204
130
108
115
94
109
84
88
99
83
85
74
98
141
154
118
104
97
99
100
68
49
44
43
44
45
92
104
95
78
22
17
22
19
17
17
18
23
19
20
22
32
30
15
71
49
73
164
196
126
155
206
189
205
191
190
161
106
92
119
66
70
78
47
29
27
28
18
26
27
29
30
30
30
30
31
224
186
126
156
225
205
230
241
188
133
245
238
241
241
237
130
198
249
198
162
246
209
160
197
192
214
202
160
79
72
60
118
149
200
242
245
246
222
112
108
107
110
111
110
110
112
113
106
102
232
191
118
113
124
115
95
102
109
82
93
97
97
132
209
107
107
116
104
100
80
75
78
56
39
46
86
111
101
91
44
18
20
23
21
21
18
21
21
19
21
19
18
23
95
249
133
176
175
114
108
48
81
154
189
152
113
86
75
32
87
120
135
70
31
37
26
51
120
25
26
28
29
29
30
30
29
121
190
221
198
129
163
148
235
183
198
201
138
163
153
184
232
247
191
178
227
228
130
142
215
228
227
219
125
89
68
57
83
110
188
189
241
246
249
184
104
107
106
111
112
106
111
118
156
178
252
150
137
143
132
131
87
96
106
95
92
87
95
188
129
99
103
99
101
85
66
58
87
122
116
93
130
113
82
69
37
21
21
18
16
19
22
19
19
21
21
18
25
22
128
223
148
206
134
121
77
40
109
101
67
55
71
99
97
66
76
87
152
202
59
35
33
67
130
50
24
26
29
26
33
23
29
233
216
179
246
143
190
236
231
222
232
232
181
192
186
126
155
196
211
195
203
202
240
245
229
161
110
159
88
132
55
78
88
101
131
182
233
236
242
247
214
117
106
107
108
112
166
215
239
250
245
122
122
148
134
122
109
108
112
92
93
93
87
112
90
101
91
90
96
85
61
82
164
162
119
157
127
113
65
43
25
19
20
21
20
17
18
20
22
31
21
19
22
55
186
170
113
89
150
88
55
51
49
45
57
85
70
133
127
53
109
93
106
158
77
106
57
97
135
65
91
37
31
31
27
32
27
167
109
221
222
179
243
202
121
186
215
190
230
207
228
203
162
154
227
231
250
186
153
172
211
85
129
184
119
150
70
57
57
78
103
145
165
227
246
239
247
186
106
109
165
239
249
234
244
214
194
202
107
128
129
128
115
97
110
109
88
82
88
110
99
92
84
85
83
93
88
73
95
115
177
134
158
128
59
27
19
17
18
18
19
17
17
18
19
20
22
25
17
130
250
168
195
130
52
40
36
47
49
43
83
33
52
52
45
103
134
121
156
196
151
97
145
125
144
157
208
108
28
35
27
26
29
103
204
207
121
147
154
227
177
121
133
109
145
152
227
228
191
204
223
172
239
238
175
211
213
110
207
156
130
124
50
61
58
66
108
133
203
238
225
245
245
223
112
121
243
248
231
248
248
251
209
165
111
65
112
119
119
101
97
100
98
93
86
93
106
87
85
61
99
92
79
76
68
131
170
127
106
94
77
25
22
19
18
17
18
17
18
21
19
20
23
23
53
211
194
84
111
93
37
49
39
34
37
65
49
30
27
44
34
27
55
119
146
236
235
193
190
176
221
231
192
122
148
80
28
29
37
110
237
140
116
223
233
243
195
220
240
213
239
245
215
232
147
181
231
238
223
173
165
212
173
230
130
164
80
135
120
73
55
73
75
89
145
150
191
228
248
250
161
173
250
177
200
233
213
245
223
184
122
73
71
121
118
119
116
97
96
109
93
86
99
104
84
91
119
81
64
58
64
94
85
98
140
99
70
25
19
19
19
19
19
17
19
15
23
19
22
17
123
219
157
186
68
46
44
40
35
31
42
80
32
27
27
42
33
30
36
116
205
197
163
182
200
167
116
153
185
211
152
56
29
30
42
148
241
166
217
220
175
169
241
235
209
207
182
130
114
184
215
107
142
211
158
133
251
223
204
208
144
181
205
83
82
58
72
67
91
90
129
87
166
191
231
239
226
191
130
132
136
133
148
136
155
212
143
77
99
121
130
127
145
115
126
139
127
128
145
103
111
107
104
95
79
62
66
87
59
56
101
89
75
30
20
18
19
20
20
19
20
23
20
19
26
16
160
92
150
58
49
34
39
40
25
29
35
47
60
36
34
36
34
24
31
53
179
138
121
169
221
166
78
88
58
107
162
174
62
93
24
169
153
221
234
124
114
111
122
131
107
109
108
157
225
202
211
182
91
103
219
225
242
133
151
193
216
197
81
171
102
88
73
47
54
67
74
151
161
206
234
242
241
205
107
89
88
69
75
127
107
97
88
98
106
134
128
133
133
138
125
139
131
144
128
124
145
111
84
93
88
70
79
80
91
78
91
86
61
35
21
18
20
18
19
19
19
19
21
15
30
29
177
120
110
104
56
48
42
29
23
24
31
35
65
63
43
27
28
26
28
46
166
218
201
211
190
135
66
82
78
110
187
190
158
49
29
162
81
116
172
237
236
231
179
212
212
144
212
246
162
96
116
246
202
82
223
225
168
93
205
169
188
210
87
152
118
76
52
52
32
69
122
152
141
171
144
237
239
204
87
73
71
58
51
44
45
51
83
75
114
134
125
126
134
123
134
130
139
138
142
129
115
97
100
117
95
66
71
73
75
84
88
73
61
33
20
20
21
20
21
20
17
20
20
18
34
125
173
145
90
106
112
58
59
39
29
20
27
36
44
46
34
32
26
31
37
54
98
160
184
199
144
139
116
126
123
149
200
188
193
67
43
221
119
77
201
144
131
177
236
184
179
251
234
130
91
101
222
149
97
192
178
85
81
96
99
145
238
226
144
143
39
91
31
57
72
72
93
117
60
89
132
222
220
245
115
85
68
55
45
41
64
63
91
82
112
121
102
121
122
153
124
145
158
118
118
105
121
108
119
99
85
66
69
61
71
78
79
73
61
29
20
29
39
32
23
26
19
21
21
46
71
150
154
128
165
190
103
74
47
39
36
26
26
28
37
34
26
32
27
38
45
48
60
96
169
180
183
181
181
224
207
178
166
130
164
182
56
120
207
216
197
86
117
213
119
108
178
215
195
214
91
159
210
78
78
144
170
162
93
222
221
148
180
171
138
218
100
60
67
46
35
60
41
87
127
176
173
209
210
229
139
82
73
56
48
49
65
76
60
86
123
119
111
119
125
136
149
165
206
154
113
110
111
92
112
104
92
40
57
63
49
53
71
59
30
26
25
40
35
25
19
23
21
20
21
17
42
143
80
165
161
210
175
110
70
45
35
28
22
32
29
29
29
35
38
46
47
54
72
219
215
187
180
208
218
233
166
99
145
158
135
210
86
185
158
142
100
89
226
189
158
229
199
100
108
210
174
113
156
176
67
81
87
205
236
231
163
194
194
122
159
125
119
124
53
62
47
59
38
116
115
161
88
130
230
244
172
83
62
56
41
56
95
109
95
122
132
138
131
150
138
113
160
129
121
157
129
133
139
118
110
105
87
68
63
53
50
57
66
40
33
28
29
39
27
20
22
21
21
22
26
23
24
44
110
143
174
199
126
98
54
46
32
24
33
29
30
33
36
40
36
52
55
53
183
253
219
135
173
142
167
227
104
71
96
73
129
165
80
90
61
82
77
80
188
149
145
178
204
57
91
178
203
80
98
203
214
239
201
125
86
138
97
96
170
131
201
68
55
55
33
36
45
53
68
108
80
120
123
182
215
136
218
77
70
48
48
72
81
119
123
125
122
133
129
124
118
99
142
116
61
119
149
161
150
194
158
107
78
52
55
50
44
56
38
49
32
35
31
32
21
21
25
22
20
21
20
23
22
34
79
187
200
196
200
156
82
73
53
50
43
34
41
39
35
39
38
53
104
214
244
241
237
233
192
96
64
69
63
46
35
40
45
85
38
153
186
187
191
137
94
77
68
133
237
92
78
143
219
186
96
107
171
165
73
59
93
161
77
160
101
58
102
53
71
37
43
43
34
46
40
83
131
140
187
190
207
145
237
138
69
49
36
37
68
89
128
144
190
154
143
134
110
98
84
97
126
109
126
166
137
160
227
213
179
187
90
53
48
47
42
35
39
33
32
30
24
24
20
21
22
19
25
22
29
29
98
159
212
243
227
204
160
143
110
90
72
54
49
60
38
39
98
206
242
249
237
227
195
118
145
84
68
52
34
40
35
37
50
93
85
69
83
65
194
139
201
150
136
196
178
203
195
231
138
210
202
65
82
140
57
43
92
95
88
211
43
38
71
54
81
53
48
41
28
47
51
66
104
166
119
141
130
233
174
169
73
60
41
42
77
108
140
141
171
139
135
101
67
67
80
47
107
85
89
116
113
125
181
233
209
253
222
122
41
40
36
39
36
26
26
28
27
28
20
22
22
26
19
27
27
36
151
229
234
250
250
248
231
219
159
121
133
103
63
45
43
95
231
250
248
250
228
148
88
79
66
46
43
73
39
28
40
37
47
75
124
56
38
137
204
92
136
224
199
122
105
202
224
133
73
129
206
52
56
92
170
119
152
122
169
189
34
87
96
36
59
26
46
34
39
49
43
57
50
123
85
151
154
209
212
188
83
66
40
46
71
134
102
129
92
94
105
68
84
48
104
56
33
48
107
103
139
106
189
181
196
160
208
252
201
76
73
46
34
23
23
28
26
25
24
23
21
21
26
26
31
49
191
205
235
252
249
252
248
147
92
133
178
97
75
51
52
211
236
238
247
193
134
88
86
63
60
62
38
29
33
42
38
46
47
42
62
193
184
194
84
70
81
124
81
72
70
89
117
85
60
171
90
53
96
115
74
123
123
59
95
95
66
104
42
48
76
34
50
33
39
46
35
55
49
87
103
113
202
132
209
140
61
61
58
61
62
97
105
68
70
86
79
47
60
45
36
30
41
62
104
92
97
113
132
129
121
155
209
229
219
98
72
45
31
26
27
36
26
20
24
23
22
27
26
39
38
35
178
208
226
237
250
251
252
164
116
163
110
76
77
84
177
249
204
202
155
138
121
57
44
37
47
48
33
32
42
68
66
131
49
35
30
75
117
148
58
45
112
108
51
39
45
71
84
61
71
134
77
74
131
82
39
56
68
37
44
70
116
78
30
77
109
29
48
31
39
40
32
60
44
66
87
57
104
129
145
142
59
42
44
60
58
60
109
109
68
74
58
60
49
29
29
25
32
61
101
122
135
113
165
154
183
224
226
176
124
144
114
40
31
24
38
30
28
26
23
27
23
23
26
48
89
143
218
209
209
196
222
237
251
194
128
166
110
64
130
232
249
191
121
96
69
46
39
39
32
38
33
36
40
45
57
46
68
226
163
33
76
45
46
85
95
56
52
128
167
131
45
87
88
67
60
82
93
68
88
62
30
81
56
49
86
50
68
38
69
71
33
29
40
27
38
43
64
39
101
61
150
143
73
120
134
110
57
49
40
38
58
76
80
108
81
48
89
115
73
20
30
25
34
43
90
95
94
146
138
151
104
61
131
136
99
117
114
31
32
30
24
25
22
24
27
30
56
149
131
243
252
248
242
235
230
226
213
202
201
214
174
164
118
125
244
237
215
122
88
63
44
40
36
39
37
33
50
31
43
40
37
107
93
143
203
114
222
37
44
77
123
79
46
68
68
162
72
41
93
116
50
62
104
50
71
111
43
67
45
77
52
34
59
48
72
38
31
33
35
38
36
38
46
35
69
64
85
53
119
84
153
107
64
34
34
40
64
72
77
127
104
66
122
112
106
81
65
28
36
44
85
68
76
111
171
123
76
121
116
104
126
133
103
30
28
26
31
24
27
25
25
30
31
176
217
236
205
223
213
204
183
162
150
194
180
175
203
137
92
171
219
216
97
65
50
31
38
36
35
42
54
53
49
44
36
28
32
86
191
213
178
167
201
76
34
44
129
80
32
36
56
150
99
33
96
111
57
42
114
62
55
93
69
73
61
77
47
37
58
44
46
40
39
46
30
38
36
42
42
33
56
48
66
50
88
74
153
113
103
26
33
39
54
54
77
100
115
128
135
116
107
134
76
33
45
47
79
86
82
92
76
142
97
90
106
92
114
94
59
30
30
31
28
31
31
34
27
25
42
168
175
143
140
115
144
152
121
71
124
157
90
91
89
80
169
186
111
98
52
44
47
37
36
32
35
40
54
54
72
87
18
78
146
80
63
205
189
171
200
82
34
64
106
193
190
75
42
67
106
63
99
117
78
36
58
91
56
76
62
45
97
64
33
57
33
46
36
40
35
42
26
31
33
43
49
39
61
75
51
100
81
87
103
111
168
16
38
39
39
39
46
98
92
113
116
97
108
87
85
173
131
59
76
71
80
73
88
76
46
81
85
88
97
66
45
60
41
26
42
45
28
35
30
28
41
134
111
107
93
108
141
151
98
50
53
79
62
61
91
188
215
117
61
77
59
50
41
39
45
42
32
54
64
43
55
147
131
33
95
137
150
111
146
180
162
58
37
78
58
68
132
135
43
65
110
111
64
75
135
55
57
131
135
70
50
41
63
33
44
57
36
38
32
33
44
34
32
39
30
41
43
53
43
99
63
114
75
132
87
119
153
32
35
29
30
31
53
116
105
107
146
106
75
93
110
118
138
88
75
97
93
102
50
59
61
59
54
58
76
160
78
90
102
145
163
168
106
52
28
33
45
123
88
52
59
109
139
82
62
53
47
76
51
52
160
200
115
86
70
51
55
88
55
54
43
37
43
69
183
153
76
121
143
92
143
219
201
163
159
148
174
46
44
63
44
37
49
94
102
56
82
67
38
47
96
135
72
65
80
48
45
54
45
48
56
42
30
42
29
35
37
25
30
34
23
35
38
42
45
62
60
95
69
127
131
90
163
34
38
30
27
61
125
114
135
106
127
87
66
84
141
115
104
54
49
90
105
130
25
33
38
40
44
57
193
244
211
156
175
199
171
146
139
95
51
52
52
108
113
67
41
48
64
56
54
48
41
103
59
90
190
158
145
99
68
74
61
80
93
63
61
52
58
72
135
175
185
206
167
97
136
223
203
171
152
152
149
35
37
50
37
32
36
48
51
33
37
56
36
39
43
46
39
39
49
41
44
70
39
49
52
31
31
41
31
34
34
26
31
36
27
35
33
47
42
39
59
64
60
73
68
73
123
121
105
78
65
124
125
127
164
146
104
101
66
75
109
113
86
65
69
97
123
92
33
33
31
33
72
176
232
250
249
252
250
222
202
169
143
100
68
61
86
118
61
68
52
54
39
49
54
52
34
112
87
149
236
141
79
52
46
63
64
62
60
33
51
45
36
112
63
65
165
197
188
182
117
136
170
181
142
135
143
38
40
42
47
29
37
42
41
34
38
53
47
33
39
46
38
40
50
43
58
47
37
34
46
31
38
36
31
37
30
27
34
33
28
34
45
54
38
38
51
50
76
66
68
108
100
157
216
133
146
177
171
132
105
124
83
81
63
99
92
103
58
37
54
90
61
67
73
51
66
84
117
178
234
245
234
238
242
232
219
193
154
131
101
73
164
136
55
79
47
45
44
46
53
55
83
150
187
219
226
148
60
42
50
54
58
73
54
45
55
50
44
171
179
117
67
102
148
150
158
145
146
194
203
132
134
46
30
32
45
48
32
40
43
37
34
46
46
36
39
45
42
44
55
58
66
44
36
41
41
40
34
32
32
35
29
28
33
35
28
36
32
45
46
36
44
42
57
43
55
45
48
155
232
222
225
211
155
172
146
84
72
75
91
141
62
62
40
36
41
111
131
147
96
126
142
140
127
161
111
129
169
176
177
173
237
193
189
178
135
177
226
146
80
39
40
33
40
55
73
86
51
78
200
140
87
64
47
36
40
49
80
61
59
95
76
62
62
49
117
162
186
114
78
113
121
150
187
151
214
160
119
67
66
36
36
42
33
37
45
42
36
42
44
37
39
46
41
54
57
43
43
41
49
41
34
36
39
27
33
37
28
35
41
33
35
32
38
33
37
38
38
36
42
38
46
38
65
53
190
190
126
107
101
134
156
126
56
61
89
69
55
56
48
45
63
57
135
187
149
119
128
144
132
138
139
73
50
142
95
110
208
218
190
187
239
253
252
205
120
57
53
55
41
53
65
74
66
102
134
51
54
53
123
85
49
63
84
84
59
172
212
166
56
56
76
231
235
204
186
162
157
176
171
137
150
185
177
37
53
34
41
38
36
36
42
42
38
42
43
38
42
55
38
47
49
42
45
43
44
34
34
41
39
36
38
25
33
34
32
36
35
33
30
34
36
35
41
44
30
40
35
46
74
142
161
147
160
112
107
101
106
101
47
50
110
73
40
45
57
103
128
176
178
154
139
121
131
128
151
102
65
63
56
141
91
110
198
220
220
233
249
249
248
227
126
63
57
57
55
52
43
49
55
111
79
55
42
44
49
73
63
70
65
68
59
71
135
160
193
90
47
109
235
215
209
166
169
165
168
164
126
152
171
35
41
35
39
38
35
36
39
39
37
41
44
42
46
45
46
50
44
45
43
38
40
36
37
37
33
34
29
29
27
37
34
39
33
36
26
30
30
31
30
35
35
36
34
37
91
115
138
119
110
93
89
106
122
134
53
120
171
111
44
72
139
130
121
137
173
96
94
88
127
111
116
104
140
112
88
146
120
137
223
245
224
235
250
242
219
162
155
96
51
50
53
47
44
43
49
56
87
54
36
69
53
64
52
53
77
93
117
96
181
163
172
201
163
128
165
202
210
215
180
125
161
125
135
116
153
39
41
37
37
42
37
36
41
44
42
42
44
41
40
44
42
42
46
46
41
41
42
35
36
29
34
33
36
33
30
36
36
32
38
58
80
73
31
38
29
31
30
29
37
63
69
135
85
138
100
93
88
113
101
131
163
180
120
72
62
105
105
142
164
121
156
125
95
114
125
101
111
197
155
133
138
130
133
166
234
221
178
240
251
232
163
143
160
92
52
45
71
51
65
62
69
48
95
55
53
44
49
57
47
58
61
62
191
220
202
218
178
154
158
178
117
123
166
203
205
219
156
127
95
87
105
33
40
36
41
41
39
38
39
46
45
39
36
34
37
40
34
30
41
39
34
39
34
35
38
36
28
28
31
30
75
56
95
102
97
112
82
54
33
26
28
24
30
58
68
56
119
102
62
85
113
105
95
125
132
125
81
96
78
70
73
64
134
149
150
117
178
212
164
150
174
126
106
130
167
136
145
158
171
179
167
139
131
194
184
208
136
145
99
83
62
58
57
51
52
77
72
63
91
90
56
45
45
54
168
151
201
100
65
163
187
191
213
171
156
138
164
209
172
181
199
184
196
172
111
75
78
41
38
39
43
42
44
41
35
39
42
33
28
32
45
61
63
38
34
37
38
40
28
34
32
33
33
30
23
127
191
122
107
106
123
83
29
26
30
28
23
28
57
139
72
38
65
57
77
83
192
114
107
92
119
115
94
105
79
187
96
151
143
141
115
150
179
219
176
184
191
128
113
117
122
168
168
171
160
164
134
136
153
126
127
141
122
102
82
88
56
58
55
55
50
84
115
70
129
102
78
62
60
53
184
226
237
226
192
230
220
187
194
237
213
188
177
175
148
117
142
196
175
161
158
109
67
43
43
42
41
41
41
33
35
30
23
24
24
32
59
148
162
154
109
79
63
49
36
32
31
26
28
31
24
78
89
150
199
145
114
85
39
30
24
26
28
35
47
39
30
59
83
55
121
92
160
98
83
83
170
140
135
126
119
158
93
86
92
110
126
177
178
208
173
169
128
172
221
217
154
152
173
180
155
198
172
131
114
87
118
118
114
97
73
66
79
59
50
50
39
38
103
132
147
83
67
80
69
60
28
114
166
206
203
195
220
230
205
168
169
185
170
130
113
94
72
75
153
168
141
126
126
38
37
35
33
32
30
31
27
23
20
20
25
30
46
102
172
201
236
238
223
194
154
71
40
22
26
18
24
107
114
177
155
107
110
136
96
24
23
29
29
24
25
26
31
33
41
71
104
80
117
98
99
93
109
95
112
126
149
68
101
167
147
119
154
200
210
187
185
198
223
246
247
244
243
183
155
140
163
199
172
143
123
112
134
119
139
143
125
142
106
53
53
48
28
63
131
154
125
81
62
68
45
41
30
34
80
171
176
195
190
189
200
192
180
166
149
150
127
93
81
70
59
82
134
115
103
28
26
23
21
20
21
22
20
22
22
21
25
32
38
53
135
248
219
210
216
194
203
203
79
44
40
50
87
107
123
83
96
92
100
119
45
25
18
26
31
28
24
20
22
45
50
88
74
101
104
118
113
104
111
75
123
169
84
65
90
113
121
203
199
176
216
247
250
249
251
245
245
209
204
241
216
133
146
178
184
158
131
136
129
143
147
153
154
153
142
59
61
59
37
43
133
167
168
133
72
70
33
40
22
32
25
50
171
191
166
180
196
184
163
162
188
176
135
93
82
69
59
55
51
83
98
18
17
17
19
21
23
21
20
21
20
19
24
34
42
108
153
139
146
149
205
191
117
162
194
122
131
126
115
75
99
145
85
108
68
38
46
17
21
22
26
23
36
35
35
68
52
69
67
65
88
113
121
91
70
72
143
117
161
145
118
155
185
178
179
185
234
253
250
233
201
222
222
237
183
236
250
214
137
160
164
170
154
138
128
131
141
147
158
161
171
147
64
75
58
132
150
149
126
103
85
62
61
49
40
25
33
58
66
202
219
194
152
137
154
155
142
134
163
167
104
67
73
47
56
49
54
19
20
21
21
21
21
21
21
18
20
24
26
29
37
107
150
142
117
138
106
92
58
74
108
141
139
106
133
92
117
123
70
131
131
58
59
17
22
23
27
23
25
44
45
50
74
71
52
47
83
82
77
101
84
74
96
149
127
162
125
181
232
240
224
236
244
228
189
185
221
187
164
181
187
193
217
226
218
161
130
164
149
140
129
118
133
130
148
145
183
182
165
152
127
172
156
149
136
95
80
71
51
39
36
26
26
44
58
168
207
203
201
195
145
104
103
128
122
118
135
138
223
142
78
52
45
20
20
20
19
19
19
18
21
18
21
27
28
30
39
108
132
115
72
46
41
34
31
30
54
134
78
80
89
90
70
76
63
138
94
51
59
33
76
99
13
12
23
45
50
49
63
63
51
41
70
92
93
159
139
99
134
127
123
125
183
216
208
177
149
188
198
169
160
177
153
137
213
198
172
176
169
200
226
236
171
157
159
146
157
141
132
128
123
141
154
164
161
164
156
170
178
168
121
86
62
95
148
58
39
37
28
26
22
70
165
160
198
204
205
200
128
73
99
126
96
87
173
221
193
174
140
16
16
17
19
22
23
22
22
17
18
23
27
39
42
60
119
56
42
44
24
24
26
24
23
73
108
99
76
65
47
33
42
45
47
69
47
58
66
55
52
146
142
103
96
60
65
55
44
74
64
110
94
164
224
236
252
240
216
202
202
140
141
128
152
117
106
107
89
109
85
143
107
178
153
108
168
238
216
202
227
227
179
155
154
137
142
142
144
128
126
142
162
169
192
212
186
157
113
86
62
105
232
159
26
28
47
104
111
76
105
122
120
157
204
192
214
188
111
83
98
94
68
94
181
184
201
18
18
18
20
20
21
23
19
17
22
25
34
39
30
31
59
31
38
39
40
39
26
24
22
88
102
86
61
66
41
61
33
50
38
58
50
50
36
43
53
59
146
153
135
91
50
54
55
76
70
125
200
245
226
220
250
253
252
253
247
233
219
208
119
189
173
158
155
142
105
128
138
103
96
128
110
206
230
241
239
235
221
175
155
142
137
128
130
112
131
131
178
191
220
240
212
159
106
75
75
59
146
195
135
43
93
220
218
209
187
198
179
154
210
221
206
212
204
204
193
175
131
179
209
200
182
16
21
20
21
25
21
24
22
21
22
39
67
36
26
32
32
39
37
30
36
38
36
25
22
26
80
73
55
74
38
44
28
42
34
91
73
52
37
29
47
53
105
95
122
87
49
38
64
82
145
242
251
194
193
243
249
252
252
250
247
251
227
243
174
187
176
175
170
168
176
184
159
150
82
117
108
120
224
248
250
230
172
177
151
125
101
113
106
110
111
139
153
194
209
238
186
162
108
81
70
66
78
154
190
138
19
69
147
210
221
205
210
210
210
196
138
138
185
189
202
196
197
194
192
176
166
16
17
23
23
17
23
20
20
17
33
24
29
27
28
44
46
35
28
33
33
26
23
26
24
58
51
55
33
66
36
28
26
29
49
119
72
43
46
74
48
39
47
49
46
43
45
42
64
173
250
250
253
252
249
249
251
251
251
215
198
180
244
232
177
177
146
170
169
185
199
191
189
165
107
123
146
138
188
214
196
229
238
237
211
146
104
100
91
93
116
132
180
205
198
198
183
139
196
131
55
60
69
67
160
185
193
231
224
232
224
221
205
205
196
203
216
211
152
117
127
157
203
195
178
165
147
25
23
19
48
34
15
20
22
21
18
29
30
24
25
28
36
115
93
31
24
27
15
78
30
41
67
107
51
43
48
41
50
76
67
46
44
43
62
67
37
40
42
53
35
33
37
45
174
249
252
247
247
244
245
249
249
208
222
118
132
198
250
214
171
150
153
169
188
174
187
194
196
163
155
121
127
138
158
174
204
204
222
234
241
235
111
74
77
98
118
146
151
182
186
168
167
140
181
229
192
114
79
44
76
164
200
206
190
83
142
135
136
193
191
208
192
181
183
199
158
132
204
131
132
108
72
24
23
54
122
22
27
20
25
24
24
22
26
29
29
28
29
36
128
82
18
23
22
87
30
55
35
26
29
59
18
24
41
68
78
32
45
88
87
34
39
44
46
37
31
41
37
133
238
247
235
193
164
182
179
189
168
149
174
207
219
251
225
146
124
157
149
161
158
190
174
179
175
144
154
139
100
127
166
162
164
197
171
166
197
246
196
116
94
115
89
118
156
168
170
177
171
147
103
141
194
204
211
185
120
146
155
133
171
136
63
119
113
147
187
170
196
202
183
154
175
193
164
170
90
100
111
27
22
84
79
54
28
16
16
23
17
29
28
24
20
28
44
52
127
160
136
99
68
77
53
106
72
76
79
67
36
29
26
69
28
44
58
76
42
32
48
44
53
45
40
58
175
247
245
196
95
112
107
93
80
119
164
158
132
170
195
217
110
77
108
160
138
119
152
143
157
153
146
129
143
162
140
119
117
133
140
136
139
124
171
210
249
248
229
187
147
130
133
169
173
156
166
133
122
106
139
229
181
189
217
225
231
229
222
216
146
94
104
102
124
177
172
158
165
185
168
134
176
163
167
103
87
35
44
111
160
94
68
41
20
19
18
20
91
65
26
78
148
190
173
157
136
147
130
126
116
133
68
64
85
39
28
22
40
43
66
50
63
68
40
48
53
69
75
95
155
216
249
239
230
161
64
53
107
186
201
198
161
84
66
70
73
96
58
70
105
103
98
119
129
128
136
131
129
123
130
146
129
120
133
128
119
116
113
117
175
242
251
254
252
234
173
157
152
141
158
153
127
120
122
125
159
238
212
204
232
219
205
195
185
171
166
153
142
134
123
114
129
163
155
136
138
162
143
152
186
167
159
127
123
167
168
164
92
25
20
21
20
55
39
91
60
39
100
168
159
193
145
138
153
137
135
115
123
56
86
35
20
25
26
25
33
65
38
43
37
54
73
111
224
249
251
253
250
230
236
198
121
163
236
199
148
115
212
196
95
62
57
67
71
65
51
76
88
106
130
113
122
125
114
122
111
147
137
141
88
92
79
69
67
133
174
200
254
251
252
250
202
137
141
166
169
177
151
152
148
119
101
198
221
246
229
223
224
228
216
184
164
138
126
107
107
115
114
84
93
178
119
113
148
154
150
163
122
168
177
135
158
83
105
37
34
23
38
61
137
153
168
169
183
176
177
193
185
166
171
159
154
149
206
178
101
86
70
25
28
56
102
63
42
112
96
75
64
184
251
252
248
246
238
223
216
247
249
174
113
142
228
177
103
71
95
62
89
63
76
91
94
111
110
114
110
122
108
109
110
113
93
133
138
135
98
57
56
55
56
105
133
126
177
195
241
250
235
233
209
175
168
224
221
198
166
150
115
238
232
228
249
241
234
217
210
203
205
211
218
207
212
206
200
201
188
205
177
116
97
115
153
150
170
183
127
101
105
84
109
68
57
133
152
148
142
175
183
198
156
151
184
219
203
156
162
160
147
157
141
166
102
148
97
26
30
45
88
73
91
105
90
92
89
238
233
254
233
221
238
231
247
220
140
80
46
149
127
95
65
69
62
73
75
45
62
68
80
99
110
123
106
92
92
91
109
86
88
102
121
120
71
35
51
47
47
80
98
129
146
182
233
213
243
244
239
235
230
250
249
227
185
174
143
237
233
226
236
226
232
235
225
220
205
190
176
171
170
175
173
173
197
185
173
195
179
155
143
147
144
176
167
109
120
86
122
66
117
126
156
168
128
143
146
178
149
174
160
159
170
161
153
149
129
119
109
94
82
192
168
71
84
71
70
101
108
97
92
70
153
252
252
245
250
190
186
170
164
79
46
49
53
81
103
90
82
68
64
65
57
47
57
45
68
75
90
124
81
66
84
84
73
46
57
70
86
99
102
65
46
41
45
67
86
113
122
135
183
205
214
233
249
246
248
251
248
251
243
239
234
227
218
226
223
205
203
222
213
217
229
222
215
197
173
135
141
162
197
184
181
191
173
146
144
140
137
200
169
149
135
116
107
126
152
118
123
124
115
113
129
130
130
126
147
135
148
132
162
149
115
123
105
64
105
148
123
103
98
125
98
70
81
106
108
101
231
234
159
178
170
157
131
72
69
49
30
61
59
93
90
88
91
79
65
47
42
40
65
57
70
68
90
66
67
70
58
65
76
90
46
77
62
33
89
108
47
35
59
31
48
90
123
155
150
156
174
174
236
242
247
234
250
250
235
249
229
213
208
219
228
233
217
202
210
194
190
196
195
202
203
199
166
129
103
99
128
154
159
167
159
141
137
127
147
142
108
111
98
149
112
142
141
89
108
138
98
112
156
150
125
130
135
148
153
150
128
112
103
68
128
146
91
146
147
105
136
93
105
107
96
170
228
147
89
106
100
91
76
89
99
82
68
60
83
73
81
78
74
81
50
51
40
46
64
77
89
87
70
58
64
61
48
48
43
77
75
72
72
40
68
100
64
42
46
49
50
108
90
108
108
101
107
169
203
236
226
239
246
248
245
252
232
205
174
227
224
227
232
212
203
200
191
185
187
177
168
168
166
163
160
150
132
102
151
159
151
159
163
108
105
140
125
97
143
134
132
121
123
103
94
114
79
90
143
140
112
116
133
152
157
161
151
113
145
106
104
139
95
111
138
114
135
164
161
155
120
181
116
142
162
83
73
80
73
97
89
86
91
78
61
76
81
79
79
57
37
52
66
75
62
88
123
70
65
57
62
65
62
59
66
52
60
47
62
40
70
74
61
32
36
36
44
66
71
100
76
94
96
99
163
149
195
226
231
238
234
247
242
243
225
241
219
222
217
219
208
206
217
201
170
151
153
155
142
138
134
137
144
141
142
142
144
147
143
68
116
145
154
143
156
135
99
97
102
109
112
98
87
85
114
136
136
163
108
132
156
139
149
136
149
132
113
124
98
113
142
171
155
151
160
163
151
226
167
101
90
89
84
60
86
85
98
86
78
66
67
67
79
81
82
75
68
71
55
71
65
81
103
80
85
83
80
62
59
47
41
34
61
78
58
33
34
36
45
42
35
29
35
41
69
96
103
109
118
96
115
171
166
205
208
221
205
202
241
245
251
252
246
230
213
224
222
215
210
192
199
199
169
148
126
127
130
128
124
121
119
124
133
122
165
121
147
153
176
166
154
148
101
114
111
108
101
101
82
81
96
93
111
133
130
154
161
142
149
149
137
149
136
114
93
128
140
141
138
134
148
148
160
154
73
74
77
77
71
61
77
80
73
78
85
60
48
79
71
69
70
70
64
67
70
77
64
59
89
80
97
116
93
56
61
39
45
49
61
71
50
51
42
42
49
33
28
29
106
133
64
84
56
88
97
121
160
166
169
159
190
209
204
204
226
248
251
249
250
248
236
210
201
194
199
201
205
187
186
189
193
148
133
136
133
126
113
113
107
117
118
143
160
147
125
113
125
130
108
115
111
78
109
106
91
78
76
83
74
118
129
157
170
158
151
164
143
160
161
127
96
118
128
146
131
119
133
135
114
93
57
78
82
78
77
76
72
61
72
68
85
83
80
81
87
75
59
65
62
73
54
67
55
45
76
79
94
98
102
85
56
36
33
38
36
107
90
29
36
40
65
36
39
27
116
130
128
133
70
146
139
99
139
134
120
110
182
176
186
210
207
181
233
223
246
245
248
235
214
209
184
167
186
187
187
176
186
161
161
161
159
166
142
130
122
113
107
136
146
157
156
140
121
118
94
125
114
57
49
77
95
87
111
130
134
131
106
128
158
141
149
158
157
157
164
113
113
146
138
134
130
123
132
130
113
91
55
45
59
67
73
71
81
71
69
62
52
66
82
74
79
83
68
71
67
53
54
60
61
55
70
64
76
102
90
89
99
48
42
67
135
87
58
37
39
47
71
40
39
37
41
65
87
75
87
83
85
122
81
97
92
151
146
142
157
158
187
144
181
202
234
224
203
200
203
226
202
200
199
182
159
173
190
193
187
189
170
157
143
134
125
124
115
153
144
141
120
131
135
120
131
108
104
83
39
65
69
104
123
119
114
87
90
119
134
143
151
160
170
164
165
119
116
111
135
127
126
121
129
129
109
123
73
60
73
66
62
74
80
81
71
52
40
51
61
49
66
70
74
71
70
59
69
63
62
53
64
68
69
90
74
106
112
46
37
91
81
72
57
47
42
37
74
50
53
50
39
29
28
33
31
40
46
71
94
100
54
114
167
128
113
152
196
194
172
192
190
170
160
239
235
229
226
206
200
176
166
162
163
163
162
164
162
158
147
129
141
178
117
156
147
145
125
122
124
111
118
109
94
90
52
50
67
112
118
107
112
93
89
110
153
157
151
162
166
175
166
129
128
123
131
145
129
112
125
133
114
106
78
89
40
49
36
55
68
73
65
39
34
59
64
43
35
70
72
77
71
59
69
69
59
51
47
72
59
80
100
112
103
54
65
55
95
156
101
71
86
97
73
45
46
51
53
39
38
27
29
30
28
34
36
48
62
42
77
57
117
67
150
111
160
188
107
102
166
210
232
245
237
234
183
170
161
151
155
169
157
152
155
151
143
133
128
150
119
153
159
157
144
114
120
115
113
118
88
75
56
42
51
96
96
103
107
96
116
113
98
116
132
144
145
150
157
131
132
122
145
181
154
163
128
146
118
105
143
112
107
106
38
50
64
73
73
59
63
67
73
57
67
67
49
70
57
61
60
54
40
43
38
60
47
95
78
123
112
49
51
67
207
220
214
185
196
163
59
39
32
24
24
32
36
40
29
30
26
18
24
25
24
79
79
41
67
65
58
124
109
63
103
85
163
180
196
199
197
226
216
149
149
154
139
145
144
139
129
123
118
116
127
131
133
164
146
148
138
115
113
109
87
79
75
67
47
33
54
88
83
132
127
100
127
127
107
111
122
124
124
145
151
159
140
145
152
158
143
159
134
140
114
113
112
91
85
52
51
40
50
67
65
75
54
64
78
70
69
65
71
61
58
57
33
54
50
48
46
48
63
91
91
84
99
61
66
138
235
246
240
197
208
163
177
47
29
33
32
31
35
27
34
32
23
17
21
22
42
144
84
50
82
35
115
153
142
105
108
156
210
212
196
205
197
172
137
143
145
125
127
124
122
140
140
136
137
131
133
124
121
150
150
149
143
135
134
125
101
77
68
51
43
27
34
61
90
221
182
119
105
102
122
116
115
131
129
133
175
193
186
168
164
143
138
136
124
112
119
125
106
61
45
39
45
50
58
72
55
48
42
65
69
75
61
67
65
57
60
44
48
44
48
54
44
48
52
70
135
103
57
45
63
165
213
240
214
192
150
227
183
64
39
27
32
34
35
27
25
25
82
49
25
22
30
32
87
35
49
50
73
89
140
136
84
153
155
213
179
190
193
168
176
215
185
160
167
169
166
131
158
154
121
107
111
114
128
149
139
133
132
138
141
124
101
74
75
50
36
33
33
33
85
192
131
81
85
89
84
89
116
119
117
134
175
220
189
192
165
133
120
116
101
126
111
110
102
68
49
57
56
58
67
50
56
44
59
62
68
68
60
60
55
53
49
30
43
47
56
42
59
32
46
50
60
78
73
66
89
99
129
201
202
201
234
247
216
76
30
32
25
25
14
18
27
30
61
87
23
25
29
26
77
59
24
41
45
62
36
34
86
147
136
152
159
135
222
152
176
188
201
162
159
138
123
128
133
147
156
163
154
115
107
150
130
132
126
128
130
117
96
82
81
57
45
33
41
57
82
47
43
64
72
90
99
76
101
104
96
104
134
164
164
163
162
146
126
122
114
111
81
87
92
86
62
66
57
53
59
58
39
43
48
71
71
61
68
57
53
57
36
33
33
39
49
52
39
41
54
43
53
52
69
110
128
129
129
132
129
160
193
189
126
70
32
29
25
28
38
123
63
30
38
82
56
39
44
68
43
40
21
28
26
24
34
34
71
85
81
149
150
127
162
137
175
174
176
121
140
126
119
123
121
107
121
137
145
112
111
173
125
144
123
135
132
118
77
83
89
70
57
67
70
62
50
38
42
51
64
82
93
69
88
93
69
91
99
159
119
138
155
132
109
126
128
88
74
94
89
80
43
80
64
45
51
34
33
44
49
65
51
49
62
50
48
56
45
45
43
40
46
35
44
42
39
65
66
78
63
69
105
114
90
90
99
107
92
104
87
38
28
25
46
35
23
31
104
50
25
55
88
98
50
55
47
36
25
22
19
23
21
27
94
84
107
116
180
173
144
145
153
145
112
129
186
189
145
81
90
93
134
133
121
98
104
