P2
100
100
255
255
255
255
255
255
255
255
255
255
255
255
255
255
255
255
255
255
255
255
255
255
255
255
255
255
255
255
255
255
255
255
255
255
255
255
255
255
255
255
255
255
255
255
255
255
255
255
255
255
255
255
255
255
255
255
255
255
255
255
255
255
255
255
255
255
255
255
255
255
255
255
255
255
255
255
255
255
255
255
255
255
255
255
255
255
255
255
255
255
255
255
255
255
255
255
255
255
255
255
255
255
255
255
255
255
255
255
255
255
255
255
255
255
255
255
255
255
255
255
255
255
255
255
255
255
255
255
255
255
255
255
255
255
255
255
255
255
255
255
255
255
255
255
255
255
255
255
255
255
255
255
255
255
255
255
255
255
255
255
255
255
255
255
255
255
255
255
255
255
255
255
255
255
255
255
255
255
255
255
255
255
255
255
255
255
255
255
255
255
255
255
255
255
255
255
255
255
255
255
255
255
255
255
255
255
255
255
255
255
255
255
255
255
255
255
255
255
255
255
255
255
255
255
255
255
255
255
255
255
255
255
255
255
255
255
255
255
255
255
255
255
255
255
255
255
255
255
255
255
255
255
255
255
255
255
255
255
255
255
255
255
255
255
255
255
255
255
255
255
255
255
255
255
255
255
255
255
255
255
255
255
255
255
255
255
255
255
255
255
255
255
255
255
255
255
255
255
255
255
255
255
255
255
255
255
255
255
255
255
255
255
255
255
255
255
255
255
255
255
255
255
255
255
255
255
255
255
255
255
255
255
255
255
255
255
255
255
255
255
255
255
255
255
255
255
255
255
255
255
255
255
255
255
255
255
255
255
255
255
255
255
255
255
255
255
255
255
255
255
255
255
255
255
255
255
255
255
255
255
255
255
255
255
255
255
255
255
255
255
255
255
255
255
255
255
255
255
255
255
255
255
255
255
255
255
255
255
255
255
255
255
255
255
255
255
255
255
255
255
255
255
255
255
255
255
255
255
255
255
255
255
255
255
255
255
255
255
255
255
255
255
255
255
255
255
255
255
255
255
255
255
255
255
255
255
255
255
255
255
255
255
255
255
255
255
255
255
255
255
255
255
255
255
255
255
255
255
255
255
255
255
255
255
255
255
255
255
255
255
255
255
255
255
255
255
255
255
255
255
255
255
255
255
255
255
255
255
255
255
255
255
255
255
255
255
255
255
255
255
255
255
255
255
255
255
255
255
255
255
255
255
255
255
255
255
255
255
255
255
255
255
255
255
255
255
255
255
255
255
255
255
255
255
255
255
255
255
255
255
255
255
255
255
255
255
255
255
255
255
255
255
255
255
255
255
255
255
255
255
255
255
255
255
255
255
255
255
255
255
255
255
255
255
255
255
255
255
255
255
255
255
255
255
255
255
255
255
255
255
255
255
255
255
255
255
255
255
255
255
255
255
255
255
255
255
255
255
255
255
255
255
255
255
255
255
255
255
255
255
255
255
255
255
255
255
255
255
255
255
255
255
255
255
255
255
255
255
255
255
255
255
255
255
255
255
255
255
255
255
255
255
255
255
255
255
255
255
255
255
255
255
255
255
255
255
255
255
255
255
255
255
255
255
255
255
255
255
255
255
255
255
255
255
255
255
255
255
255
255
255
255
255
255
255
255
255
255
255
255
255
255
255
255
255
255
255
255
255
255
255
255
255
255
255
255
255
255
255
255
255
255
255
255
255
255
255
255
255
255
255
255
255
255
255
255
255
255
255
255
255
255
255
255
255
255
255
255
255
255
255
255
255
255
255
255
255
255
255
255
255
255
255
255
255
255
255
255
255
255
255
255
255
255
255
255
255
255
255
255
255
255
255
255
255
255
255
255
255
255
255
255
255
255
255
255
255
255
255
255
255
255
255
255
255
255
255
255
255
255
255
255
255
255
255
255
255
255
255
255
255
255
255
255
255
255
255
255
255
255
255
255
255
255
255
255
255
255
255
255
255
255
255
255
255
255
255
255
255
255
255
255
255
255
255
255
255
255
255
255
255
255
255
255
255
255
255
255
255
255
255
255
255
255
255
255
255
255
255
255
255
255
255
255
255
255
255
255
255
255
255
255
255
255
255
255
255
255
255
255
255
255
255
255
255
255
255
255
255
255
255
255
255
255
255
255
255
255
255
255
255
255
255
255
255
255
255
255
255
255
255
255
255
255
255
255
255
255
255
255
255
255
255
255
255
255
255
255
255
255
255
255
255
255
255
255
255
255
255
255
255
255
255
255
255
255
255
255
255
255
255
255
255
255
255
255
255
255
255
255
255
255
255
255
255
255
255
255
255
255
255
255
255
255
255
255
255
255
255
255
255
255
255
255
255
255
255
255
255
255
255
255
255
255
255
255
255
255
255
255
255
255
255
255
255
255
255
255
255
255
255
255
255
255
255
255
255
255
255
255
255
255
255
255
255
255
255
255
255
255
255
255
255
255
255
255
255
255
255
255
255
255
255
255
255
255
255
255
255
255
255
255
255
255
255
255
255
255
255
255
255
255
255
255
255
255
255
255
255
255
255
255
255
255
255
255
255
255
255
255
255
255
255
255
255
255
255
255
255
255
255
255
255
255
255
255
255
255
255
255
255
255
255
255
255
255
255
255
255
255
255
255
255
255
255
255
255
255
255
255
255
255
255
255
255
255
255
255
255
255
255
255
255
255
255
255
255
255
255
255
255
255
255
255
255
255
255
255
255
255
255
255
255
255
255
255
255
255
255
255
255
255
255
255
255
255
255
255
255
255
255
255
255
255
255
255
255
255
255
255
255
255
255
255
255
255
255
255
255
255
255
255
255
255
255
255
255
255
255
255
255
255
255
255
255
255
255
255
255
255
255
255
255
255
255
255
255
255
255
255
255
255
255
255
255
255
255
255
255
255
255
255
255
255
255
255
255
255
255
255
255
255
255
255
255
255
255
255
255
255
255
255
255
255
255
255
255
255
255
255
255
255
255
255
255
255
255
255
255
255
255
255
255
255
255
255
255
255
255
255
255
255
255
255
255
255
255
255
255
255
255
255
255
255
255
255
255
255
255
255
255
255
255
255
255
255
255
255
255
255
255
255
255
255
255
255
255
255
255
255
255
255
255
255
255
255
255
255
255
255
255
255
255
255
255
255
255
255
255
255
255
255
255
255
255
255
255
255
255
255
255
255
255
255
255
255
255
255
255
255
255
255
255
255
255
255
255
255
255
255
255
255
255
255
255
255
255
255
255
255
255
255
255
255
255
255
255
255
255
255
255
255
255
255
255
255
255
255
255
255
255
255
255
255
255
255
255
255
255
255
255
255
255
255
255
255
255
255
255
255
255
255
255
255
255
255
255
255
255
255
255
255
255
255
255
255
255
255
255
255
255
255
255
255
255
255
255
255
255
255
255
255
255
255
255
255
255
255
255
255
255
255
255
255
255
255
255
255
255
255
255
255
255
255
255
255
255
255
255
255
255
255
255
255
255
255
255
255
255
255
255
255
255
255
255
255
255
255
255
255
255
255
255
255
255
255
255
255
255
255
255
255
255
255
255
255
255
255
255
255
255
255
255
255
255
255
255
255
255
255
255
255
255
255
255
255
255
255
255
255
255
255
255
255
255
255
255
255
255
255
255
255
255
255
255
255
255
255
255
255
255
254
254
254
254
254
254
254
254
254
254
255
254
254
254
254
254
250
250
250
251
253
253
251
250
250
252
252
251
251
252
254
253
255
255
255
255
255
255
255
255
255
255
255
255
255
255
255
255
255
255
255
255
255
255
255
255
255
255
255
255
255
255
255
255
255
255
255
255
255
255
255
255
255
255
255
255
255
255
255
255
255
255
255
255
255
255
255
255
255
255
255
255
255
255
255
255
251
251
252
254
254
254
254
254
254
254
254
254
254
255
255
254
254
254
254
253
251
251
252
252
254
254
252
252
252
252
252
252
252
253
254
253
255
255
255
255
255
255
255
255
255
255
255
255
255
255
255
255
255
255
255
255
255
255
255
255
255
255
255
255
255
255
255
255
255
255
255
255
255
255
255
255
255
255
255
255
255
255
255
255
255
255
255
255
255
255
255
255
255
255
255
255
255
255
255
255
252
252
253
254
254
254
254
254
254
254
254
254
255
255
254
254
253
254
254
253
252
253
254
253
253
253
254
254
253
253
253
254
254
254
254
254
255
255
255
255
255
255
255
255
255
255
255
255
255
255
255
255
255
255
255
255
255
255
255
255
255
255
255
255
255
255
255
255
255
255
255
255
255
255
255
255
255
255
255
255
255
255
255
255
255
255
255
255
255
255
255
255
255
255
255
255
255
255
255
255
254
254
254
254
254
254
254
254
254
255
255
255
255
254
254
254
254
253
253
253
255
253
252
251
251
252
253
252
251
252
254
253
253
253
253
253
255
255
255
255
255
255
255
255
255
255
255
255
255
255
255
255
255
255
255
255
255
255
255
255
255
255
255
255
255
255
255
255
255
255
255
255
255
255
255
255
255
255
255
255
255
255
255
255
255
255
255
255
255
255
255
255
255
255
255
255
255
255
255
255
254
254
253
253
254
254
254
254
254
254
254
254
254
254
254
254
254
254
254
254
252
252
250
249
251
253
252
250
249
251
253
253
252
252
254
254
255
255
255
255
255
255
255
255
255
255
255
255
255
255
255
255
255
255
255
255
255
255
255
255
255
255
255
255
255
255
255
255
255
255
255
255
255
255
255
255
255
255
255
255
255
255
255
255
255
255
255
255
255
255
255
255
255
255
255
255
255
255
255
255
254
254
253
253
254
254
254
255
254
254
254
254
254
254
254
254
254
254
254
254
252
251
250
250
251
253
252
250
250
251
253
253
253
253
254
253
255
255
255
255
255
255
255
255
255
255
255
255
255
255
255
255
255
255
255
255
255
255
255
255
255
255
255
255
255
255
255
255
255
255
255
255
255
255
255
255
255
255
255
255
255
255
255
255
255
255
255
255
255
255
255
255
255
255
255
255
255
255
255
255
254
254
254
254
254
254
254
255
254
254
254
254
254
254
254
254
254
253
253
253
252
252
252
252
253
254
253
252
252
252
253
253
254
254
252
252
255
255
255
255
255
255
255
255
255
255
255
255
255
255
255
255
255
255
255
255
255
255
255
255
255
255
255
255
255
255
255
255
255
255
255
255
255
255
255
255
255
255
255
255
255
255
255
255
255
255
255
255
255
255
255
255
255
255
255
255
255
255
255
255
252
253
253
254
254
254
254
255
254
254
254
254
255
255
254
253
253
252
252
252
252
252
252
252
252
253
254
252
252
252
253
253
252
252
250
250
255
255
255
255
255
255
255
255
255
255
255
255
255
255
255
255
255
255
255
255
255
255
255
255
255
255
255
255
255
255
255
255
255
255
255
255
255
255
255
255
255
255
255
255
255
255
255
255
255
255
255
255
255
255
255
255
255
255
255
255
255
255
255
255
251
251
252
253
254
254
255
255
254
254
254
254
254
246
253
252
252
229
149
116
103
85
151
224
249
252
247
250
242
249
252
239
251
250
238
249
255
255
255
255
255
255
255
255
255
255
255
255
255
255
255
255
255
255
255
255
255
255
255
255
255
255
255
255
255
255
255
255
255
255
255
255
255
255
255
255
255
255
255
255
255
255
255
255
255
255
255
255
255
255
255
255
255
255
255
255
255
255
255
255
250
251
252
254
254
254
255
254
254
254
254
255
254
253
245
251
194
114
74
74
72
78
67
94
176
244
251
248
247
246
237
253
247
235
249
247
255
255
255
255
255
255
255
255
255
255
255
255
255
255
255
255
255
255
255
255
255
255
255
255
255
255
255
255
255
255
255
255
255
255
255
255
255
255
255
255
255
255
255
255
255
255
255
255
255
255
255
255
255
255
255
255
255
255
255
255
255
255
255
255
251
252
253
253
254
254
254
254
254
254
254
254
253
252
251
218
115
66
75
85
83
85
67
67
90
171
250
246
247
246
247
243
253
253
249
249
255
255
255
255
255
255
255
255
255
255
255
255
255
255
255
255
255
255
255
255
255
255
255
255
255
255
255
255
255
255
255
255
255
255
255
255
255
255
255
255
255
255
255
255
255
255
255
255
255
255
255
255
255
255
255
255
255
255
255
255
255
255
255
255
253
252
252
252
253
253
254
254
254
254
254
254
252
249
249
127
72
75
81
84
73
76
88
95
67
85
187
251
249
219
236
240
245
251
250
251
255
255
255
255
255
255
255
255
255
255
255
255
255
255
255
255
255
255
255
255
255
255
255
255
255
255
255
255
255
255
255
255
255
255
255
255
255
255
255
255
255
255
255
255
255
255
255
255
255
255
255
255
255
255
255
255
255
255
255
255
255
255
255
255
254
246
248
252
253
254
253
254
254
254
254
253
252
238
205
86
82
83
69
78
67
87
77
72
90
70
97
228
253
216
146
216
238
244
243
254
255
255
255
255
255
255
255
255
255
255
255
255
255
255
255
255
255
255
255
255
255
255
255
255
255
255
255
255
255
255
255
255
255
255
255
255
255
255
255
255
255
255
255
255
255
255
255
255
255
255
255
255
255
255
255
255
255
255
255
255
255
255
255
255
252
246
248
251
253
253
253
254
254
254
254
252
251
237
127
80
86
87
84
89
81
92
82
62
89
85
66
130
245
251
167
99
198
234
246
253
255
255
255
255
255
255
255
255
255
255
255
255
255
255
255
255
255
255
255
255
255
255
255
255
255
255
255
255
255
255
255
255
255
255
255
255
255
255
255
255
255
255
255
255
255
255
255
255
255
255
255
255
255
255
255
255
255
255
255
255
255
255
255
255
248
252
252
249
253
253
253
254
254
254
254
252
242
213
85
71
75
77
83
77
71
74
84
76
69
83
84
71
205
243
235
88
93
183
242
239
255
255
255
255
255
255
255
255
255
255
255
255
255
255
255
255
255
255
255
255
255
255
255
255
255
255
255
255
255
255
255
255
255
255
255
255
255
255
255
255
255
255
255
255
255
255
255
255
255
255
255
255
255
255
255
255
255
255
255
255
255
255
255
255
251
253
254
252
253
253
253
254
254
254
254
252
238
154
76
76
93
77
73
77
77
95
81
80
76
68
83
79
114
254
233
172
63
83
156
245
255
255
255
255
255
255
255
255
255
255
255
255
255
255
255
255
255
255
255
255
255
255
255
255
255
255
255
255
255
255
255
255
255
255
255
255
255
255
255
255
255
255
255
255
255
255
255
255
255
255
255
255
255
255
255
255
255
255
255
255
255
255
255
255
253
253
252
252
247
254
250
252
253
252
242
252
232
88
85
72
78
88
91
79
81
81
80
81
80
80
80
79
82
182
241
236
86
77
82
103
238
240
246
245
246
250
248
250
254
251
250
253
251
249
245
251
246
247
249
252
254
252
252
251
252
253
254
254
254
254
253
252
255
255
255
255
255
255
255
255
255
255
255
255
255
255
255
255
249
252
252
249
249
253
252
250
249
250
250
250
252
254
251
248
252
254
252
243
247
254
250
253
253
252
246
252
189
79
85
76
79
82
88
79
81
82
80
80
80
79
79
79
78
138
249
238
148
75
78
90
105
205
240
251
249
247
250
253
249
254
254
252
253
254
252
250
249
249
251
253
254
253
252
252
252
253
254
254
254
253
253
252
255
255
255
255
255
255
255
255
255
255
255
255
255
255
255
255
250
252
253
250
250
253
252
250
252
254
252
252
253
253
251
250
252
253
252
244
248
252
249
253
254
252
251
252
127
73
84
80
83
75
85
79
81
81
80
80
80
79
79
79
79
90
235
243
202
79
76
80
71
80
181
243
251
249
248
252
252
252
253
247
244
251
252
244
253
253
254
254
253
252
253
253
254
254
254
254
255
253
252
252
255
255
255
255
255
255
255
255
255
255
255
255
255
255
255
255
251
253
253
251
250
253
252
250
252
252
251
252
253
251
252
254
253
251
250
237
249
249
249
253
254
252
252
237
91
78
83
80
85
74
83
77
82
81
81
80
80
79
80
79
83
74
181
250
231
104
76
78
73
75
67
154
232
250
248
245
249
253
250
249
247
253
252
248
252
252
252
252
252
252
253
254
254
253
253
253
255
253
252
252
255
255
255
255
255
255
255
255
255
255
255
255
255
255
255
255
253
253
255
252
251
253
252
250
254
251
249
253
250
250
254
250
252
253
251
207
249
249
251
253
254
251
253
204
85
90
83
78
86
78
83
77
81
82
80
80
80
79
79
79
79
84
111
252
241
150
78
79
73
80
82
69
128
218
243
248
243
244
251
251
253
248
253
254
249
249
250
251
252
253
254
254
253
252
253
253
255
253
252
252
255
255
255
255
255
255
255
255
255
255
255
255
255
255
255
255
255
254
254
253
252
254
252
250
254
248
247
254
248
248
253
246
251
253
247
165
250
251
252
251
254
250
246
161
91
96
85
78
84
82
83
79
81
81
80
80
80
79
79
79
71
93
70
233
249
200
83
76
77
80
76
79
75
109
201
238
253
250
247
247
254
254
249
252
249
249
250
251
252
254
254
254
253
253
253
254
255
254
253
253
255
255
255
255
255
255
255
255
255
255
255
255
255
255
255
255
253
254
253
255
253
254
251
251
251
243
243
253
246
247
251
237
250
253
227
137
251
254
252
249
254
250
238
119
92
92
89
82
81
85
80
84
81
81
80
80
80
79
79
79
71
91
71
174
248
231
99
77
81
75
75
76
85
76
86
176
232
253
245
240
251
253
251
250
250
251
252
253
254
254
254
254
254
255
255
254
254
255
255
254
255
255
255
255
255
255
255
255
255
255
255
255
255
255
255
255
251
254
252
253
254
255
251
251
252
243
243
254
245
247
242
219
248
251
191
133
252
254
253
248
254
249
232
94
87
86
91
86
80
85
79
88
81
81
80
80
80
79
79
79
80
81
84
120
244
246
112
79
75
80
79
77
74
75
78
73
147
225
252
241
245
251
245
247
254
253
253
252
252
252
253
254
253
253
253
253
254
254
253
252
255
255
255
255
255
255
255
255
255
255
255
255
255
255
255
255
250
254
252
252
254
254
252
252
252
246
243
254
246
248
233
206
247
246
161
140
253
247
253
250
250
248
193
94
93
92
91
88
86
83
83
84
82
82
82
81
81
80
80
80
76
75
87
86
237
250
162
80
77
75
75
74
75
77
78
80
70
135
206
246
249
249
254
248
250
250
247
247
249
251
253
254
252
251
251
252
254
253
251
250
255
255
255
255
255
255
255
255
255
255
255
255
255
255
255
255
249
253
252
252
253
253
252
253
252
242
247
243
249
250
226
175
249
225
138
145
254
249
253
251
253
247
176
94
94
93
92
89
86
84
84
86
82
82
83
81
81
81
81
80
75
78
84
89
204
251
194
75
77
75
76
75
75
77
80
80
83
68
104
195
242
249
248
252
247
246
248
248
249
249
249
253
252
250
250
251
253
252
250
249
255
255
255
255
255
255
255
255
255
255
255
255
255
255
255
255
249
253
252
252
252
253
253
254
252
243
248
252
253
252
168
208
250
208
140
144
254
249
254
252
253
246
152
95
96
94
94
90
88
86
86
89
82
82
82
82
81
81
81
80
76
80
79
88
156
252
230
81
78
77
76
75
75
78
80
81
74
88
76
86
161
230
252
245
251
249
244
244
248
250
252
252
251
249
249
250
253
252
250
248
255
255
255
255
255
255
255
255
255
255
255
255
255
255
255
255
250
252
254
252
252
252
254
253
252
251
248
252
250
242
117
237
247
181
143
142
254
250
253
251
254
244
127
97
98
96
95
92
90
88
87
93
83
83
82
82
82
81
81
81
79
79
78
80
117
250
240
113
80
79
77
75
75
77
79
80
79
74
80
76
76
149
228
251
245
253
252
251
248
249
252
255
252
250
249
250
253
253
250
249
255
255
255
255
255
255
255
255
255
255
255
255
255
255
255
255
251
252
254
252
251
252
253
252
252
253
253
247
243
201
126
245
242
155
144
141
251
252
252
251
253
232
109
101
101
98
97
94
92
90
89
95
83
83
83
82
82
82
81
81
82
78
79
72
96
238
247
165
82
80
78
76
75
76
77
78
75
75
75
83
85
66
117
202
244
245
249
253
251
244
250
252
254
252
250
251
253
254
251
250
255
255
255
255
255
255
255
255
255
255
255
255
255
255
255
255
253
252
253
253
250
252
252
250
254
250
250
245
237
132
178
249
230
138
144
141
252
252
253
251
253
210
101
105
103
100
99
96
94
92
90
97
84
83
83
83
82
82
82
82
83
78
83
71
83
212
241
213
83
81
79
76
75
74
75
76
82
75
82
88
69
72
88
81
201
228
241
247
247
252
251
250
253
253
252
252
252
255
252
252
255
255
255
255
255
255
255
255
255
255
255
255
255
255
255
255
254
252
252
253
250
252
251
249
254
245
245
247
214
83
221
251
208
132
142
141
253
253
254
251
252
186
100
108
105
102
100
98
95
93
91
98
86
84
83
83
85
85
82
82
81
82
84
79
73
180
244
239
83
81
80
77
75
73
74
76
77
79
73
72
89
89
75
73
82
168
233
242
250
250
248
246
251
254
253
252
252
254
254
253
255
255
255
255
255
255
255
255
255
255
255
255
255
255
255
255
254
252
251
254
249
252
250
248
253
242
244
246
175
85
238
248
186
134
139
142
253
253
253
251
250
171
102
110
106
103
101
99
96
94
92
99
86
84
84
83
86
87
83
82
78
86
84
88
66
156
249
241
84
82
81
77
75
76
76
76
78
76
77
79
76
74
77
80
69
83
148
225
248
253
244
249
250
252
255
253
252
253
254
254
255
255
255
255
255
255
255
255
255
255
255
255
255
255
255
255
253
252
251
254
249
252
249
247
249
243
245
245
134
111
241
246
173
137
137
143
253
253
253
248
232
152
103
112
108
107
105
103
100
98
97
98
92
91
89
86
83
81
79
78
82
77
86
84
76
118
238
252
166
69
80
70
76
74
78
74
76
76
77
78
77
76
76
77
80
76
74
110
193
239
251
240
242
250
254
250
253
254
250
252
255
255
255
255
255
255
255
255
255
255
255
255
255
255
255
255
250
252
251
248
250
252
251
253
247
251
244
220
84
160
241
226
134
136
138
142
253
253
251
248
232
143
107
112
109
108
106
104
101
99
97
98
92
91
89
87
84
82
80
79
77
85
88
84
77
82
221
251
183
76
79
74
78
75
79
76
75
76
77
78
77
76
76
77
69
72
80
72
99
184
243
253
248
247
251
254
250
252
253
252
255
255
255
255
255
255
255
255
255
255
255
255
255
255
255
255
251
253
252
250
252
252
252
253
252
243
245
150
78
194
242
220
134
136
138
142
253
251
248
249
232
129
114
114
110
109
107
105
103
100
99
98
93
92
90
88
86
83
82
81
80
90
83
82
82
57
190
250
208
89
75
77
80
78
78
79
76
76
77
77
77
76
76
77
83
72
68
76
82
90
156
237
248
248
249
248
250
245
238
252
255
255
255
255
255
255
255
255
255
255
255
255
255
255
255
255
252
255
252
252
253
252
252
254
254
244
231
83
90
229
244
201
134
136
138
142
253
251
246
250
228
117
120
116
112
111
109
107
104
102
100
99
95
94
92
90
88
85
84
83
88
88
74
80
86
62
152
247
230
109
70
77
78
79
76
81
76
76
77
78
77
76
76
76
75
84
71
70
82
74
76
130
229
246
252
254
247
251
253
242
255
255
255
255
255
255
255
255
255
255
255
255
255
255
255
255
252
253
253
251
252
251
249
253
251
245
160
73
128
242
248
174
134
136
138
142
253
249
246
250
216
113
124
117
114
113
111
109
107
104
102
102
97
96
94
92
90
87
86
85
89
82
75
84
82
82
115
245
240
140
69
75
76
77
73
79
76
76
77
77
77
76
76
76
76
75
79
74
72
80
84
62
118
208
245
250
252
253
244
255
255
255
255
255
255
255
255
255
255
255
255
255
255
255
255
255
251
250
253
249
250
251
247
253
247
235
92
76
168
252
248
151
134
136
138
142
252
249
249
249
198
116
124
119
116
115
113
111
108
106
104
103
99
98
96
94
92
89
88
87
84
81
83
89
75
90
89
234
248
177
76
75
75
74
73
76
76
76
77
77
77
76
76
76
84
76
75
77
77
75
76
85
67
100
179
241
251
245
249
253
255
255
255
255
255
255
255
255
255
255
255
255
255
255
255
255
250
249
253
247
248
251
247
253
250
188
78
71
198
247
231
135
134
136
138
142
252
249
252
248
180
123
123
120
117
116
115
112
110
108
106
105
101
100
98
96
93
91
89
88
84
83
82
83
76
87
75
200
248
209
86
77
77
75
78
76
76
76
76
77
77
76
76
76
70
89
78
71
77
75
70
79
84
74
75
157
242
252
250
252
255
255
255
255
255
255
255
255
255
255
255
255
255
255
255
255
249
249
254
247
248
253
248
252
244
125
77
92
223
245
201
124
134
136
138
142
251
251
253
247
168
129
122
121
118
117
115
114
111
108
107
106
101
100
99
96
94
92
90
89
89
87
76
75
83
85
73
167
243
233
97
79
79
76
83
77
76
76
76
76
76
76
76
76
76
75
76
79
76
78
80
75
74
79
76
69
134
224
252
247
255
255
255
255
255
255
255
255
255
255
255
255
255
255
255
255
248
250
254
248
248
254
250
250
231
87
71
127
243
245
179
115
134
136
138
142
253
253
254
246
153
133
123
124
121
120
118
116
112
110
108
107
104
103
102
99
97
95
93
92
91
89
85
81
81
86
93
98
244
241
129
77
77
79
81
74
76
76
76
76
76
76
76
76
76
76
76
77
77
77
77
77
77
75
77
77
63
102
248
246
251
255
255
255
251
250
255
255
255
255
255
255
255
255
255
255
247
251
250
250
249
249
248
246
181
67
78
145
244
247
226
194
138
133
141
145
252
254
252
243
131
124
125
132
120
119
118
117
115
114
113
112
105
104
103
100
98
95
94
93
93
91
86
82
81
84
89
93
232
247
160
75
80
74
79
74
76
76
76
76
76
77
76
76
76
76
76
77
77
77
78
77
78
80
79
77
78
87
202
251
253
255
255
255
252
251
255
255
255
255
255
255
255
255
255
255
250
252
250
253
251
249
252
241
144
71
79
176
243
253
251
247
199
140
127
141
250
252
252
243
127
133
133
131
133
131
127
122
119
114
111
109
107
106
104
102
99
97
95
94
95
92
88
84
80
81
84
86
193
251
202
73
82
72
76
75
76
76
76
76
76
76
76
76
76
76
76
76
77
77
77
77
73
83
77
76
84
75
131
240
255
255
255
255
254
253
253
254
255
255
255
255
255
255
255
255
252
254
253
253
253
248
254
226
102
77
87
218
242
249
251
247
247
171
127
137
250
253
252
244
125
136
133
119
122
121
119
117
114
112
110
110
109
108
106
104
101
99
97
96
97
94
90
85
81
79
79
80
160
249
233
87
80
74
75
77
76
77
76
76
76
76
77
76
76
76
76
76
76
77
77
77
70
78
75
76
85
76
86
212
255
255
255
255
255
254
252
249
255
255
255
255
255
255
255
255
254
253
254
252
253
248
252
203
84
84
102
244
244
246
247
244
249
217
143
138
250
253
249
238
123
136
143
138
131
130
128
126
123
120
119
117
111
110
108
106
103
101
99
98
98
96
93
88
84
80
79
78
133
240
246
118
73
80
75
78
76
77
77
76
76
76
77
76
76
76
76
76
76
76
76
76
74
75
75
76
79
80
70
163
252
253
255
255
255
255
251
248
255
255
255
255
255
255
255
255
252
252
254
250
253
250
247
173
78
84
133
250
249
246
252
245
246
247
155
144
247
252
250
234
131
123
126
127
127
126
125
124
122
121
120
120
113
112
110
108
105
103
101
100
99
98
95
92
88
85
82
80
110
221
252
166
72
84
75
77
76
77
77
76
76
77
76
76
76
76
76
76
76
76
76
76
80
75
76
78
73
79
71
114
244
249
255
255
255
255
253
252
255
255
255
255
255
255
255
255
250
252
253
249
253
253
242
140
73
79
185
254
251
241
253
244
247
251
171
144
252
254
252
242
178
154
142
136
128
127
126
124
122
121
120
119
114
113
111
109
107
104
102
102
99
99
98
96
93
90
87
85
87
196
251
209
80
82
78
73
76
77
77
76
76
76
76
76
76
76
76
76
76
76
76
76
77
78
74
78
76
75
77
90
235
244
255
255
255
255
255
255
255
255
255
255
255
255
255
255
248
251
252
249
252
253
234
106
74
78
224
254
253
243
245
241
251
252
210
133
252
245
245
250
239
230
228
230
215
207
193
176
159
143
130
122
115
114
112
110
107
105
103
102
99
100
100
99
97
94
90
88
72
177
248
234
89
79
80
72
76
77
77
76
76
76
76
77
76
76
76
76
76
76
76
76
73
79
70
78
80
75
83
83
229
241
255
255
255
254
255
255
255
255
255
255
255
255
255
255
248
250
251
249
252
253
227
84
83
83
239
248
254
248
253
245
254
252
248
119
255
255
255
255
255
255
255
255
254
254
254
253
253
252
252
252
204
196
184
167
150
133
120
113
92
92
92
91
91
91
91
90
80
142
242
247
119
72
90
69
76
76
76
76
76
76
76
76
76
76
76
76
76
76
76
76
76
76
76
76
76
76
76
76
183
235
249
253
254
252
253
251
249
249
254
250
247
250
254
249
252
246
249
251
248
244
166
81
80
148
244
253
252
246
252
245
252
253
250
166
255
255
255
255
255
255
255
255
254
254
254
253
253
253
252
252
246
245
245
243
238
231
226
222
194
186
170
149
127
105
89
81
83
113
223
247
158
72
82
77
76
76
76
76
76
76
76
76
76
76
76
76
76
76
76
76
76
76
76
76
76
76
76
76
164
237
249
253
252
253
253
252
249
249
253
250
247
250
254
250
253
248
251
251
248
247
139
82
80
167
245
251
252
248
252
245
252
253
250
179
255
255
255
255
255
255
255
255
254
254
254
254
253
253
253
252
248
249
248
249
250
251
250
249
249
248
247
245
239
233
229
228
178
169
234
248
191
70
73
81
76
76
76
76
76
76
76
77
76
76
76
76
76
76
76
76
76
76
76
76
76
76
76
76
135
236
250
249
251
252
252
252
249
249
253
250
248
251
254
251
254
251
252
251
249
241
100
82
85
195
248
247
252
251
253
247
252
252
250
201
255
255
255
255
255
255
255
255
255
255
254
254
254
253
253
253
247
248
249
250
251
252
252
253
249
249
252
253
253
252
252
252
248
237
249
248
208
79
70
75
76
76
76
76
76
76
76
76
76
76
76
76
76
76
76
76
76
76
76
76
76
76
76
76
105
226
250
246
250
250
250
253
249
249
253
251
250
252
254
252
253
252
252
250
254
216
75
78
101
223
251
246
251
251
253
249
252
252
251
223
255
255
255
255
255
255
255
255
255
255
255
254
254
254
253
253
249
249
249
249
249
249
249
249
252
252
253
253
251
247
245
243
247
247
252
248
230
116
77
77
76
76
76
76
76
76
76
76
76
76
76
76
76
76
76
76
76
76
76
76
76
76
76
76
86
202
248
245
250
249
247
254
249
249
253
251
251
252
254
253
251
252
251
248
252
175
69
73
130
242
253
248
251
251
254
251
251
252
251
237
255
255
255
255
255
255
255
255
255
255
255
255
254
254
254
254
251
251
251
252
252
252
251
252
254
254
254
253
253
252
252
252
246
249
252
251
243
156
79
82
76
76
76
76
76
76
76
76
76
76
76
76
76
76
76
76
76
76
76
76
76
76
76
76
79
169
247
246
251
248
246
252
249
249
253
252
252
253
254
254
250
253
251
248
248
129
70
71
166
249
251
253
251
252
255
250
251
253
251
245
255
255
255
255
255
255
255
255
255
255
255
255
255
254
254
254
252
252
252
252
253
253
252
252
253
252
252
252
251
250
250
250
247
253
246
252
247
185
73
75
76
76
76
76
76
76
76
76
76
76
76
76
76
76
76
76
76
76
76
76
76
76
76
76
81
128
244
247
252
247
246
250
249
249
253
252
253
254
254
253
250
254
253
251
235
102
72
76
197
248
249
254
251
252
254
250
252
253
251
248
255
255
255
255
255
255
255
255
255
255
255
255
255
254
254
254
252
252
252
252
252
252
252
252
252
252
252
252
252
252
252
252
243
253
242
253
251
218
89
76
76
76
76
76
76
76
76
76
76
76
76
76
76
76
76
76
76
76
76
76
76
76
76
76
81
102
241
249
252
248
246
250
250
249
253
253
253
254
254
253
251
247
254
251
220
91
71
80
218
241
247
254
251
252
254
250
252
254
251
249
255
255
255
255
255
255
255
255
255
255
255
255
255
255
255
255
254
254
254
254
254
254
254
254
254
254
254
254
255
255
254
254
247
251
248
249
251
238
102
76
76
76
76
76
76
76
76
76
76
76
76
76
76
76
76
76
76
76
76
76
76
76
76
76
82
76
212
251
253
242
247
252
252
251
253
254
254
254
254
253
252
252
255
247
177
66
71
110
243
247
247
254
251
253
254
252
254
255
249
251
255
255
255
255
255
255
255
255
255
255
255
255
255
255
255
255
253
253
253
254
254
254
253
253
253
253
253
253
253
253
253
253
249
252
249
249
251
243
137
77
77
76
76
77
76
76
76
76
76
76
76
76
76
76
76
76
76
76
76
76
76
76
76
76
80
74
173
248
253
250
249
251
253
252
253
255
254
254
255
254
254
251
254
241
149
67
68
147
247
247
247
254
252
253
254
252
254
253
252
250
255
255
255
255
255
255
255
255
255
255
255
255
255
255
255
255
253
253
253
253
253
253
254
253
253
253
253
253
252
252
252
252
250
253
249
252
251
246
182
78
76
76
76
76
76
76
76
76
76
76
76
76
76
76
76
76
76
76
76
76
76
76
76
76
77
75
120
241
249
254
252
246
254
253
253
254
254
254
255
254
253
251
254
233
107
69
65
188
249
248
249
253
253
253
254
254
253
251
253
249
255
255
255
255
255
255
255
255
255
255
255
255
255
255
255
255
253
253
253
253
253
254
254
255
255
254
254
254
253
253
253
253
251
254
251
254
254
245
215
76
75
76
76
76
77
76
76
76
76
76
76
76
76
76
76
76
76
76
76
76
76
76
76
76
75
77
85
228
247
252
252
249
252
254
253
254
253
253
254
252
251
252
253
219
73
70
71
220
249
251
251
253
254
253
254
254
253
250
253
251
255
255
255
255
255
255
255
255
255
255
255
255
255
255
255
255
252
252
253
253
253
253
253
253
253
253
253
253
253
253
253
253
251
252
253
254
252
242
233
88
75
77
76
76
77
76
76
76
76
76
76
76
76
76
76
76
76
76
76
76
76
76
76
76
75
78
74
199
247
248
248
253
250
252
253
254
253
252
254
250
248
252
253
196
58
68
93
237
249
251
254
251
252
254
254
252
252
253
251
253
255
255
255
255
255
255
255
255
255
255
255
255
255
255
255
255
253
253
253
253
253
253
253
253
253
253
253
253
253
253
253
253
251
251
250
253
249
243
242
125
75
77
76
76
77
76
76
76
76
76
76
76
76
76
76
76
76
76
76
76
76
76
76
76
74
79
76
159
245
244
244
252
249
251
253
253
252
251
254
249
246
252
253
151
62
68
137
245
249
247
252
251
251
254
254
250
251
253
250
253
255
255
255
255
255
255
255
255
255
255
255
255
255
255
255
255
254
254
254
254
255
255
255
255
255
255
254
254
254
254
254
254
252
248
249
253
246
247
248
179
76
77
76
76
77
76
76
76
76
76
76
76
76
76
76
76
76
76
76
76
76
76
76
76
74
78
77
117
242
243
240
252
249
250
253
253
252
250
254
247
241
252
250
101
67
67
186
251
249
244
251
251
250
254
254
249
253
251
252
253
255
255
255
255
255
255
255
255
255
255
255
255
255
255
255
255
252
252
252
253
253
253
253
253
253
254
253
253
253
253
253
253
254
247
248
253
244
247
250
217
75
77
76
76
77
76
76
76
76
76
76
76
76
76
76
76
76
76
76
76
76
76
76
76
75
77
76
85
237
242
235
251
248
249
253
253
252
250
254
247
238
249
243
67
74
67
214
253
248
243
250
250
250
254
254
248
253
248
252
249
255
255
255
255
255
255
255
255
255
255
255
255
255
255
255
255
255
255
255
255
255
255
255
255
255
255
255
255
255
255
255
255
254
253
250
249
253
245
248
240
91
82
80
77
82
81
74
76
76
76
76
76
76
76
76
76
76
76
76
76
76
76
76
76
81
80
79
77
189
250
245
249
252
253
252
252
251
252
252
246
248
247
197
58
73
81
251
247
252
245
247
254
252
253
253
250
247
253
249
252
255
255
255
255
255
255
255
255
255
255
255
255
255
255
255
255
255
255
255
255
255
255
255
255
255
255
255
255
255
255
255
255
254
253
250
250
253
246
249
241
117
76
78
77
80
79
76
79
76
76
76
76
76
76
76
76
76
76
76
76
76
76
76
76
79
78
77
73
164
248
246
249
253
253
252
252
251
252
253
247
249
248
146
66
65
127
252
246
253
246
249
254
252
254
253
251
248
253
249
252
255
255
255
255
255
255
255
255
255
255
255
255
255
255
255
255
255
255
255
255
255
255
255
255
255
255
255
255
255
255
255
255
252
254
251
250
254
248
250
243
157
71
77
79
78
75
77
80
76
76
76
76
76
76
76
76
76
76
76
76
76
76
76
76
75
75
75
68
126
241
248
249
254
253
253
253
252
252
253
249
251
242
86
76
54
181
252
249
253
248
250
254
254
254
254
251
248
253
251
252
255
255
255
255
255
255
255
255
255
255
255
255
255
255
255
255
255
255
255
255
255
255
255
255
255
255
255
255
255
255
255
255
250
254
251
250
254
250
251
246
193
75
75
80
75
74
78
82
76
76
76
76
76
76
76
76
76
76
76
76
76
76
76
76
75
75
74
68
92
223
249
251
253
254
254
253
252
252
255
252
253
220
62
77
56
212
250
252
253
251
252
253
254
253
254
252
249
253
250
252
255
255
255
255
255
255
255
255
255
255
255
255
255
255
255
255
255
255
255
255
255
255
255
255
255
255
255
255
255
255
255
255
249
253
251
251
253
252
252
249
223
97
74
80
74
74
80
80
76
76
76
76
76
76
76
76
76
76
76
76
76
76
76
76
76
76
75
72
73
195
248
251
252
255
254
253
252
252
253
254
253
179
66
64
83
231
244
254
254
254
254
253
253
253
255
253
251
254
252
253
255
255
255
255
255
255
255
255
255
255
255
255
255
255
255
255
255
255
255
255
255
255
255
255
255
255
255
255
255
255
255
255
247
252
252
251
253
254
253
252
240
130
73
79
74
74
77
78
76
76
76
76
76
76
76
76
76
76
76
76
76
76
76
76
75
77
77
75
69
155
246
250
251
254
253
253
252
252
253
252
249
131
66
54
127
245
245
253
254
252
252
254
252
252
254
254
252
253
252
253
255
255
255
255
255
255
255
255
255
255
255
255
255
255
255
255
255
255
255
255
255
255
255
255
255
255
255
255
255
255
255
255
246
252
252
252
252
252
253
253
248
164
71
78
75
78
74
77
76
76
76
76
76
76
76
76
76
76
76
76
76
76
76
76
75
75
76
74
72
109
242
248
250
254
253
254
253
253
252
250
236
95
62
53
167
250
250
250
254
249
250
254
251
251
254
254
253
254
252
251
255
255
255
255
255
255
255
255
255
255
255
255
255
255
255
255
255
255
255
255
255
255
255
255
255
255
255
255
255
255
255
255
246
251
253
252
252
251
253
251
253
185
72
77
75
81
72
76
76
76
76
76
76
76
76
76
76
76
76
76
76
76
76
76
73
72
75
74
77
80
233
247
249
254
253
254
254
254
253
249
218
81
59
59
184
252
252
249
254
248
248
255
250
251
253
255
254
253
253
250
255
255
255
255
255
255
255
255
255
255
255
255
255
255
255
255
255
255
255
255
255
255
255
255
255
255
255
255
255
255
255
255
246
251
253
253
252
250
253
250
248
219
88
79
78
80
74
81
76
76
76
76
76
76
76
76
77
77
76
75
74
74
74
74
73
70
68
72
77
60
205
238
251
245
253
254
252
250
253
246
169
64
62
83
232
251
252
248
253
248
248
254
250
251
253
254
254
254
254
253
255
255
255
255
255
255
255
255
255
255
255
255
255
255
255
255
255
255
255
255
255
255
255
255
255
255
255
255
255
255
255
255
248
252
254
253
251
250
253
250
247
233
100
78
77
77
79
78
76
76
76
76
76
76
76
76
76
76
76
75
74
73
73
73
74
69
67
70
77
68
159
249
251
253
254
254
253
252
251
249
148
60
57
104
242
248
253
247
253
249
248
253
251
251
253
254
254
254
253
253
255
255
255
255
255
255
255
255
255
255
255
255
255
255
255
255
255
255
255
255
255
255
255
255
255
255
255
255
255
255
255
255
249
252
254
253
252
251
253
250
247
245
132
73
76
75
82
75
76
76
76
76
76
76
76
76
76
75
74
73
73
72
72
72
72
67
66
67
74
76
99
244
246
253
244
251
250
250
242
251
114
56
52
143
251
245
253
245
252
250
248
252
252
251
253
253
253
254
252
253
255
255
255
255
255
255
255
255
255
255
255
255
255
255
255
255
255
255
255
255
255
255
255
255
255
255
255
255
255
255
255
255
252
252
253
253
252
252
254
251
252
247
179
65
77
77
80
74
75
75
75
75
75
76
75
75
74
73
74
73
72
71
71
71
72
64
68
65
69
70
68
226
248
252
249
253
250
249
248
238
80
55
52
190
252
248
254
247
251
252
249
251
253
252
253
253
252
254
252
252
255
255
255
255
255
255
255
255
255
255
255
255
255
255
255
255
255
255
255
255
255
255
255
255
255
255
255
255
255
255
255
255
253
253
253
253
253
253
254
253
254
246
219
70
80
79
76
73
75
75
75
75
75
75
75
75
73
73
72
72
70
70
69
69
70
64
69
64
63
60
68
184
245
247
249
253
249
247
248
196
59
56
65
228
252
252
253
250
250
253
250
250
253
252
253
251
252
254
252
252
255
255
255
255
255
255
255
255
255
255
255
255
255
255
255
255
255
255
255
255
255
255
255
255
255
255
255
255
255
255
255
255
251
254
252
253
253
254
254
254
252
244
242
93
80
79
75
74
75
75
75
75
75
75
75
75
72
72
71
70
70
69
69
68
67
63
67
63
58
57
72
130
245
248
247
253
244
245
247
159
55
57
96
247
249
252
252
253
250
251
251
249
252
253
253
251
251
253
252
252
255
255
255
255
255
255
255
255
255
255
255
255
255
255
255
255
255
255
255
255
255
255
255
255
255
255
255
255
255
255
255
255
250
254
252
253
253
254
253
253
250
248
246
131
80
77
78
74
75
75
75
75
74
74
74
74
71
71
70
70
69
68
68
68
66
63
65
64
60
57
62
91
238
249
246
252
244
245
229
117
59
55
132
251
249
253
250
253
249
250
252
248
251
253
254
251
251
253
251
252
255
255
255
255
255
255
255
255
255
255
255
255
255
255
255
255
255
255
255
255
255
255
255
255
255
255
255
255
255
255
255
255
249
253
252
253
253
253
253
252
250
251
242
161
78
75
81
73
75
75
75
74
74
74
74
74
71
70
70
69
68
68
68
68
65
63
64
65
62
65
57
73
195
245
238
247
243
243
182
53
62
52
160
251
251
252
250
253
249
249
253
248
250
253
254
250
251
253
251
252
255
255
255
255
255
255
255
255
255
255
255
255
255
255
255
255
255
255
255
255
255
255
255
255
255
255
255
255
255
255
255
255
248
254
249
251
253
251
252
254
249
246
246
229
83
81
74
78
76
75
74
73
72
71
70
70
69
69
68
66
65
64
64
64
62
61
60
60
58
58
59
59
59
191
229
226
233
187
72
53
60
56
232
246
254
247
254
252
250
250
252
253
254
252
253
253
252
253
254
254
255
255
255
255
255
255
255
255
255
255
255
255
255
255
255
255
255
255
255
255
255
255
255
255
255
255
255
255
255
255
255
255
248
254
250
251
253
251
252
254
250
246
246
232
102
79
76
79
75
75
73
73
72
71
70
69
69
68
67
66
65
64
64
63
62
61
60
59
57
58
58
59
69
65
130
181
133
63
49
55
52
85
235
247
254
249
254
252
251
250
252
254
254
253
253
253
252
253
254
254
255
255
255
255
255
255
255
255
255
255
255
255
255
255
255
255
255
255
255
255
255
255
255
255
255
255
255
255
255
255
255
255
248
254
250
251
254
252
253
253
251
248
248
236
132
77
77
79
74
73
73
72
71
71
69
68
68
67
66
65
64
64
63
63
60
60
59
59
57
57
58
58
54
49
69
70
41
44
61
51
43
132
240
248
254
251
252
252
251
251
252
254
254
253
253
253
252
253
254
254
255
255
255
255
255
255
255
255
255
255
255
255
255
255
255
255
255
255
255
255
255
255
255
255
255
255
255
255
255
255
255
255
249
254
251
252
255
254
253
253
253
251
249
241
163
74
78
80
73
73
72
71
71
69
69
68
66
66
65
64
63
62
62
61
60
59
59
58
57
56
57
57
53
72
54
39
57
58
47
61
45
182
244
249
253
251
250
252
252
251
252
255
253
253
253
253
252
253
253
254
