P2
101
76
255
119
119
112
106
109
115
121
123
123
118
115
117
119
120
119
123
125
120
117
116
114
109
111
114
115
118
114
116
119
117
117
84
51
37
34
35
35
38
43
48
57
64
64
65
66
70
76
76
81
81
95
114
116
115
120
124
125
120
120
127
127
125
124
126
123
119
114
118
114
111
117
124
119
174
189
177
204
221
229
243
236
234
233
216
204
204
243
241
159
157
211
137
129
116
80
64
61
51
45
42
43
117
119
113
106
108
113
122
123
124
120
116
116
119
120
118
123
124
120
116
115
113
108
110
111
117
115
121
117
117
115
115
120
119
106
81
57
49
47
46
50
56
67
70
72
76
82
84
95
104
116
120
117
121
119
121
125
121
126
124
119
125
125
122
129
123
120
120
115
114
118
115
129
212
215
213
198
175
191
226
226
235
207
217
223
192
181
246
204
146
132
172
142
92
89
117
57
58
54
51
46
44
117
120
113
106
107
111
120
122
125
122
118
116
117
118
119
122
124
120
115
114
112
109
109
110
113
120
118
122
112
118
120
119
117
113
113
115
113
112
101
96
92
90
90
96
102
105
115
113
118
119
120
122
114
109
118
125
123
127
124
121
125
122
126
123
125
120
123
156
188
151
210
227
238
149
159
178
153
181
209
159
200
196
210
219
229
239
235
180
95
132
136
145
93
86
141
66
51
53
55
50
45
117
120
114
107
107
111
117
122
125
122
118
116
117
116
120
120
122
119
115
112
111
108
107
113
116
116
120
117
118
117
116
120
122
118
111
109
112
115
117
117
115
114
115
114
112
109
114
113
114
119
119
119
117
114
122
120
124
125
123
122
122
124
125
126
122
135
193
217
238
226
222
189
219
138
135
230
226
232
234
185
163
181
201
232
230
243
207
130
111
136
136
109
89
83
97
69
53
50
53
52
65
116
120
112
105
105
107
116
122
125
122
120
116
114
116
116
119
120
118
114
112
110
108
107
110
115
118
121
120
121
117
116
118
119
118
115
110
113
117
118
116
115
115
114
114
112
110
111
113
117
119
120
117
117
119
117
120
123
124
123
122
124
121
125
119
129
209
186
176
200
218
188
208
240
211
192
198
225
238
227
139
167
173
185
225
223
219
202
142
160
149
123
163
84
67
85
75
55
52
45
48
39
116
120
112
106
106
108
115
122
125
122
120
116
115
116
115
118
118
116
112
111
109
106
106
110
113
116
120
120
119
118
118
118
119
117
115
111
114
117
118
117
117
117
114
115
113
110
110
112
115
118
119
117
117
119
118
120
120
125
124
126
118
126
138
175
171
189
195
213
163
184
173
210
220
204
192
192
216
233
213
181
191
186
201
170
146
203
143
147
148
128
112
114
120
123
110
133
104
52
48
47
46
118
120
113
105
106
109
113
119
124
122
118
116
115
115
115
116
117
115
112
112
108
106
108
111
114
117
119
122
120
118
117
119
119
120
116
113
113
115
117
118
118
117
116
115
113
111
110
112
116
117
117
119
118
117
118
122
120
124
125
123
122
144
199
199
176
169
213
184
190
225
230
194
160
186
179
184
203
217
180
125
191
230
163
123
96
155
141
158
160
173
108
156
157
134
186
231
188
128
55
49
49
117
120
113
106
106
108
111
119
122
121
118
116
115
115
113
115
114
114
114
111
110
106
109
111
113
118
120
122
122
120
119
119
119
118
116
114
114
115
118
118
119
117
116
114
111
110
107
112
115
115
116
117
119
117
117
122
122
124
127
124
116
183
168
168
178
210
195
230
211
189
203
120
129
168
170
199
165
132
94
73
77
154
172
140
84
63
121
155
194
181
127
140
181
160
160
162
127
167
75
50
53
118
120
114
109
107
107
111
119
122
121
119
118
116
115
114
114
115
115
113
112
108
105
109
111
112
115
119
123
123
121
120
120
118
118
117
115
115
115
117
118
120
118
116
113
112
110
107
111
115
117
116
117
118
118
119
119
121
124
125
124
116
217
203
229
202
216
194
220
217
205
196
160
135
170
206
207
159
134
112
73
61
56
119
136
79
57
121
99
52
96
152
143
143
149
131
107
93
70
76
49
44
117
120
116
111
108
105
110
118
122
120
118
118
117
115
115
117
114
114
112
110
108
107
108
109
111
114
119
123
122
121
122
121
120
118
118
116
116
116
118
119
120
118
116
113
112
110
107
111
117
116
115
115
117
119
118
118
120
122
124
125
179
230
226
232
173
148
143
114
104
142
183
228
185
229
238
233
232
163
87
58
52
52
69
82
64
78
112
104
70
73
151
167
146
123
93
75
63
70
71
58
45
119
122
118
113
110
107
111
118
122
120
118
119
116
114
114
115
115
112
112
110
108
107
108
108
111
114
120
123
124
123
122
122
119
118
117
116
116
116
118
118
120
118
115
113
112
112
108
112
115
117
114
114
116
119
118
118
122
124
127
131
231
201
187
206
170
134
107
94
89
106
124
149
140
185
243
219
234
233
97
55
52
64
84
98
76
138
141
133
71
108
130
153
164
102
58
78
70
72
40
64
35
119
121
116
113
112
110
111
119
123
120
118
119
118
116
114
114
115
113
112
112
111
110
109
110
112
115
119
122
124
124
122
122
120
118
117
116
115
116
117
118
118
117
114
111
110
111
109
111
114
115
115
113
116
117
119
121
118
126
122
130
203
144
140
160
152
180
160
107
75
77
135
111
64
118
101
175
136
138
201
78
88
87
117
106
60
105
121
108
94
111
110
157
139
105
75
77
71
101
108
128
48
118
120
119
114
111
110
110
120
126
121
121
116
116
116
115
118
111
111
112
112
113
109
108
109
111
114
118
122
124
123
124
124
122
119
119
117
118
117
122
121
121
118
114
114
111
111
110
109
113
118
118
112
115
120
113
122
118
120
124
136
189
138
107
124
136
150
144
101
101
122
112
97
74
86
103
121
196
158
134
128
102
113
133
67
43
52
90
87
97
162
150
96
85
84
78
83
106
141
87
99
62
123
123
118
113
111
111
111
121
127
121
122
121
120
116
116
116
115
118
113
108
109
109
110
111
112
114
120
124
125
123
125
124
121
119
117
115
118
118
118
121
121
118
114
111
110
113
111
112
112
114
115
114
115
119
116
117
125
119
116
152
172
188
155
138
120
149
118
99
91
121
119
99
85
66
119
179
171
170
206
153
155
133
125
60
36
67
92
61
58
94
67
36
38
53
58
83
81
116
112
105
61
123
121
118
118
113
114
118
123
126
121
122
121
119
114
115
112
110
113
113
115
121
116
109
110
110
113
118
122
125
126
125
125
121
119
118
116
117
116
119
120
121
118
114
111
110
115
111
112
114
114
115
115
115
116
120
121
123
120
124
138
128
121
135
146
121
123
117
137
125
122
127
89
87
58
74
113
185
211
164
109
176
94
84
58
49
104
122
56
35
29
33
32
47
57
60
69
94
88
156
113
56
133
124
119
119
115
115
117
122
125
120
122
121
123
119
116
117
115
114
112
112
113
112
111
109
109
112
116
122
125
125
125
125
120
119
118
114
118
117
119
119
120
119
117
113
111
113
111
113
114
116
116
115
116
115
118
121
124
130
137
129
122
109
143
129
105
111
111
101
109
127
130
84
73
60
98
207
194
81
91
61
172
164
91
65
58
83
128
71
63
39
29
36
40
35
23
15
24
60
91
87
52
216
160
127
116
121
119
119
126
129
120
118
120
125
122
118
117
115
114
117
115
112
116
111
110
109
112
117
122
125
126
124
125
120
117
115
114
117
116
117
119
121
120
117
113
111
111
111
112
115
119
118
113
115
118
121
122
166
221
231
201
140
133
116
120
104
115
120
121
102
113
126
75
54
77
142
185
81
121
118
77
105
155
143
71
64
53
49
37
56
30
34
22
18
18
20
24
23
21
54
55
54
251
250
238
194
160
135
127
124
125
124
125
122
124
119
114
117
116
111
114
116
113
113
113
111
110
112
117
122
125
125
125
126
121
119
115
114
115
115
115
121
123
122
116
113
112
113
112
112
115
119
117
114
115
120
116
149
239
246
247
245
230
118
133
119
118
126
111
129
101
88
116
114
156
189
166
91
139
160
85
70
51
54
55
101
115
74
51
35
28
21
12
21
17
22
20
19
21
19
47
80
48
250
252
252
247
246
240
233
207
181
161
150
139
130
120
116
111
116
115
111
114
115
115
113
111
110
111
115
122
124
123
125
124
121
119
117
114
114
114
116
121
124
121
117
116
114
112
112
111
115
117
117
114
116
118
138
236
204
150
228
251
246
156
145
120
122
138
128
109
98
108
93
156
160
122
130
120
92
87
80
60
48
58
72
107
55
43
37
28
21
17
24
19
16
18
17
20
20
21
43
60
51
231
248
250
249
251
250
249
250
252
250
248
242
227
201
176
126
106
115
115
116
115
114
112
110
109
110
115
120
121
122
123
124
121
119
117
114
114
114
116
119
120
117
118
119
115
108
109
112
114
117
117
116
116
115
191
251
153
98
240
252
246
198
142
130
132
153
150
114
109
100
91
119
101
98
102
81
81
45
65
54
55
55
46
47
40
36
26
18
21
19
20
17
21
17
21
19
14
16
19
75
103
236
248
235
244
247
244
251
253
248
252
247
249
251
241
242
234
179
144
121
115
112
117
115
108
110
108
113
122
122
120
123
122
120
117
115
114
115
114
114
119
119
119
118
118
116
113
111
110
111
115
116
116
116
142
218
240
130
116
170
253
251
250
205
119
136
156
177
142
126
117
121
101
96
118
119
78
64
57
66
61
59
58
31
34
33
26
18
16
20
22
19
23
17
17
18
25
111
163
122
112
122
245
248
252
248
245
248
245
251
252
252
250
252
248
247
233
226
176
173
149
147
141
129
106
108
107
111
118
117
122
119
120
120
122
122
118
112
112
113
116
118
120
121
120
119
117
113
111
116
113
117
115
117
113
187
218
210
167
160
226
236
243
204
226
151
153
166
168
127
129
133
139
112
156
100
93
84
79
69
78
66
69
60
34
28
28
22
67
73
28
24
18
17
18
17
21
26
54
44
123
169
121
252
249
249
245
246
252
252
229
245
251
248
247
252
250
242
247
204
199
197
122
153
201
198
147
102
113
112
121
115
125
124
124
119
115
116
115
113
109
113
117
119
119
120
119
116
114
112
115
111
119
121
119
135
191
194
135
136
210
236
186
151
104
156
151
148
161
176
134
132
132
134
134
146
129
81
99
83
63
53
67
58
54
42
97
99
136
122
73
29
25
15
18
21
16
19
16
13
51
81
98
120
251
247
230
230
232
238
222
234
248
246
250
253
253
239
248
251
247
249
219
242
150
112
203
242
210
111
118
121
116
122
115
120
120
118
115
111
110
110
113
116
117
119
120
119
116
114
112
110
118
112
119
122
124
207
222
96
183
176
118
90
109
114
113
144
177
214
193
133
147
139
129
138
85
50
71
75
91
74
61
61
65
63
120
138
152
110
47
52
42
16
21
21
17
16
20
19
109
177
122
81
64
237
246
250
249
246
239
234
233
243
238
244
226
253
251
246
252
251
249
250
236
222
167
111
169
241
231
171
121
121
119
121
118
119
121
117
111
107
110
113
113
116
117
118
120
117
113
113
108
113
114
116
112
189
195
156
141
97
78
94
86
87
95
114
133
170
146
148
157
157
151
118
90
86
84
80
59
72
75
66
63
63
60
125
149
107
126
45
35
44
21
24
18
20
17
22
19
63
117
92
137
80
226
229
239
233
227
239
248
250
240
237
240
238
249
238
226
249
249
250
252
218
245
214
127
120
173
248
246
196
111
120
119
119
120
118
114
113
110
107
111
111
114
115
117
119
116
113
109
105
118
139
127
112
176
207
177
140
84
80
84
82
87
91
102
146
133
166
153
146
161
167
133
89
81
82
78
65
64
68
62
58
52
50
62
77
82
58
39
31
37
20
19
20
15
20
14
18
22
30
62
82
67
250
244
246
245
216
208
230
250
243
229
208
234
234
233
250
242
247
243
246
253
248
250
185
129
113
172
234
247
216
140
116
117
121
121
110
109
110
105
110
111
114
115
117
118
115
112
110
109
107
126
128
164
187
111
118
85
80
85
98
105
114
103
152
203
174
152
222
240
204
187
138
98
84
80
96
77
71
62
63
44
33
38
39
51
52
48
37
38
19
19
20
16
19
18
18
17
19
16
71
55
35
241
177
241
245
202
229
237
239
234
170
233
241
235
235
237
244
244
245
241
250
237
196
242
177
98
120
160
240
246
235
160
130
114
117
115
109
109
105
107
110
114
115
118
118
117
111
104
104
103
112
126
215
170
79
105
83
77
107
111
102
101
138
217
154
152
210
247
248
223
164
149
75
74
80
79
72
60
44
39
29
37
32
44
41
44
37
46
34
21
17
16
20
17
19
19
23
22
39
123
104
48
231
229
182
206
214
198
159
206
237
203
249
192
137
220
222
200
240
248
233
246
247
250
250
198
148
95
112
179
246
246
245
168
115
117
116
108
107
106
107
109
111
115
117
116
114
113
115
160
136
133
134
212
119
84
97
100
105
111
115
108
100
141
235
190
177
203
245
252
238
191
148
102
30
46
50
48
35
30
28
42
36
39
44
44
38
44
37
25
14
19
20
16
17
22
19
18
22
39
74
103
83
249
206
217
203
203
179
206
246
186
218
233
218
211
245
232
245
194
203
237
250
216
245
246
210
189
111
99
146
180
221
243
247
155
115
107
113
106
106
106
107
109
112
115
115
115
112
111
102
115
111
165
123
93
116
99
74
83
98
90
94
69
143
118
142
160
176
206
184
240
196
112
81
79
67
54
38
28
28
31
31
35
36
39
36
32
29
21
16
21
17
18
21
21
17
23
25
19
52
86
49
87
198
193
237
237
202
245
234
237
219
246
241
216
224
194
155
247
234
211
209
233
236
246
244
246
233
159
83
104
153
208
242
254
235
159
113
109
101
105
103
106
108
111
112
113
113
111
113
134
171
111
137
108
107
100
102
84
76
83
85
79
78
88
109
118
146
132
197
164
188
163
77
90
77
56
48
46
42
33
34
35
34
30
34
24
15
16
18
17
19
20
16
17
21
23
48
43
21
28
63
65
53
163
237
238
236
196
226
119
152
202
203
211
213
132
216
210
199
200
227
248
243
223
252
238
248
249
212
94
90
83
152
231
252
248
244
157
110
105
104
103
107
108
110
112
112
114
110
107
102
106
103
126
112
90
106
81
90
87
94
80
81
82
90
119
97
128
135
148
127
104
106
87
63
51
51
53
47
42
28
27
37
24
24
21
18
23
19
17
21
14
18
19
24
19
63
225
224
167
28
29
49
49
244
195
115
158
215
212
215
251
242
217
237
238
213
251
230
219
241
237
236
241
173
250
189
227
243
205
156
70
84
129
129
227
239
247
246
162
107
100
102
105
108
109
110
112
112
109
110
102
113
131
121
101
96
106
82
83
88
95
73
82
78
82
87
105
114
108
140
128
108
88
80
62
50
52
52
45
42
28
53
84
28
19
19
15
14
19
16
19
19
19
19
22
18
105
155
101
181
139
53
53
116
179
140
194
165
127
178
220
159
166
211
203
160
217
218
228
232
222
245
241
237
213
248
203
234
221
211
149
87
76
80
151
181
209
248
249
238
128
105
101
103
105
108
109
109
109
110
105
105
100
109
160
132
91
101
109
76
70
71
86
81
79
77
82
108
129
111
113
110
102
95
72
50
48
48
42
41
47
81
87
97
29
22
16
18
21
17
18
17
19
19
18
20
22
52
74
50
71
139
120
180
227
221
237
226
225
237
188
105
153
203
152
238
145
148
142
201
157
140
232
208
136
229
249
248
247
233
174
173
84
73
83
106
169
191
236
244
245
225
110
106
105
104
107
109
108
108
109
105
100
110
116
204
128
107
114
93
107
83
86
97
81
84
74
97
140
152
117
102
95
98
99
66
48
43
42
42
44
91
102
94
77
20
16
20
19
16
16
17
21
18
19
20
30
29
14
69
47
71
163
195
125
154
223
184
125
153
224
204
229
239
188
132
244
237
240
241
237
130
196
248
196
160
245
207
160
196
190
214
200
158
77
71
59
117
147
199
241
244
245
221
110
107
105
108
110
108
108
110
111
106
100
231
190
116
111
122
114
93
102
107
81
91
95
96
130
208
105
105
116
102
99
79
75
76
55
38
45
84
111
100
90
42
17
20
22
20
19
18
20
19
18
20
19
17
22
94
248
131
175
173
112
106
47
120
189
220
197
128
161
148
234
182
197
200
136
162
152
182
230
247
190
177
225
226
129
141
212
227
225
217
124
88
68
56
83
109
186
188
239
245
247
183
103
107
105
109
110
105
109
117
154
177
252
150
136
141
132
130
85
93
104
94
90
85
94
187
128
97
101
98
100
83
65
56
86
121
115
92
129
112
81
67
35
20
20
16
15
17
20
17
18
21
21
17
23
21
126
222
147
204
132
120
76
39
232
215
178
245
143
189
234
231
220
230
230
180
191
185
124
153
195
210
194
202
201
239
244
227
159
109
158
87
131
53
76
86
101
130
180
232
235
240
246
213
115
105
106
107
110
166
213
239
249
245
121
121
146
132
120
107
106
110
91
91
91
86
111
89
100
89
89
94
84
60
81
163
161
118
155
125
111
64
42
24
19
18
19
19
16
18
19
21
30
20
18
21
54
185
168
112
88
149
86
53
51
165
108
219
220
176
241
200
118
184
213
188
228
206
227
202
159
152
226
230
249
184
151
171
209
84
127
183
117
149
69
57
55
76
102
143
164
225
244
238
247
185
105
109
164
238
248
233
243
214
193
201
106
127
127
126
113
95
108
107
87
81
86
108
97
90
83
84
82
91
87
73
94
114
175
133
157
127
58
27
19
17
16
17
19
15
15
17
17
19
20
24
15
129
250
166
192
128
51
39
36
46
101
203
205
120
145
152
225
175
121
132
108
144
151
225
227
189
202
222
171
237
237
173
209
212
109
206
155
129
123
48
60
57
65
107
131
202
238
223
243
245
221
111
119
243
247
229
245
247
250
208
164
110
63
111
118
117
99
96
99
97
92
85
91
105
86
84
60
98
90
77
76
66
130
169
127
105
93
75
23
21
18
16
17
16
15
17
20
17
19
22
22
52
209
193
84
111
92
37
47
37
32
110
236
139
115
222
231
242
193
219
239
212
239
244
213
231
145
179
229
235
222
172
164
211
171
228
128
163
78
135
119
73
54
71
75
89
144
148
189
226
248
249
160
172
250
176
199
231
212
244
222
183
121
73
69
119
117
118
115
95
94
107
91
85
98
102
83
89
118
80
62
56
62
93
83
97
139
98
68
23
18
18
18
18
18
16
17
14
22
17
20
17
122
217
156
186
67
46
43
40
34
30
147
239
164
215
219
173
168
239
233
207
205
180
128
112
183
214
105
140
210
156
132
250
222
203
207
142
179
204
80
81
56
70
66
89
88
126
86
165
190
229
238
224
190
128
130
136
131
147
135
153
211
141
75
98
119
129
126
142
113
124
138
126
126
144
101
110
106
102
94
78
61
64
86
57
54
100
87
73
28
19
18
18
18
18
17
19
21
19
18
25
15
159
91
149
57
47
32
38
39
23
29
168
152
219
232
122
112
110
121
130
105
107
106
157
224
200
210
181
89
102
217
224
241
132
150
192
215
196
80
169
101
86
71
45
52
67
73
149
160
205
232
241
240
204
106
87
87
68
74
125
107
96
87
96
106
132
127
132
132
137
123
138
129
142
128
122
144
110
82
91
86
69
77
79
90
76
89
85
60
34
20
17
18
17
19
18
18
19
19
14
28
28
176
119
109
103
55
47
41
27
22
23
160
80
115
171
236
234
230
178
210
211
142
210
245
160
95
115
246
201
80
221
223
166
92
204
168
186
207
86
151
117
74
50
51
30
67
122
150
140
169
142
235
237
203
85
73
70
56
50
43
43
50
81
74
112
133
124
124
133
122
132
128
138
136
140
128
114
96
98
115
93
65
70
71
73
82
86
71
59
31
20
20
20
18
19
19
16
19
19
16
32
124
172
143
89
104
110
57
57
37
27
19
219
118
76
199
143
130
176
234
182
178
251
231
129
89
100
220
147
95
189
176
84
80
94
97
143
237
226
143
141
39
90
30
55
71
71
92
116
58
88
130
221
219
244
114
84
67
54
44
40
62
62
89
80
111
120
101
120
121
151
123
144
157
117
117
104
120
107
118
97
84
65
68
61
69
76
78
71
59
26
19
28
37
31
22
24
17
19
21
45
70
148
153
127
163
189
102
72
46
38
34
25
119
205
215
196
85
116
211
118
107
176
214
194
212
89
157
208
76
78
142
169
161
92
221
219
147
178
169
136
217
99
59
66
45
33
58
39
85
126
175
172
207
208
227
137
80
71
56
47
48
64
74
59
85
121
117
111
118
124
135
147
162
205
153
112
109
109
90
111
102
91
40
56
60
47
51
70
57
28
24
24
39
34
23
18
22
19
19
20
16
40
142
78
164
161
210
173
110
68
44
33
27
183
156
140
98
88
225
189
157
228
197
98
107
208
173
112
155
175
65
80
86
204
235
230
162
193
192
121
157
124
118
123
52
61
47
57
36
114
114
161
87
129
228
243
171
80
61
54
39
55
94
107
94
120
130
137
130
148
136
112
159
128
120
155
127
132
137
117
109
104
85
68
62
52
48
55
65
39
32
27
27
37
25
19
21
20
21
21
25
22
23
43
108
142
173
198
125
97
53
45
31
22
89
60
80
76
79
187
147
144
176
203
56
89
177
202
79
97
202
213
237
200
123
84
137
95
95
169
130
201
68
53
53
31
34
44
52
67
107
79
118
121
181
214
135
217
76
68
47
47
70
80
117
122
123
120
131
127
123
117
98
141
115
61
117
148
161
149
192
157
105
77
51
54
49
42
54
37
48
30
34
29
31
19
20
23
20
19
20
19
22
20
34
78
186
199
196
198
155
82
72
51
50
151
185
187
190
136
93
76
67
130
235
91
76
141
217
184
94
105
170
163
72
57
91
160
76
158
100
57
101
51
70
35
41
41
33
46
39
82
130
138
185
188
206
143
236
137
68
49
35
35
67
87
126
143
189
152
142
133
108
96
82
95
124
108
125
165
135
160
226
211
177
187
89
53
46
45
40
35
37
31
30
28
23
23
19
20
21
18
24
20
27
27
98
158
210
242
225
203
159
142
108
89
69
82
64
193
137
200
149
135
194
177
202
193
230
138
208
199
65
80
139
57
41
91
94
87
210
42
36
71
52
79
52
47
40
28
46
50
64
102
165
118
140
129
231
172
168
71
59
40
40
76
105
139
139
170
137
134
100
66
66
78
46
106
84
89
114
112
123
181
231
207
253
221
122
39
38
35
37
34
25
25
26
25
25
19
22
20
26
17
26
25
34
151
228
232
249
249
247
229
218
158
119
54
37
136
202
90
135
223
198
120
104
201
223
133
72
128
205
49
54
91
168
118
151
122
167
188
32
85
95
35
59
25
45
33
38
48
41
56
48
121
83
150
152
208
211
187
82
65
39
45
70
134
101
128
90
92
103
66
83
46
102
55
31
46
106
101
138
105
188
180
195
158
207
252
200
74
72
45
33
23
22
27
24
24
22
23
20
20
25
25
29
48
189
203
234
251
249
252
246
145
91
131
192
183
193
82
69
81
122
79
71
68
88
115
83
59
170
90
51
95
114
73
121
122
58
94
93
64
103
41
47
74
33
49
31
38
45
34
55
47
85
101
111
201
131
207
139
60
60
56
59
60
96
103
67
68
85
78
47
59
44
35
29
40
61
103
91
95
111
130
128
120
153
207
228
218
97
71
43
30
25
26
34
24
18
22
22
21
26
25
37
37
33
178
207
224
236
249
250
252
162
114
162
74
116
147
57
44
110
106
50
38
43
69
82
60
70
133
75
72
130
82
39
54
68
35
43
69
115
76
28
75
108
29
47
29
37
38
31
59
42
65
86
56
102
128
143
141
58
41
42
59
57
59
108
107
67
72
56
59
48
27
28
22
31
60
100
121
134
112
164
154
181
223
226
174
122
141
112
39
29
23
37
29
26
25
22
26
21
21
24
47
89
141
217
208
207
195
220
236
250
193
127
165
44
45
84
94
54
51
126
166
129
44
87
87
66
59
80
91
66
88
60
29
79
54
48
84
49
67
37
67
70
32
28
39
25
37
42
63
38
99
60
148
142
71
118
133
108
56
48
38
37
57
75
78
107
80
46
87
114
72
18
28
23
33
42
89
94
93
144
137
149
102
60
129
135
98
116
112
29
30
28
24
24
21
22
26
29
54
148
129
242
252
247
242
234
229
225
212
201
200
212
172
163
36
43
76
122
78
45
66
67
160
71
39
92
115
48
60
101
48
69
109
42
67
43
75
51
33
58
47
72
37
31
32
33
38
35
38
45
34
68
63
84
51
118
82
152
105
63
32
33
38
63
71
75
125
102
64
121
110
105
80
64
26
35
42
83
67
75
110
171
121
75
119
115
102
125
130
102
29
28
26
30
23
26
23
23
29
30
175
215
234
204
220
212
202
182
161
148
192
179
174
201
136
75
33
43
128
78
31
35
56
149
98
31
94
110
56
41
114
61
53
92
68
72
59
76
45
36
57
43
45
38
37
45
30
37
34
40
40
32
54
46
65
49
87
72
152
111
102
24
31
38
53
52
76
100
113
127
133
114
105
132
74
31
44
47
77
84
80
92
74
140
95
89
104
90
112
93
58
28
28
29
27
30
28
32
25
23
41
167
175
142
139
113
142
151
120
70
122
154
89
90
87
78
81
33
63
106
192
189
73
41
67
105
63
98
116
76
35
56
90
54
76
60
43
96
63
32
56
32
45
35
39
34
41
25
30
32
42
47
38
59
74
51
99
80
85
102
110
167
15
35
38
39
38
46
97
90
112
115
96
107
86
83
172
128
58
74
69
79
71
86
74
44
79
83
86
95
64
43
59
39
25
41
43
26
34
28
26
40
132
110
106
92
107
139
149
95
49
52
78
61
59
89
187
57
37
77
57
67
130
134
43
64
108
110
62
73
134
54
56
130
134
69
49
39
61
32
42
56
35
37
31
31
43
33
30
37
29
39
42
52
41
98
62
114
73
130
86
119
152
30
33
28
30
30
52
115
103
106
144
105
73
92
108
116
137
88
74
96
92
100
49
57
60
57
53
57
75
159
76
89
100
144
162
167
105
50
28
30
43
122
87
51
58
109
137
81
60
53
46
74
50
50
158
199
44
43
62
42
36
48
93
101
55
81
66
36
46
95
135
70
63
79
47
44
53
45
47
55
40
29
41
27
34
36
24
30
32
22
34
36
41
43
60
60
94
68
126
129
89
162
32
36
28
27
59
123
113
133
104
126
85
63
83
139
114
103
52
48
89
104
130
23
31
35
39
42
55
193
244
210
155
174
197
171
144
138
93
49
51
51
106
111
66
39
47
62
55
53
46
40
102
58
90
190
157
33
36
48
37
32
34
46
50
32
36
54
34
37
42
45
38
38
48
39
42
69
38
48
50
30
30
39
30
33
31
25
29
34
26
34
33
46
41
38
57
63
59
71
67
72
121
119
103
77
63
122
123
125
163
144
102
100
64
74
107
112
85
63
68
96
121
90
32
32
29
31
70
174
230
249
248
252
250
220
201
167
142
98
67
59
84
116
60
68
50
53
38
48
53
51
32
111
85
148
235
138
36
39
41
46
27
34
41
40
33
37
52
47
32
39
44
37
38
48
41
57
46
36
33
45
30
38
35
30
35
28
25
32
31
27
34
44
53
37
37
50
50
74
64
66
106
99
155
215
131
144
176
169
130
103
122
82
80
62
98
90
101
57
36
52
89
60
65
72
49
65
82
115
177
233
244
232
237
241
231
218
191
153
130
99
72
162
135
54
77
45
44
42
46
51
52
81
149
186
218
225
147
46
29
31
44
47
29
39
42
37
34
45
45
35
38
43
40
42
54
56
66
43
35
40
40
39
33
30
31
34
28
26
32
34
26
35
31
43
45
36
42
41
55
42
53
44
47
153
230
220
223
209
153
171
145
82
71
74
89
140
61
61
39
35
40
110
129
147
96
125
141
137
125
159
110
128
168
175
177
172
236
193
188
175
135
176
224
145
79
37
38
30
39
54
72
84
49
77
198
139
86
64
65
65
36
34
42
32
35
44
40
34
40
42
35
38
45
39
53
55
42
41
40
48
40
32
35
38
25
32
35
27
34
39
31
35
31
37
31
36
36
37
35
41
37
45
36
63
53
188
190
125
106
100
131
154
124
54
59
87
68
53
55
46
44
62
56
133
186
147
117
126
143
131
137
137
73
49
142
94
109
206
216
188
185
238
253
251
204
118
56
51
53
39
52
63
73
65
101
133
50
52
51
36
51
33
39
37
35
34
40
40
37
40
41
36
40
54
37
45
47
41
45
42
42
32
33
39
37
36
36
23
31
33
29
35
34
32
28
33
34
34
41
43
29
40
33
45
74
140
159
147
159
111
105
100
105
99
46
48
109
72
39
43
55
102
126
174
176
153
139
119
129
126
150
102
63
61
54
141
90
108
197
218
219
231
247
248
247
227
125
61
55
56
54
51
42
47
53
110
78
53
41
43
33
39
34
37
37
34
34
37
39
35
40
43
40
45
45
44
48
42
44
42
37
39
35
36
35
32
34
27
27
26
36
33
37
32
33
24
29
29
29
28
34
33
35
33
36
91
114
136
118
108
93
88
106
122
131
51
118
170
109
43
71
138
129
120
136
172
95
93
87
126
110
115
102
140
111
87
144
119
135
222
245
222
233
249
241
217
160
154
95
50
49
52
46
43
41
48
55
85
53
35
67
39
40
35
36
40
35
34
39
43
40
40
42
40
38
42
40
42
45
45
41
40
40
34
35
28
34
32
35
32
29
35
35
31
37
56
78
71
30
37
27
29
28
28
35
63
68
135
83
137
99
91
87
111
99
130
161
179
119
71
60
103
104
141
163
119
155
124
94
113
124
100
110
196
154
131
137
128
132
165
233
221
176
238
250
231
162
142
158
90
51
44
70
49
64
61
69
46
94
54
52
43
32
39
35
40
39
37
37
39
44
44
39
34
34
36
39
32
29
40
38
32
38
33
34
36
35
27
26
29
29
74
55
94
102
95
111
80
53
31
24
27
23
28
56
66
55
118
101
61
82
112
103
95
123
131
124
80
96
76
69
72
63
134
147
149
116
177
211
163
149
173
125
105
129
166
136
143
157
169
176
166
137
129
192
182
207
134
143
98
81
60
57
55
49
51
76
71
61
89
88
54
45
40
36
38
41
41
42
39
33
38
41
31
27
30
43
60
61
37
32
35
37
39
27
32
31
31
31
28
22
126
191
121
105
104
122
81
27
25
29
27
23
27
55
138
71
37
64
56
75
82
191
112
105
90
118
114
94
104
78
186
95
151
142
140
114
149
178
218
174
183
189
127
112
116
120
167
167
169
158
163
132
135
151
124
126
140
121
100
81
87
54
57
53
53
49
82
114
69
128
101
78
60
41
41
41
41
40
39
32
34
28
22
23
22
31
58
147
161
151
108
78
62
48
35
31
29
25
27
29
23
76
88
149
197
142
113
83
37
29
22
25
25
33
47
38
28
57
82
53
119
91
159
96
82
82
169
138
133
126
117
157
92
84
91
109
125
175
176
206
171
168
127
172
220
215
153
150
172
178
154
197
171
130
114
85
117
116
112
96
72
65
78
58
48
48
38
36
101
132
145
82
65
79
37
35
35
32
30
29
28
25
22
19
20
23
28
44
101
171
199
234
236
223
193
152
69
39
21
24
17
23
105
113
176
154
106
108
134
95
23
21
27
28
23
23
24
29
32
40
70
103
78
116
97
98
92
108
94
110
126
148
66
100
166
146
117
152
199
208
185
184
198
221
245
245
243
243
181
153
139
162
198
170
141
121
110
132
118
138
141
124
140
104
51
51
47
26
62
129
153
123
80
61
66
27
24
22
19
19
21
21
18
21
21
20
24
32
37
51
134
247
219
209
215
193
201
201
78
43
39
48
87
106
121
82
95
90
98
118
44
22
17
24
29
27
23
19
21
43
49
87
73
99
102
117
111
103
110
74
121
168
83
64
88
113
120
201
199
174
214
246
250
248
250
244
244
207
203
240
215
132
145
177
182
157
130
134
127
141
145
151
153
152
141
57
60
57
36
41
131
166
167
132
71
68
18
15
16
19
21
21
21
19
19
18
18
24
32
41
106
152
137
144
148
203
191
116
161
194
121
130
124
114
74
99
144
83
107
66
37
45
15
19
21
25
23
35
34
34
67
50
67
65
64
87
112
120
90
69
71
141
116
159
143
117
153
184
176
177
183
232
251
248
232
200
222
221
235
181
234
249
214
136
158
162
168
152
137
127
129
140
145
157
159
170
145
62
73
56
131
148
147
125
102
83
61
18
20
21
21
21
20
20
21
16
18
23
25
28
36
107
149
140
116
137
105
91
57
72
106
140
138
104
132
90
116
122
68
131
130
55
58
17
21
22
25
23
23
43
44
49
72
69
52
47
82
81
77
100
82
73
94
148
125
160
124
180
231
240
223
235
243
227
188
183
221
186
163
180
186
192
217
224
217
159
129
163
148
138
129
117
131
130
146
143
181
181
164
150
126
170
154
147
134
94
78
70
20
20
18
18
18
18
17
20
16
20
26
26
29
37
106
130
113
71
45
40
33
30
29
53
133
77
80
88
90
69
74
62
137
93
51
58
32
74
96
12
11
22
45
49
48
62
61
49
40
69
91
92
158
137
98
132
127
122
124
181
214
206
176
148
187
198
168
159
176
151
136
211
196
171
175
168
199
225
234
169
156
158
144
155
140
131
127
121
139
152
163
159
162
155
169
176
167
120
85
60
94
15
15
16
18
21
23
21
21
16
16
21
26
37
42
58
118
55
41
43
23
22
25
24
21
72
108
97
74
63
46
32
42
44
46
67
47
57
64
54
51
144
141
101
95
59
64
54
44
72
62
108
92
164
223
235
252
238
215
201
201
138
139
126
151
116
104
107
88
108
84
142
105
176
151
107
167
236
214
200
225
226
178
154
152
135
141
141
143
126
125
140
161
168
190
210
184
155
111
85
61
104
16
16
16
19
18
20
23
18
16
20
25
32
38
29
29
59
29
36
37
39
38
25
23
21
86
100
84
61
64
39
58
31
49
36
56
50
49
35
42
52
57
145
152
134
89
50
51
54
75
68
123
198
245
225
219
249
253
251
252
246
233
218
206
117
189
172
157
154
141
104
127
137
101
94
128
109
205
230
240
237
233
220
173
154
141
136
126
129
111
130
129
176
189
219
239
211
158
103
74
73
58
